<svg width="176" height="176" fill="none" xmlns="http://www.w3.org/2000/svg"><path d="M88 176c48.601 0 88-39.399 88-88S136.601 0 88 0 0 39.399 0 88s39.399 88 88 88z" fill="#561DB1"/><path d="M106.517 173.924a87.368 87.368 0 005.03-1.129 87.658 87.658 0 008.338-2.787 87.785 87.785 0 008.03-3.578 88.17 88.17 0 007.634-4.378 88.008 88.008 0 0013.765-10.934 87.762 87.762 0 005.991-6.432 87.557 87.557 0 005.324-7.003 87.848 87.848 0 004.598-7.487 87.83 87.83 0 003.828-7.92 87.889 87.889 0 003.022-8.265 88.02 88.02 0 001.906-7.451l-52.286-52.279a47.47 47.47 0 00-33.682-13.977A47.534 47.534 0 0054.296 54.28a47.623 47.623 0 000 67.423l52.221 52.213v.007z" fill="#330B73"/><path d="M88.007 40.311c12.188 0 24.376 4.657 33.704 13.977a47.616 47.616 0 0110.351 51.96 47.608 47.608 0 01-10.351 15.463A47.612 47.612 0 0188 135.696a47.619 47.619 0 01-33.711-13.985A47.616 47.616 0 0140.303 88 47.623 47.623 0 0154.29 54.288a47.535 47.535 0 0133.718-13.977zm21.707 33.015a3.692 3.692 0 00-1.907.755L81.011 94.174 68.596 81.766c-2.691-2.8-7.993 2.494-5.185 5.185l14.667 14.667a3.794 3.794 0 004.789.344l29.333-22c2.464-1.796.946-6.585-2.105-6.629a3.645 3.645 0 00-.374 0l-.007-.007z" fill="#fff"/></svg>