<svg width="92" height="35" fill="none" xmlns="http://www.w3.org/2000/svg"><path d="M38.824 6.859a4.64 4.64 0 011.467.994c.42.42.749.91.994 1.466.241.56.362 1.157.362 1.79 0 .61-.11 1.18-.326 1.714a4.725 4.725 0 01-.893 1.42 4.66 4.66 0 01-1.333 1.004 4.42 4.42 0 01-1.654.463v-1.457a3.126 3.126 0 001.96-1.036 3.23 3.23 0 00.588-.962c.144-.362.215-.743.215-1.146a3.05 3.05 0 00-.247-1.227 3.186 3.186 0 00-.68-1.004 3.27 3.27 0 00-1.015-.684 3.068 3.068 0 00-1.238-.252h-1.436v6.303h-1.443V6.5h2.886a4.362 4.362 0 011.793.36z" fill="url(#paint0_linear_571_24)"/><path d="M47.201 6.37c.65 0 1.26.124 1.832.37.57.248 1.07.584 1.499 1.013.428.428.765.93 1.012 1.506s.37 1.188.37 1.837c0 .6-.105 1.165-.315 1.696a4.908 4.908 0 01-.857 1.42 4.769 4.769 0 01-1.288 1.035 4.44 4.44 0 01-1.609.523v-1.406a3.285 3.285 0 001.914-1.141 3.53 3.53 0 00.568-.98c.14-.363.21-.745.21-1.147 0-.46-.087-.89-.26-1.296a3.376 3.376 0 00-.715-1.062 3.303 3.303 0 00-1.062-.715 3.243 3.243 0 00-1.296-.26c-.46 0-.894.087-1.296.26A3.346 3.346 0 0044.131 9.8c-.173.403-.26.836-.26 1.296 0 .395.068.773.202 1.136.137.363.321.686.555.975.234.29.513.531.833.728.32.197.67.337 1.05.42v1.407a4.538 4.538 0 01-1.591-.536 4.707 4.707 0 01-1.278-1.03 4.74 4.74 0 01-.844-1.412 4.63 4.63 0 01-.307-1.685c0-.65.123-1.262.37-1.837a4.76 4.76 0 011.013-1.507 4.786 4.786 0 011.498-1.012 4.502 4.502 0 011.83-.373z" fill="url(#paint1_linear_571_24)"/><path d="M59.858 12.38c-.034.46-.147.89-.344 1.295a3.615 3.615 0 01-.77 1.049c-.316.297-.684.53-1.1.704a3.4 3.4 0 01-1.324.258 3.45 3.45 0 01-1.388-.279 3.597 3.597 0 01-1.128-.76 3.597 3.597 0 01-.76-1.127 3.474 3.474 0 01-.278-1.375V6.496h1.406v5.65a2.105 2.105 0 00.629 1.51c.197.195.425.345.683.458.26.11.536.165.833.165.271 0 .531-.05.778-.147.248-.1.466-.231.655-.4.19-.167.344-.367.462-.598.119-.232.195-.482.23-.752h1.416v-.003zm-1.406-1.518V6.507h1.406v4.355h-1.406zm8.511.111c.305.255.55.563.733.92.184.357.279.76.279 1.204 0 .363-.071.704-.215 1.022-.145.321-.34.6-.581.839-.242.24-.529.428-.852.568-.326.139-.67.21-1.033.21H61.19V6.494h3.787c.371 0 .715.07 1.036.215.32.145.602.337.844.581a2.685 2.685 0 01.105 3.683zm-1.674 3.317a1.273 1.273 0 00.872-.35c.116-.11.205-.239.271-.386a1.198 1.198 0 00-.003-.949 1.32 1.32 0 00-.27-.405 1.248 1.248 0 00-.403-.275 1.186 1.186 0 00-.475-.098h-1.42v-1.443h1.11a1.256 1.256 0 00.87-.344 1.167 1.167 0 00.352-.86c0-.17-.032-.334-.092-.483a1.266 1.266 0 00-.644-.676 1.089 1.089 0 00-.479-.105h-2.347v6.379h2.658v-.005zm5.251-.023h-1.443V6.494h1.444v7.773zm1.26 0h3.65v1.443H71.8v-1.443zm4.465-7.76h5.97v1.42h-4.553V9.96h-1.42V6.507h.003zm1.417 4.91v2.863h4.553v1.419h-5.97v-4.28h1.417v-.002zm3.961-1.42v1.42h-2.478v-1.42h2.478z" fill="#282970"/><path d="M38.824 21.256c.37 0 .718.07 1.044.21a2.679 2.679 0 011.424 1.43c.14.326.21.673.21 1.043 0 .371-.07.72-.21 1.047-.139.326-.33.612-.575.86a2.651 2.651 0 01-1.896.79h-2.2a2.625 2.625 0 01-1.895-.79 2.855 2.855 0 01-.575-.858 2.625 2.625 0 01-.21-1.043h1.442a1.215 1.215 0 00.368.88c.116.113.247.203.395.268.147.066.307.098.48.098h2.19c.171 0 .331-.032.481-.098a1.303 1.303 0 00.665-.67c.066-.152.097-.313.097-.483 0-.171-.034-.334-.1-.484a1.175 1.175 0 00-.27-.392 1.38 1.38 0 00-.394-.263 1.166 1.166 0 00-.481-.097l-2.195-.013a2.59 2.59 0 01-1.03-.21 2.622 2.622 0 01-.844-.568 2.745 2.745 0 01-.802-1.861h1.443c.008.163.045.318.11.465.066.147.155.274.271.384a1.226 1.226 0 00.862.35l2.195.005zm-2.379-3.935h2.148c.37 0 .717.07 1.043.21.326.14.613.331.862.573.25.242.445.526.584.852.142.326.213.673.213 1.043h-1.443a1.207 1.207 0 00-.37-.875 1.349 1.349 0 00-.403-.263 1.217 1.217 0 00-.486-.097h-2.148V17.32z" fill="url(#paint2_linear_571_24)"/><path d="M44.98 20.614h1.69l-.962 1.59v4.404h-1.443v-4.403l-2.873-4.81h1.677l1.911 3.196v.023zm2.579-1.466h-1.69l1.062-1.75h1.69l-1.062 1.75z" fill="url(#paint3_linear_571_24)"/><path d="M53.728 21.256c.37 0 .718.07 1.044.21a2.678 2.678 0 011.424 1.43c.14.326.21.673.21 1.043 0 .371-.07.72-.21 1.047-.139.326-.33.612-.575.86a2.65 2.65 0 01-1.896.79h-2.2a2.626 2.626 0 01-1.895-.79 2.855 2.855 0 01-.576-.858 2.625 2.625 0 01-.21-1.043h1.443a1.248 1.248 0 00.368.88c.116.113.247.203.395.268.147.066.307.098.48.098h2.19c.171 0 .331-.032.481-.098a1.301 1.301 0 00.665-.67c.066-.152.098-.313.098-.483 0-.171-.035-.334-.1-.484a1.174 1.174 0 00-.271-.392 1.378 1.378 0 00-.394-.263 1.166 1.166 0 00-.481-.097l-2.195-.013a2.59 2.59 0 01-1.03-.21 2.622 2.622 0 01-.844-.568 2.747 2.747 0 01-.802-1.861h1.443c.008.163.045.318.11.465.066.147.155.274.271.384a1.226 1.226 0 00.862.35l2.195.005zm-2.381-3.935h2.147c.37 0 .718.07 1.044.21.326.14.612.331.862.573.25.242.444.526.583.852.142.326.213.673.213 1.043h-1.443a1.207 1.207 0 00-.37-.875 1.35 1.35 0 00-.403-.263 1.218 1.218 0 00-.486-.097h-2.147V17.32z" fill="url(#paint4_linear_571_24)"/><path d="M61.277 20.614h.014v6.01h-1.444V18.84h-2.862v-1.443h4.292v3.218zm1.294-3.22h1.58v1.446h-1.58v-1.445z" fill="url(#paint5_linear_571_24)"/><path d="M65.877 17.434h5.97v1.42h-4.553v2.034h-1.42v-3.454h.003zm1.42 4.907v2.863h4.553v1.42h-5.97v-4.28h1.417v-.003zm3.958-1.416v1.419h-2.478v-1.42h2.478zm1.79-.595h1.444v6.28h-1.444v-6.28zm8.956-2.935h.728v9.215h-1.443v-6.463l-3.404 3.38-3.367-3.354v-2.048l3.367 3.367 4.119-4.098zm6.724 3.861c.37 0 .718.07 1.044.21a2.68 2.68 0 011.634 2.473c0 .371-.07.72-.21 1.047-.14.326-.331.612-.575.86a2.651 2.651 0 01-1.896.79h-2.2a2.625 2.625 0 01-1.895-.79 2.855 2.855 0 01-.576-.858 2.623 2.623 0 01-.21-1.043h1.443a1.215 1.215 0 00.368.88c.116.113.247.203.394.268.148.066.308.098.481.098h2.19c.17 0 .331-.032.481-.098a1.303 1.303 0 00.665-.67c.066-.152.097-.313.097-.483 0-.171-.034-.334-.1-.484a1.174 1.174 0 00-.27-.392 1.378 1.378 0 00-.395-.263 1.166 1.166 0 00-.48-.097l-2.195-.013a2.59 2.59 0 01-1.03-.21 2.62 2.62 0 01-.845-.568 2.745 2.745 0 01-.801-1.861h1.443c.008.163.044.318.11.465.066.147.155.274.27.384a1.226 1.226 0 00.862.35l2.196.005zm-2.381-3.935h2.147c.37 0 .718.07 1.044.21.326.14.612.331.862.573.25.242.444.526.583.852.142.326.213.673.213 1.043H89.75a1.207 1.207 0 00-.37-.875 1.35 1.35 0 00-.403-.263 1.218 1.218 0 00-.486-.097h-2.147V17.32z" fill="#282970"/><path d="M30.967 13.452a8.303 8.303 0 00-.226-1.225.242.242 0 00-.09-.137.238.238 0 00-.067-.034.243.243 0 00-.303.134c-.002.008-.01.016-.013.026-.081.268-.155.526-.234.77a6.564 6.564 0 01-.255.697 3.918 3.918 0 01-.22.431c-.022.037-.045.071-.066.108-.095.155-.19.307-.292.457a.209.209 0 01-.074.071.211.211 0 01-.084.034c-.144.027-.302-.09-.297-.244a.22.22 0 01.024-.097 9.809 9.809 0 00.528-1.415 9.584 9.584 0 00.344-1.929c.032-.439.035-.87.008-1.293-.005-.105-.015-.21-.023-.316a7.914 7.914 0 00-.08-.617 9.189 9.189 0 00-.775-2.513 7.63 7.63 0 00-.82-1.351c-.108-.14-.302-.113-.391.005a.248.248 0 00-.048.15c0 .192.003.383.003.573.003.378.003.749 0 1.12-.003.184-.005.368-.01.552a8.19 8.19 0 01-.13 1.27.231.231 0 01-.173.188.234.234 0 01-.084.008.238.238 0 01-.229-.231c-.102-2.098-.98-3.938-2.205-5.402a11.482 11.482 0 00-1.661-1.611A11.445 11.445 0 0020.918.319c-.02-.01-.042-.013-.063-.018l-.024-.008a.222.222 0 00-.22.12.26.26 0 00-.037.127.25.25 0 00.063.163l.003.003.002.002c.145.176.279.353.41.534 1.073 1.472 1.717 3.104 1.604 5-.006.097-.008.202-.016.304a1.318 1.318 0 01-.092.45.716.716 0 01-.32.352c-.119.066-.3.105-.521.126a4.153 4.153 0 01-.486.01 7.366 7.366 0 01-1.646-.24 4.132 4.132 0 01-.407-.13l-.119-.047a1.345 1.345 0 01-.412-.247c-.497-.497-.62-1.08-.381-1.672.034-.084.076-.17.126-.255.168-.294.389-.5.649-.602a1.12 1.12 0 01.423-.079 1.457 1.457 0 01.481.084c.134.045.255.208.39.247a.17.17 0 00.08.006c.056-.01.114-.048.174-.13.179-.236.142-.559.032-.832a1.404 1.404 0 00-.502-.631 2.09 2.09 0 00-.747-.313c-.339-.079-.691-.082-.999-.294a2.289 2.289 0 00-.273-.166c-.04-.021-.082-.037-.124-.058-.052-.024-.102-.05-.155-.07-.055-.022-.113-.038-.17-.056-.04-.01-.077-.026-.116-.037-.069-.018-.137-.029-.205-.042-.03-.005-.055-.013-.084-.016a3.35 3.35 0 00-.552-.031h-.035c-.094.002-.189.01-.284.02h-.013a4.928 4.928 0 00-.38.056c-1.914.363-3.06 1.737-4.151 3.175a.401.401 0 00-.06.137.249.249 0 00.125.281c.069.037.103.08.116.121.05.163-.166.418-.205.465-.123.142-.27.59-.565 1.486-.452 1.382-.415 2.875-.4 2.875.003 0 .008-.05.021-.134-.018.45 0 .896.069 1.34-.384-.58-.742-1.18-1.054-1.81-1.514-3.063-1.322-5.983.812-8.711.068-.09.14-.177.208-.266.165-.213-.085-.5-.319-.365C7.373 2.388 5.018 4.8 4.802 8.663c-.015.283-.423.32-.483.041a8.044 8.044 0 01-.158-1.44c-.024-.66-.016-1.322-.01-2.066.002-.25-.324-.342-.455-.132-1.727 2.737-2.305 5.983-.723 9.437.123.268-.244.484-.42.247a19.925 19.925 0 01-.348-.478c-.386-.537-.533-1.183-.775-1.882-.079-.229-.407-.213-.47.018-.592 2.148-.153 4.022 1.146 5.69 1.6 2.062 3.648 3.21 6.037 3.578.297.045.403-.375.121-.475-3.007-1.068-5.057-2.566-5.785-4.261-.105-.242.197-.458.391-.279C4.8 18.427 7 19.568 9.11 19.855c.266.037.384-.32.153-.455-1.782-1.04-3.267-2.279-4.405-3.916-1.094-1.572-1.712-3.273-1.811-4.903-.016-.278.375-.36.475-.1 1.091 2.902 3.56 5.539 5.749 6.99.229.152.497-.127.336-.347-2.426-3.339-3.934-6.835-2.775-10.812.081-.28.497-.205.48.087-.123 2.253.595 4.369 1.854 6.398 1.254 2.016 2.791 3.809 4.392 5.552.405.439.642.701.72.927.003.008.008.014.014.022-.957.77-1.578 1.503-1.578 1.503a9.173 9.173 0 00-.757.868c.09-.066.237-.177.424-.31 1.009-.731 2.208-1.58 3.677-2.185l.058-.024c.076-.031.15-.065.229-.094.152-.058.276-.1.375-.132.127-.04.221-.065.297-.081.045-.01.085-.016.121-.024-.17.145-.35.281-.528.416 0 0-.003 0-.003.002-.181.132-.365.26-.549.387v.002c-.213.145-.428.287-.644.426-1.264.817-2.481 1.685-3.443 2.868-.692.851-1.278 1.745-1.517 2.844-.158.72-.103 1.42.105 2.103.32 1.056.967 1.918 1.709 2.715.51.547.938.902 1.495 1.356.5.405 1.007.755 2.027 1.451.12.084.431.295.862.529.368.2.889.45.915.404.031-.055-.828-.454-1.698-1.33a21.623 21.623 0 01-.765-.785c-.074-.09-.27-.337-.597-.595-.055-.042-.058-.028-.105-.081a13.35 13.35 0 01-.836-1.007c-.184-.252-.084-.51.213-.6.134-.039.268-.054.407-.062.545-.032 1.075-.147 1.601-.281.092-.024.171-.085.155-.174-.034-.174-.052-.347-.073-.52-.008-.074-.08-.087-.145-.071a8.71 8.71 0 01-1.561.228c-.734.05-1.454.013-2.14-.278-.491-.208-.63-.689-.328-1.133.247-.363.601-.607.975-.82a8.893 8.893 0 012.305-.889c.297-.073.607-.09.896-.194.255-.095.137-.313.155-.476.016-.147-.142-.1-.23-.103-.534-.018-1.068.019-1.604-.073-.44-.076-.876-.132-1.283-.318-.234-.105-.484-.216-.515-.505-.032-.29.207-.434.412-.56.526-.331 1.123-.48 1.725-.596.465-.09.933-.169 1.411-.166.137 0 .276-.018.413-.037.205-.026.174-.208.208-.339.023-.09-.024-.145-.116-.166a8.612 8.612 0 01-.468-.102c-.355-.092-.715-.184-.996-.44-.25-.225-.218-.433.076-.59a2.01 2.01 0 01.857-.235c.05-.002.097-.002.147-.002.266-.008.531-.005.797-.003.11 0 .168-.036.202-.092a.336.336 0 00.04-.115c.015-.074.023-.153.06-.21.042-.069.026-.111-.008-.143-.034-.031-.09-.05-.126-.073l-.108-.063a1.022 1.022 0 01-.205-.142.612.612 0 01-.084-.098.261.261 0 01-.05-.155c.005-.076.068-.131.176-.144.066-.008.132-.01.195-.013.126 0 .25.013.368.042.294.068.565.218.812.428a.22.22 0 01.084.163c0 .021 0 .042-.005.066-.016.079-.069.102-.129.12a.808.808 0 01-.36.013.726.726 0 00-.166-.004c-.136.015-.192.102-.228.323-.006.029-.006.053-.006.074a.125.125 0 00.016.05c.016.026.042.039.074.047.06.016.142.008.197.031a.38.38 0 00.097.024c.029.005.055.008.082.016.354.115.728.194 1.004.476.09.089.128.176.123.26a.267.267 0 01-.013.063.409.409 0 01-.145.181.86.86 0 01-.147.092c-.102.05-.213.084-.323.11l-.166.04c-.265.06-.536.06-.804.055-.092-.002-.181-.005-.273-.005-.092-.003-.15.026-.184.068a.054.054 0 00-.01.016.392.392 0 00-.05.14l-.009.057-.008.053c-.002.018-.002.037-.002.05v.003c.008.057.055.073.11.078.042.003.087 0 .124.003.51.042 1.025.066 1.524.197.08.021.158.042.237.066.079.023.155.05.231.081.153.06.297.137.429.245.026.02.05.044.07.068.148.166.148.368-.007.552-.034.04-.071.079-.11.116a.893.893 0 01-.127.097c-.176.113-.36.208-.552.287a4.443 4.443 0 01-.715.231l-.09.023-.322.072c-.324.07-.652.128-.989.13a.28.28 0 00-.194.064.245.245 0 00-.042.047.368.368 0 00-.053.134.787.787 0 00-.013.184c.003.071.021.113.047.14.06.057.169.026.255.029.329.005.66.005.989 0a3.591 3.591 0 01.594.047c.194.034.386.084.575.15.42.144.652.404.652.717a.685.685 0 01-.018.16.915.915 0 01-.058.169 1.47 1.47 0 01-.344.468 1.747 1.747 0 01-.15.126 6.037 6.037 0 01-.86.541 7.495 7.495 0 01-.925.403 9.227 9.227 0 01-.647.205.468.468 0 00-.12.05.28.28 0 00-.085.07c-.042.056-.057.13-.044.227v.002l.002.016c.01.079.026.155.03.234.002.092.025.147.07.17a.126.126 0 00.079.017.47.47 0 00.108-.024c.27-.092.541-.187.81-.29.173-.065.346-.136.52-.212.092-.04.184-.079.273-.121a.465.465 0 00.05-.029c.069-.042.14-.103.213-.123a.168.168 0 01.147.024l.024.012a.21.21 0 01.06.084c.01.024.019.05.021.077a.68.68 0 01-.005.126c-.01.066-.023.131-.031.194a11.69 11.69 0 01-.578 1.685c-.143.32-.298.639-.46.952-.1.194-.206.394-.308.594l-.137.263a.256.256 0 00.082-.01c.065-.024.089-.08.118-.124.32-.463.633-.93.936-1.404.502-.791.967-1.604 1.364-2.458.17-.368.328-.741.468-1.12.139-.378.26-.764.355-1.156.063-.26.115-.526.155-.794.055-.381.084-.765.079-1.151a5.482 5.482 0 00-.134-1.157 6.646 6.646 0 00-.931-2.205 9.492 9.492 0 00-.733-.97c-.263-.308-.544-.6-.839-.88-.024-.024-.12-.082-.126-.148 0-.005-.003-.008-.003-.013 0-.005.003-.01.005-.016a.049.049 0 01.019-.023.521.521 0 01.11-.077c.04-.023.092-.05.158-.084l.055-.026c.034-.016.06-.029.08-.037a.398.398 0 00.131-.09l.01-.012a.584.584 0 00.084-.108 14.1 14.1 0 00.568-.579c.365-.396.71-.814 1.036-1.245a28.2 28.2 0 00.48-.655 27.5 27.5 0 001.777-2.784c.106-.191.206-.383.303-.575.975-1.935 1.587-4.006 1.511-6.335a4.75 4.75 0 00-.031-.394 12.38 12.38 0 00-.063-.452.254.254 0 01.002-.1.259.259 0 01.037-.082.257.257 0 01.308-.081c.026.013.05.029.073.052a.29.29 0 01.053.087c.315.807.518 1.598.62 2.368.087.644.105 1.275.063 1.896-.034.496-.105.988-.21 1.472-.053.241-.113.483-.181.722-.518 1.798-1.48 3.52-2.66 5.205a.238.238 0 00.028.315.238.238 0 00.316.03c.158-.114.313-.227.468-.342.46-.35.899-.718 1.322-1.104a19.692 19.692 0 001.593-1.651c.27-.316.525-.642.765-.975a12.277 12.277 0 001.25-2.137c.05-.105.098-.21.145-.319a.231.231 0 01.208-.147.281.281 0 01.16.045.235.235 0 01.103.234 10.256 10.256 0 01-1.262 3.732c-.21.369-.444.72-.699 1.063a12.378 12.378 0 01-1.759 1.887 17.78 17.78 0 01-2.173 1.619.238.238 0 00-.116.22c.005.082.05.161.12.203.048.03.106.04.174.027.232-.048.46-.1.687-.156l.191-.047c.57-.147 1.128-.32 1.664-.53a11.797 11.797 0 00.81-.353 9.773 9.773 0 002.284-1.504.249.249 0 01.17-.063.28.28 0 01.127.045c.008.005.019.01.026.016a.238.238 0 01.047.318 7.539 7.539 0 01-.265.378c-.649.855-1.5 1.527-2.442 2.116a11.384 11.384 0 01-2.184 1.06c-.252.092-.507.173-.768.25-.291.083-.2.522.1.478a9.605 9.605 0 002.224-.623 11.06 11.06 0 002.897-1.733 8.77 8.77 0 00.683-.636l.03-.031c.201-.213.388-.431.559-.655 1.057-1.435 1.496-2.965 1.314-4.686zm-11.473-1.139a2.67 2.67 0 01-.24.495 6.573 6.573 0 01-1.143 1.459c-.076.073-.155.144-.234.215a6.56 6.56 0 01-.247.21c-.195.16-.234.326-.168.534.031.102.055.168.089.2.021.02.047.026.079.02a.212.212 0 00.055-.02c.042-.021.095-.053.16-.098.205-.136.41-.273.634-.386a2.99 2.99 0 01.229-.103c-.379.62-.805 1.212-1.336 1.728-.07.102-.139.197-.205.286-.002.003-.005.008-.008.01-.065.09-.126.171-.186.245-.358.447-.613.604-.92.497v.002a.9.9 0 01-.137-.063.61.61 0 01.047-.176c.027-.068.056-.134.087-.2v.019c.21-.434.539-.807.923-1.144.042-.036.076-.073.108-.11a.494.494 0 00.091-.518.397.397 0 00-.055-.115.15.15 0 00-.055-.045.117.117 0 00-.053-.008.16.16 0 00-.047.013c-.018.005-.034.016-.055.026a.774.774 0 00-.063.04c-.06.042-.121.081-.181.123-.06.042-.121.082-.184.121-.124.08-.25.155-.384.221-.008.003-.016.008-.024.01l-.024.011c-.452.223-.893.479-1.464.439-.268-.018-.42-.126-.439-.347a1.293 1.293 0 01.087-.633c.308-.744.862-1.354 1.464-1.94.155-.15.329-.284.486-.431.13-.119.121-.463-.023-.545-.208-.113-.268.085-.379.158-.134.09-.244.2-.365.303-.541.454-1.143.843-1.877 1.053-.754.219-1.356.011-1.322-.746.021-.47.218-.91.46-1.33a7.98 7.98 0 011.882-2.192c.095-.08.187-.158.116-.279a6.496 6.496 0 00-.26-.4c-.106-.155-.224-.15-.392-.044-.416.257-.765.573-1.133.873-.121.1-.242.239-.434.173a.32.32 0 01-.184-.152c-.01-.2-.016-.387-.02-.555-.035-1.251.054-1.546.154-1.761.2-.434.51-.694.636-.789.708-.541 1.725-.583 2.516-.21.19.09.352.197.494.315v.008c.042.034.09.069.129.105.129.148.26.292.378.445.003.002.006.008.008.01a.19.19 0 01.019.03l.058.088c.013.027.023.05.031.071.053.16-.045.263-.313.36a7.023 7.023 0 01-.307.103c-.308.095-.62.179-.907.315-.56.266-.657.124-.242.729.108.157.213.15.355.052a5.097 5.097 0 011.16-.57 4.61 4.61 0 01.34-.1c.017-.005.032-.01.05-.013.127-.032.253-.042.369-.032.35.03.628.234.683.563.042.236.026.473-.037.702a2.28 2.28 0 01-.076.226c-.05.12-.105.239-.16.36a6.519 6.519 0 01-.258.483 5.47 5.47 0 01-.546.773c-.053.06-.106.124-.16.181-.024.027-.048.053-.067.08a.511.511 0 00-.1.236.613.613 0 00.061.331c.034.079.068.129.116.145a.096.096 0 00.04.005c.018 0 .041-.008.067-.016a.48.48 0 00.095-.05c.313-.202.641-.389.97-.573l.12-.06a2.77 2.77 0 01.873-.27l.045-.009a1.76 1.76 0 01.158-.008.703.703 0 01.258.05.413.413 0 01.178.132c.069.084.106.2.106.339a.974.974 0 01-.027.215c-.002.037-.013.071-.023.105z" fill="url(#paint6_linear_571_24)"/><path d="M20.569 24.145a5.783 5.783 0 00-.121-.868 6.657 6.657 0 00-.93-2.205 9.463 9.463 0 00-.734-.97c-.263-.308-.544-.6-.839-.88-.023-.024-.12-.082-.126-.148l-.002-.013c0-.005.002-.01.005-.016a.178.178 0 01.016-.023c-.634-.324-1.225-.818-1.722-1.401-.021-.006-.04-.008-.06-.014v.003a.895.895 0 01-.137-.063.512.512 0 01.031-.129 6.9 6.9 0 01-.775-1.225 1.69 1.69 0 01-.584.06c-.268-.018-.42-.125-.439-.346a1.293 1.293 0 01.087-.634 3.65 3.65 0 01.273-.533 8.791 8.791 0 01-1.043-.847c-.718.182-1.28-.034-1.246-.765.003-.029.008-.058.01-.086a7.252 7.252 0 01-.628-.64c-.368-.412-.591-.877-.744-1.369.01.224.032.445.066.665-.384-.58-.741-1.18-1.054-1.81-1.514-3.063-1.322-5.983.812-8.712.069-.09.14-.176.208-.265.166-.213-.084-.5-.318-.366-3.196 1.846-5.552 4.259-5.767 8.12-.016.284-.423.32-.484.042a8.064 8.064 0 01-.158-1.44c-.023-.66-.015-1.323-.01-2.066.003-.25-.323-.342-.455-.132-1.727 2.737-2.305 5.983-.723 9.437.124.268-.244.483-.42.247a26.97 26.97 0 01-.347-.479c-.387-.536-.534-1.182-.776-1.882-.079-.228-.407-.213-.47.019-.592 2.147-.153 4.022 1.146 5.69 1.6 2.061 3.648 3.21 6.038 3.578.297.045.402-.376.12-.476-3.012-1.07-5.062-2.568-5.79-4.263-.105-.242.197-.458.392-.279C4.8 18.428 7 19.568 9.11 19.855c.265.037.384-.32.152-.455-1.782-1.04-3.267-2.279-4.405-3.916-1.094-1.572-1.711-3.273-1.811-4.903-.016-.278.376-.36.475-.1 1.091 2.902 3.56 5.539 5.75 6.99.228.152.496-.126.336-.347C7.18 13.783 5.673 10.29 6.832 6.312c.081-.28.497-.205.48.087-.123 2.253.595 4.369 1.854 6.398 1.254 2.016 2.791 3.809 4.392 5.552.405.439.642.701.72.928.003.008.008.013.014.02a12.637 12.637 0 00-1.577 1.504 8.83 8.83 0 00-.758.868c.09-.066.237-.177.424-.31 1.01-.731 2.208-1.58 3.677-2.185l.058-.024c.076-.031.15-.065.229-.094.152-.058.276-.1.376-.132a3.1 3.1 0 01.296-.081c.045-.01.085-.016.121-.024a8.163 8.163 0 01-.441.345c.079.01.158.031.236.068.166.076.31.258.368.428.016.05.027.105.032.163.053.014.103.024.152.042a2.066 2.066 0 01.639.376c.053.042.082.1.084.163 0 .021 0 .042-.005.066a.131.131 0 01-.074.1c-.036.018-.078.026-.118.034a.804.804 0 01-.297 0 .726.726 0 00-.165-.005c-.137.015-.192.102-.23.323-.02.118.022.158.085.174a.69.69 0 00.097.013h.01a.23.23 0 01.09.018c.032.013.068.018.103.024a.353.353 0 01.076.015c.355.116.728.195 1.004.476.09.09.129.176.123.26a.235.235 0 01-.013.064.408.408 0 01-.144.181.867.867 0 01-.147.092 1.57 1.57 0 01-.324.11l-.165.04c-.221.05-.447.058-.67.055-.137 0-.271-.005-.405-.008-.092-.003-.15.026-.184.069-.048.055-.06.136-.071.212a2.439 2.439 0 01-.008.053c-.01.06.005.095.037.113a.16.16 0 00.073.018c.042.003.087 0 .124.003.41.034.822.058 1.227.134a3.978 3.978 0 01.534.129c.079.023.155.05.231.081.153.06.297.137.429.245.026.02.05.045.07.068.148.166.148.368-.007.552-.035.04-.071.079-.11.116a.893.893 0 01-.127.097c-.176.113-.36.208-.552.287a4.435 4.435 0 01-.715.231l-.09.024-.323.07a4.785 4.785 0 01-.988.132c-.165 0-.258.084-.29.242a.788.788 0 00-.012.184c.002.087.029.131.066.155a.196.196 0 00.089.02c.05 0 .102-.007.15-.007.328.005.66.005.988 0a3.007 3.007 0 01.594.047c.195.035.387.084.576.15.281.097.476.245.575.426a.62.62 0 01.058.452.907.907 0 01-.058.168 1.47 1.47 0 01-.344.468 1.715 1.715 0 01-.15.126c-.73.555-1.558.902-2.431 1.15-.092.025-.163.062-.205.12-.042.055-.058.129-.045.226V29l.003.015c.01.08.026.155.029.234.002.069.015.116.042.148.026.031.06.042.107.042a.473.473 0 00.108-.024c.271-.092.542-.187.81-.29.173-.065.347-.136.52-.212.092-.04.184-.079.274-.121a.724.724 0 00.102-.063c.053-.037.105-.074.16-.09a.168.168 0 01.147.024l.024.013a.207.207 0 01.06.085c.011.023.02.05.022.076a.68.68 0 01-.005.126c-.01.066-.024.131-.032.194a11.69 11.69 0 01-.578 1.685c-.142.321-.297.639-.46.952-.145.281-.292.56-.444.857a.254.254 0 00.081-.01c.066-.024.09-.08.118-.124.321-.463.634-.93.936-1.404.502-.791.967-1.603 1.364-2.458.287-.615.534-1.24.72-1.887a8.841 8.841 0 00.258-1.183 7.058 7.058 0 00.079-1.149c-.016-.1-.021-.197-.026-.291z" fill="url(#paint7_linear_571_24)"/><defs><linearGradient id="paint0_linear_571_24" x1="39.581" y1="14.976" x2="34.551" y2="6.263" gradientUnits="userSpaceOnUse"><stop stop-color="#F7941D"/><stop offset=".141" stop-color="#F28D20"/><stop offset=".344" stop-color="#E77D24"/><stop offset=".586" stop-color="#D96429"/><stop offset=".855" stop-color="#C83D2D"/><stop offset="1" stop-color="#BE1E2D"/></linearGradient><linearGradient id="paint1_linear_571_24" x1="49.562" y1="15.185" x2="44.84" y2="7.007" gradientUnits="userSpaceOnUse"><stop stop-color="#F7941D"/><stop offset=".141" stop-color="#F28D20"/><stop offset=".344" stop-color="#E77D24"/><stop offset=".586" stop-color="#D96429"/><stop offset=".855" stop-color="#C83D2D"/><stop offset="1" stop-color="#BE1E2D"/></linearGradient><linearGradient id="paint2_linear_571_24" x1="40.115" y1="26.303" x2="35.308" y2="17.978" gradientUnits="userSpaceOnUse"><stop stop-color="#F7941D"/><stop offset=".141" stop-color="#F28D20"/><stop offset=".344" stop-color="#E77D24"/><stop offset=".586" stop-color="#D96429"/><stop offset=".855" stop-color="#C83D2D"/><stop offset="1" stop-color="#BE1E2D"/></linearGradient><linearGradient id="paint3_linear_571_24" x1="48.254" y1="25.141" x2="43.184" y2="16.36" gradientUnits="userSpaceOnUse"><stop stop-color="#F7941D"/><stop offset=".141" stop-color="#F28D20"/><stop offset=".344" stop-color="#E77D24"/><stop offset=".586" stop-color="#D96429"/><stop offset=".855" stop-color="#C83D2D"/><stop offset="1" stop-color="#BE1E2D"/></linearGradient><linearGradient id="paint4_linear_571_24" x1="55.016" y1="26.303" x2="50.21" y2="17.978" gradientUnits="userSpaceOnUse"><stop stop-color="#F7941D"/><stop offset=".141" stop-color="#F28D20"/><stop offset=".344" stop-color="#E77D24"/><stop offset=".586" stop-color="#D96429"/><stop offset=".855" stop-color="#C83D2D"/><stop offset="1" stop-color="#BE1E2D"/></linearGradient><linearGradient id="paint5_linear_571_24" x1="63.819" y1="25.163" x2="58.747" y2="16.378" gradientUnits="userSpaceOnUse"><stop stop-color="#F7941D"/><stop offset=".141" stop-color="#F28D20"/><stop offset=".344" stop-color="#E77D24"/><stop offset=".586" stop-color="#D96429"/><stop offset=".855" stop-color="#C83D2D"/><stop offset="1" stop-color="#BE1E2D"/></linearGradient><linearGradient id="paint6_linear_571_24" x1="27.1" y1="24.787" x2="5.534" y2="3.221" gradientUnits="userSpaceOnUse"><stop stop-color="#F7941D"/><stop offset=".141" stop-color="#F28D20"/><stop offset=".344" stop-color="#E77D24"/><stop offset=".586" stop-color="#D96429"/><stop offset=".855" stop-color="#C83D2D"/><stop offset="1" stop-color="#BE1E2D"/></linearGradient><linearGradient id="paint7_linear_571_24" x1="19.203" y1="31.431" x2="3.671" y2="4.529" gradientUnits="userSpaceOnUse"><stop stop-color="#662D91"/><stop offset=".224" stop-color="#5F2B89"/><stop offset=".532" stop-color="#4E297C"/><stop offset=".888" stop-color="#312469"/><stop offset="1" stop-color="#262262"/></linearGradient></defs></svg>