<svg width="91" height="40" fill="none" xmlns="http://www.w3.org/2000/svg"><path d="M38.402 10.108a4.593 4.593 0 012.434 2.4c.239.546.358 1.128.358 1.746 0 .595-.109 1.151-.322 1.672-.216.52-.51.982-.884 1.384a4.6 4.6 0 01-1.318.98 4.417 4.417 0 01-1.636.451v-1.42a3.157 3.157 0 001.074-.336c.333-.177.622-.4.866-.675a3.16 3.16 0 00.58-.938c.143-.354.213-.726.213-1.118 0-.426-.08-.823-.244-1.197a3.107 3.107 0 00-.674-.98 3.237 3.237 0 00-1.003-.667 3.07 3.07 0 00-1.225-.246h-1.42v6.149h-1.427V9.757h2.855a4.367 4.367 0 011.773.35z" fill="url(#paint0_linear_426_728)"/><path d="M46.688 9.63c.642 0 1.246.121 1.812.362a4.64 4.64 0 012.483 2.456c.245.562.367 1.16.367 1.793 0 .585-.104 1.136-.312 1.654-.208.518-.491.98-.848 1.385a4.7 4.7 0 01-1.274 1.01 4.432 4.432 0 01-1.59.51v-1.372a3.277 3.277 0 001.892-1.113c.237-.284.424-.602.562-.956a3.07 3.07 0 00.208-1.118c0-.449-.086-.87-.258-1.264a3.291 3.291 0 00-3.04-1.987 3.25 3.25 0 00-1.281.254 3.367 3.367 0 00-1.05.697 3.262 3.262 0 00-.708 1.036 3.125 3.125 0 00-.257 1.264c0 .385.068.754.2 1.108.135.354.317.669.549.951.231.282.507.518.824.71.317.193.663.329 1.037.41v1.372a4.53 4.53 0 01-1.573-.523 4.643 4.643 0 01-1.263-1.005 4.613 4.613 0 01-.835-1.377 4.461 4.461 0 01-.304-1.643c0-.634.122-1.231.367-1.793a4.641 4.641 0 012.483-2.456 4.506 4.506 0 011.81-.364z" fill="url(#paint1_linear_426_728)"/><path d="M59.207 15.492a3.4 3.4 0 01-.34 1.264c-.195.393-.45.734-.762 1.023a3.59 3.59 0 01-1.087.688c-.41.169-.848.251-1.31.251-.49 0-.947-.09-1.373-.272a3.56 3.56 0 01-1.116-.74 3.506 3.506 0 01-.751-1.1 3.348 3.348 0 01-.276-1.342v-5.51h1.391v5.51a2.03 2.03 0 00.622 1.474 2.116 2.116 0 001.5.608c.268 0 .525-.049.77-.143.244-.098.46-.226.647-.39s.34-.36.458-.585c.117-.225.192-.469.226-.733h1.401v-.003zm-1.39-1.48V9.765h1.39v4.249h-1.39zm8.418.108c.302.25.543.55.725.898.182.349.276.741.276 1.174 0 .354-.07.688-.213.998a2.702 2.702 0 01-.575.818 2.72 2.72 0 01-.842.554 2.605 2.605 0 01-1.022.205h-4.059V9.75h3.747c.367 0 .707.07 1.024.21.318.142.596.329.835.567.24.236.429.513.567.831.138.318.208.656.208 1.018 0 .336-.06.654-.177.951a2.618 2.618 0 01-.494.793zm-1.656 3.237a1.275 1.275 0 00.863-.342c.114-.107.203-.233.268-.377a1.154 1.154 0 00-.003-.926 1.285 1.285 0 00-.665-.663 1.187 1.187 0 00-.471-.095h-1.404v-1.408h1.097c.172 0 .33-.03.476-.09a1.14 1.14 0 00.733-1.085 1.24 1.24 0 00-.346-.86 1.253 1.253 0 00-.382-.27 1.09 1.09 0 00-.473-.102H61.95v6.222h2.629v-.005zm5.195-.024h-1.428V9.751h1.428v7.582zm1.245 0h3.611v1.408h-3.61v-1.408zm4.417-7.569h5.905v1.385h-4.503v1.984h-1.404V9.764h.002zm1.402 4.79v2.792h4.503v1.385h-5.905v-4.175h1.402v-.002zm3.918-1.385v1.385h-2.452v-1.385h2.452z" fill="#fff"/><path d="M38.402 24.151a2.65 2.65 0 012.441 1.6c.138.318.208.657.208 1.018 0 .362-.07.703-.208 1.02a2.673 2.673 0 01-1.411 1.406 2.628 2.628 0 01-1.033.205h-2.176a2.628 2.628 0 01-1.874-.772 2.784 2.784 0 01-.57-.836 2.53 2.53 0 01-.208-1.018H35c0 .167.03.323.096.472.065.146.153.277.268.387.114.11.244.198.39.262.145.064.304.095.475.095h2.166c.17 0 .328-.031.476-.095a1.29 1.29 0 00.39-.264 1.24 1.24 0 00.268-.39c.065-.149.096-.305.096-.472 0-.166-.034-.325-.099-.471a1.146 1.146 0 00-.268-.383 1.365 1.365 0 00-.39-.256 1.167 1.167 0 00-.475-.095l-2.171-.013c-.36 0-.697-.069-1.02-.205-.322-.136-.6-.32-.834-.554a2.68 2.68 0 01-.567-.818 2.51 2.51 0 01-.226-.997H35a1.226 1.226 0 00.377.828 1.23 1.23 0 00.853.341l2.171.005zm-2.353-3.838h2.124c.367 0 .71.07 1.032.205.323.136.606.323.853.559.247.236.44.513.577.83.14.319.211.657.211 1.019h-1.427a1.172 1.172 0 00-.367-.854 1.335 1.335 0 00-.398-.257 1.219 1.219 0 00-.48-.094h-2.125v-1.408z" fill="url(#paint2_linear_426_728)"/><path d="M44.491 23.526h1.672l-.952 1.551v4.295h-1.427v-4.295l-2.842-4.692h1.659l1.89 3.118v.023zm2.55-1.431H45.37l1.05-1.708h1.672l-1.05 1.708z" fill="url(#paint3_linear_426_728)"/><path d="M53.144 24.151a2.65 2.65 0 012.441 1.6c.138.318.209.657.209 1.018 0 .362-.07.703-.208 1.02a2.673 2.673 0 01-1.412 1.406 2.628 2.628 0 01-1.032.205h-2.177a2.628 2.628 0 01-1.874-.772 2.784 2.784 0 01-.57-.836 2.53 2.53 0 01-.208-1.018h1.428c0 .167.03.323.096.472.065.146.153.277.268.387.114.11.244.198.39.262.145.064.304.095.476.095h2.165c.17 0 .328-.031.476-.095a1.29 1.29 0 00.39-.264 1.24 1.24 0 00.268-.39c.065-.149.096-.305.096-.472 0-.166-.034-.325-.099-.471a1.146 1.146 0 00-.268-.383 1.365 1.365 0 00-.39-.256 1.167 1.167 0 00-.475-.095l-2.171-.013c-.36 0-.697-.069-1.02-.205-.322-.136-.6-.32-.834-.554a2.68 2.68 0 01-.567-.818 2.51 2.51 0 01-.226-.997h1.427a1.226 1.226 0 00.377.828 1.23 1.23 0 00.853.341l2.171.005zm-2.355-3.838h2.124c.366 0 .71.07 1.032.205.322.136.606.323.853.559.247.236.44.513.577.83.14.319.21.657.21 1.019h-1.427a1.172 1.172 0 00-.367-.854 1.335 1.335 0 00-.397-.257 1.219 1.219 0 00-.481-.094h-2.124v-1.408z" fill="url(#paint4_linear_426_728)"/><path d="M60.611 23.526h.013v5.861h-1.427v-7.592h-2.832v-1.408h4.246v3.139zm1.28-3.141h1.562v1.41H61.89v-1.41z" fill="url(#paint5_linear_426_728)"/><path d="M65.161 20.423h5.905v1.385h-4.503v1.984h-1.404v-3.369h.002zm1.404 4.787v2.793h4.503v1.384h-5.904v-4.174h1.401v-.003zm3.916-1.382v1.385h-2.452v-1.385h2.452zm1.77-.579h1.428v6.125H72.25V23.25zm8.859-2.864h.72v8.99h-1.428v-6.306l-3.367 3.298-3.33-3.272v-1.997l3.33 3.284 4.075-3.997zm6.65 3.766a2.65 2.65 0 012.441 1.6c.139.318.209.657.209 1.018 0 .362-.07.703-.208 1.02a2.673 2.673 0 01-1.412 1.406 2.628 2.628 0 01-1.032.205h-2.176a2.628 2.628 0 01-1.875-.772 2.784 2.784 0 01-.57-.836 2.53 2.53 0 01-.207-1.018h1.427c0 .167.031.323.096.472.065.146.154.277.268.387.114.11.244.198.39.262.146.064.304.095.476.095h2.166c.169 0 .327-.031.475-.095a1.29 1.29 0 00.39-.264c.115-.113.203-.241.268-.39.065-.149.096-.305.096-.472 0-.166-.033-.325-.098-.471a1.146 1.146 0 00-.268-.383 1.365 1.365 0 00-.39-.256 1.167 1.167 0 00-.476-.095l-2.171-.013c-.359 0-.697-.069-1.02-.205-.322-.136-.6-.32-.834-.554a2.68 2.68 0 01-.567-.818 2.51 2.51 0 01-.226-.997h1.428a1.224 1.224 0 00.377.828 1.23 1.23 0 00.853.341l2.17.005zm-2.355-3.838h2.124c.367 0 .71.07 1.032.205.323.136.606.323.853.559.247.236.44.513.577.83.14.319.21.657.21 1.019h-1.427a1.172 1.172 0 00-.367-.854 1.335 1.335 0 00-.397-.257 1.219 1.219 0 00-.481-.094h-2.124v-1.408z" fill="#fff"/><path d="M30.63 16.538a8.019 8.019 0 00-.223-1.194.236.236 0 00-.088-.134.236.236 0 00-.068-.033.241.241 0 00-.299.13c-.003.008-.01.016-.013.026-.08.262-.153.513-.231.752a6.37 6.37 0 01-.253.68 3.803 3.803 0 01-.218.42c-.02.036-.044.069-.065.105-.094.151-.187.3-.289.446a.207.207 0 01-.072.07.21.21 0 01-.084.032c-.143.026-.299-.087-.293-.238a.21.21 0 01.023-.095 9.482 9.482 0 00.523-1.38 9.227 9.227 0 00.34-1.881 9.3 9.3 0 00.008-1.262c-.005-.102-.016-.205-.023-.308a7.632 7.632 0 00-.078-.602 8.87 8.87 0 00-.767-2.451 7.423 7.423 0 00-.812-1.318c-.106-.136-.299-.11-.387.005a.24.24 0 00-.047.146c0 .187.003.374.003.559.002.37.002.73 0 1.092-.003.18-.005.36-.01.539a7.88 7.88 0 01-.128 1.238.227.227 0 01-.172.185.228.228 0 01-.083.007.234.234 0 01-.226-.225c-.101-2.046-.97-3.841-2.181-5.27a11.26 11.26 0 00-1.644-1.571 11.329 11.329 0 00-2.082-1.28c-.021-.01-.042-.013-.063-.018l-.023-.007a.221.221 0 00-.218.118.252.252 0 00-.037.123.24.24 0 00.063.159l.002.002.003.003c.143.172.275.343.405.52 1.061 1.436 1.698 3.028 1.586 4.877-.005.095-.007.198-.015.298-.008.1-.021.202-.044.297a1.287 1.287 0 01-.047.141.7.7 0 01-.317.344c-.117.064-.297.102-.515.123-.146.013-.31.015-.481.01a7.384 7.384 0 01-1.628-.233 4.156 4.156 0 01-.403-.129 3.17 3.17 0 01-.117-.046 1.33 1.33 0 01-.408-.24c-.491-.485-.614-1.055-.377-1.631.034-.083.075-.167.125-.25.166-.286.385-.486.642-.586.13-.052.27-.077.419-.077a1.463 1.463 0 01.475.082c.133.043.253.202.385.24a.17.17 0 00.08.006c.055-.01.113-.046.172-.126.177-.23.14-.546.032-.813a1.365 1.365 0 00-.497-.615 2.083 2.083 0 00-.738-.305c-.336-.077-.684-.08-.988-.287a2.276 2.276 0 00-.27-.162c-.04-.02-.081-.036-.123-.056-.052-.023-.101-.049-.153-.07-.055-.02-.112-.035-.17-.053-.038-.01-.075-.026-.114-.036-.067-.018-.135-.028-.203-.041-.028-.005-.054-.013-.083-.016a3.362 3.362 0 00-.546-.03h-.034c-.093.002-.187.01-.28.02h-.013a4.94 4.94 0 00-.377.054c-1.893.354-3.027 1.695-4.106 3.097a.39.39 0 00-.06.134.242.242 0 00.125.274c.068.036.102.077.115.118.049.16-.164.408-.203.454-.122.138-.268.574-.56 1.449-.446 1.348-.41 2.805-.394 2.805.002 0 .007-.049.02-.131-.018.438 0 .874.068 1.308a16.478 16.478 0 01-1.043-1.767c-1.497-2.987-1.307-5.836.804-8.497.067-.088.138-.172.205-.26.164-.207-.083-.487-.314-.356-3.162 1.8-5.492 4.154-5.705 7.92-.015.278-.418.314-.478.042-.104-.464-.138-.936-.156-1.405-.024-.644-.016-1.29-.01-2.016.002-.243-.32-.333-.45-.128-1.709 2.67-2.28 5.836-.715 9.205.122.262-.242.472-.416.241a19.73 19.73 0 01-.344-.466c-.382-.524-.527-1.154-.767-1.836-.078-.223-.403-.208-.465.018-.585 2.094-.15 3.923 1.134 5.55 1.583 2.011 3.608 3.132 5.972 3.49.294.044.398-.366.12-.463-2.975-1.041-5.003-2.503-5.723-4.157-.104-.236.195-.446.387-.272 1.909 1.723 4.085 2.836 6.173 3.116.262.036.38-.313.15-.444-1.762-1.015-3.231-2.223-4.357-3.82-1.082-1.534-1.693-3.193-1.792-4.783-.015-.271.372-.35.471-.097 1.079 2.83 3.52 5.403 5.686 6.818.226.149.492-.123.333-.338-2.4-3.257-3.892-6.667-2.746-10.547.081-.274.492-.2.476.085-.122 2.197.588 4.262 1.833 6.241 1.24 1.967 2.761 3.715 4.345 5.415.4.429.634.685.712.906.003.007.008.012.013.02-.946.751-1.56 1.467-1.56 1.467a8.894 8.894 0 00-.749.846c.089-.064.234-.172.419-.303.998-.713 2.184-1.54 3.637-2.13l.058-.023c.075-.031.148-.065.226-.093.15-.056.273-.097.372-.128.124-.038.218-.064.293-.08.045-.01.084-.015.12-.023a10.73 10.73 0 01-.523.405s-.002 0-.002.003c-.18.128-.362.254-.544.377v.003c-.21.14-.423.28-.637.415-1.25.797-2.454 1.644-3.406 2.797-.683.831-1.263 1.703-1.5 2.775-.156.702-.101 1.384.104 2.051.317 1.03.957 1.872 1.69 2.649.505.533.928.88 1.48 1.323.494.395.995.736 2.004 1.415.12.082.427.287.853.516.364.194.879.438.905.395.031-.054-.82-.444-1.68-1.298a21.09 21.09 0 01-.756-.767c-.073-.087-.268-.328-.59-.58-.055-.04-.058-.027-.105-.079a12.956 12.956 0 01-.826-.982c-.182-.246-.084-.497.21-.584a1.78 1.78 0 01.403-.062c.538-.03 1.064-.143 1.584-.274.09-.023.169-.082.153-.17-.034-.169-.052-.338-.073-.507-.008-.072-.078-.085-.143-.07a8.734 8.734 0 01-1.544.224c-.726.049-1.438.013-2.117-.272-.486-.203-.624-.672-.325-1.105.245-.354.596-.593.965-.8.715-.4 1.48-.674 2.28-.867.294-.072.6-.087.887-.19.252-.092.135-.305.153-.464.016-.143-.14-.097-.229-.1-.527-.018-1.055.018-1.586-.072-.434-.074-.865-.128-1.268-.31-.232-.102-.479-.21-.51-.492-.031-.282.205-.423.408-.546.52-.323 1.11-.47 1.706-.582.46-.087.923-.164 1.396-.162.135 0 .273-.018.408-.036.203-.025.172-.202.206-.33.023-.088-.024-.142-.115-.162a8.569 8.569 0 01-.463-.1c-.35-.09-.707-.18-.985-.428-.247-.22-.216-.423.075-.577a2.01 2.01 0 01.848-.228c.05-.003.096-.003.146-.003.262-.008.525-.005.787-.002.11 0 .167-.036.2-.09a.323.323 0 00.04-.113c.015-.072.023-.149.06-.205.041-.067.025-.108-.008-.139-.034-.03-.089-.048-.125-.071-.037-.02-.07-.041-.107-.062a1.006 1.006 0 01-.203-.138.592.592 0 01-.083-.095.253.253 0 01-.05-.151c.006-.075.068-.129.175-.142a1.553 1.553 0 01.556.028c.292.067.56.213.804.419a.21.21 0 01.083.159c0 .02 0 .04-.005.064-.016.077-.068.1-.128.118a.806.806 0 01-.356.013.738.738 0 00-.164-.006c-.135.016-.19.1-.226.316-.005.028-.005.051-.005.072a.12.12 0 00.016.048c.015.026.041.039.072.046.06.016.14.008.195.031a.372.372 0 00.097.023c.028.005.054.008.08.016.351.112.72.19.993.464.089.087.128.172.123.253a.26.26 0 01-.013.062.4.4 0 01-.143.177.857.857 0 01-.146.09c-.101.049-.21.082-.32.107l-.164.039c-.262.059-.53.059-.795.054a8.155 8.155 0 00-.27-.005c-.092-.003-.149.025-.183.066a.052.052 0 00-.01.016.375.375 0 00-.05.136 3.03 3.03 0 00-.007.056l-.008.051c-.003.018-.003.036-.003.049v.003c.008.056.055.071.11.076.041.003.085 0 .122.003.504.041 1.014.064 1.508.192.078.02.156.041.234.064a2.7 2.7 0 01.229.08c.15.059.293.133.423.238.026.02.05.044.07.067.146.162.146.359-.007.539-.034.038-.07.076-.11.112a.885.885 0 01-.124.095 3.43 3.43 0 01-.546.28 4.437 4.437 0 01-.707.226l-.089.022-.32.07a4.79 4.79 0 01-.977.128.279.279 0 00-.193.061.241.241 0 00-.041.047.355.355 0 00-.052.13.756.756 0 00-.013.18c.002.069.02.11.047.136.06.056.166.025.252.028.325.005.652.005.977 0a3.606 3.606 0 01.588.046c.192.033.382.082.57.146.415.141.644.395.644.7a.657.657 0 01-.018.157.88.88 0 01-.057.164c-.08.174-.198.325-.34.456a1.691 1.691 0 01-.149.123c-.27.203-.556.377-.85.528a7.502 7.502 0 01-.915.393c-.211.074-.424.14-.64.2a.463.463 0 00-.12.048.278.278 0 00-.083.07c-.041.053-.057.125-.044.22v.003l.003.015c.01.077.026.151.028.228.003.09.026.144.07.167a.122.122 0 00.078.015.476.476 0 00.107-.023c.268-.09.536-.182.8-.282.172-.064.344-.133.516-.207.09-.039.182-.077.27-.118a.478.478 0 00.05-.029c.067-.04.137-.1.21-.12a.168.168 0 01.146.023l.023.013a.204.204 0 01.06.082.24.24 0 01.02.074c.003.039 0 .08-.005.123-.01.064-.023.128-.03.19a11.272 11.272 0 01-.572 1.644c-.141.312-.295.623-.456.928-.099.19-.203.384-.304.58l-.135.256a.256.256 0 00.08-.01c.065-.024.089-.078.117-.121.318-.451.627-.908.926-1.37a20.78 20.78 0 001.35-2.397c.168-.359.324-.723.462-1.092.138-.37.258-.746.351-1.128.063-.254.115-.513.154-.775a7.05 7.05 0 00.078-1.123 5.282 5.282 0 00-.133-1.128 6.426 6.426 0 00-.92-2.151 9.251 9.251 0 00-.726-.946c-.26-.3-.538-.585-.83-.86-.023-.022-.119-.079-.124-.143 0-.005-.003-.008-.003-.013 0-.005.003-.01.006-.015a.047.047 0 01.018-.023.51.51 0 01.109-.075c.039-.023.091-.048.156-.082l.055-.025.078-.036a.394.394 0 00.13-.087l.01-.013a.577.577 0 00.083-.105c.193-.182.38-.372.562-.564.361-.387.702-.795 1.024-1.216.161-.21.32-.423.476-.638a26.877 26.877 0 001.758-2.716c.104-.187.202-.374.299-.561.964-1.887 1.57-3.908 1.495-6.18a4.606 4.606 0 00-.032-.384 12.01 12.01 0 00-.062-.441.242.242 0 01.003-.098.25.25 0 01.036-.08.255.255 0 01.304-.079c.026.013.05.029.073.052.02.023.039.05.052.084a9.83 9.83 0 01.614 2.31c.085.629.104 1.244.062 1.85a9.851 9.851 0 01-.208 1.435 11.22 11.22 0 01-.18.705c-.512 1.754-1.463 3.434-2.63 5.077a.23.23 0 00.028.308c.075.077.2.105.312.028.156-.11.31-.22.463-.333.455-.341.889-.7 1.308-1.077a19.335 19.335 0 001.575-1.61c.268-.308.52-.626.757-.952a12.024 12.024 0 001.237-2.084c.05-.103.097-.205.143-.31a.229.229 0 01.206-.144.281.281 0 01.159.044c.07.046.114.125.1.228a9.902 9.902 0 01-1.939 4.677 12.147 12.147 0 01-1.74 1.84 17.496 17.496 0 01-2.15 1.58.231.231 0 00-.114.215.25.25 0 00.12.198.237.237 0 00.171.025c.23-.046.455-.097.679-.15l.19-.047a14.414 14.414 0 001.646-.518c.153-.059.304-.12.452-.184.117-.052.234-.103.348-.16a9.672 9.672 0 002.26-1.467.251.251 0 01.169-.06c.044.002.086.02.125.043l.026.015a.231.231 0 01.047.31 7.35 7.35 0 01-.263.37c-.642.833-1.485 1.49-2.416 2.064a11.308 11.308 0 01-2.16 1.033c-.25.09-.502.17-.76.244-.288.082-.197.51.1.466a9.61 9.61 0 002.199-.607 10.975 10.975 0 002.865-1.69c.24-.197.466-.405.676-.62.01-.01.018-.021.029-.031.2-.208.385-.42.554-.639 1.045-1.4 1.479-2.892 1.3-4.572zm-11.348-1.11a2.592 2.592 0 01-.237.482 6.424 6.424 0 01-1.131 1.423c-.075.072-.153.141-.231.21a5.44 5.44 0 01-.245.206c-.192.156-.231.318-.166.52.031.1.054.164.088.195.021.02.047.026.078.02a.213.213 0 00.055-.02c.041-.02.093-.051.158-.095.203-.133.406-.266.627-.377.073-.036.148-.069.226-.1-.374.605-.795 1.182-1.32 1.685-.07.1-.138.192-.203.28-.003.002-.006.007-.008.01a5.698 5.698 0 01-.185.238c-.353.436-.606.59-.91.485v.002a.888.888 0 01-.135-.061.588.588 0 01.047-.172 2.62 2.62 0 01.086-.195v.018c.208-.423.533-.787.912-1.115a.986.986 0 00.107-.108.476.476 0 00.09-.505.384.384 0 00-.054-.113.146.146 0 00-.054-.044.117.117 0 00-.052-.007.132.132 0 00-.047.013c-.018.005-.034.015-.055.025a.736.736 0 00-.062.039l-.18.12c-.06.041-.12.08-.182.118a3.907 3.907 0 01-.38.216l-.023.01c-.007.002-.015.008-.023.01-.447.218-.884.467-1.448.428-.265-.018-.416-.123-.434-.338a1.244 1.244 0 01.085-.618c.305-.726.853-1.32 1.449-1.892.153-.147.325-.277.48-.42.128-.116.12-.452-.023-.532-.205-.11-.265.082-.374.154-.133.087-.242.195-.362.295-.535.444-1.13.823-1.856 1.028-.746.213-1.342.01-1.308-.728.021-.459.216-.887.455-1.297a7.816 7.816 0 011.862-2.139c.093-.077.184-.154.114-.272a6.33 6.33 0 00-.257-.39c-.104-.15-.221-.146-.388-.043-.41.251-.756.559-1.12.851-.12.098-.24.234-.43.17a.315.315 0 01-.181-.15 25.37 25.37 0 01-.021-.54c-.034-1.22.055-1.508.153-1.718a2.07 2.07 0 01.63-.77c.699-.528 1.705-.569 2.488-.205.187.088.348.193.489.308v.008c.041.033.088.066.127.102.127.144.257.285.374.434.003.002.006.007.008.01.008.01.013.018.018.028l.058.087a.724.724 0 01.03.07c.053.156-.043.256-.309.35-.101.037-.202.07-.304.1-.304.093-.613.175-.897.309-.554.258-.65.12-.239.71.107.154.21.146.351.051a5.062 5.062 0 011.147-.556 4.668 4.668 0 01.387-.11c.125-.031.25-.042.364-.031.346.028.621.228.676.548.042.231.026.462-.036.685a2.116 2.116 0 01-.076.22c-.05.118-.104.234-.158.352a6.37 6.37 0 01-.255.472 5.362 5.362 0 01-.541.753c-.052.06-.104.121-.159.177a.838.838 0 00-.065.077.495.495 0 00-.098.231.59.59 0 00.06.323c.033.077.067.126.114.141a.096.096 0 00.039.005.258.258 0 00.067-.015.476.476 0 00.094-.049c.31-.197.634-.38.96-.559.038-.02.08-.038.119-.059a2.787 2.787 0 01.863-.264l.044-.008a1.68 1.68 0 01.156-.007.703.703 0 01.255.048.408.408 0 01.177.129.51.51 0 01.104.33.95.95 0 01-.026.21.483.483 0 01-.023.103z" fill="url(#paint6_linear_426_728)"/><path d="M20.345 26.97a5.57 5.57 0 00-.12-.847 6.426 6.426 0 00-.92-2.151 9.26 9.26 0 00-.725-.946c-.26-.3-.539-.585-.83-.86-.023-.022-.12-.079-.125-.143l-.002-.013a.03.03 0 01.005-.015.178.178 0 01.016-.023c-.627-.316-1.212-.798-1.703-1.367-.021-.005-.04-.007-.06-.013v.003a.896.896 0 01-.135-.061.492.492 0 01.03-.126 6.711 6.711 0 01-.766-1.195 1.7 1.7 0 01-.577.059c-.266-.018-.416-.123-.435-.338a1.244 1.244 0 01.086-.619c.076-.181.167-.353.27-.52a8.671 8.671 0 01-1.032-.826c-.71.177-1.266-.033-1.232-.746.003-.028.008-.056.01-.084a7.126 7.126 0 01-.621-.623c-.364-.403-.585-.857-.736-1.336.01.218.031.433.065.648a16.479 16.479 0 01-1.042-1.766c-1.498-2.987-1.308-5.836.803-8.498.068-.087.138-.172.205-.259.164-.207-.083-.487-.314-.356-3.162 1.8-5.491 4.154-5.705 7.92-.015.277-.418.313-.478.041-.104-.464-.138-.935-.156-1.405-.023-.643-.016-1.29-.01-2.015.002-.244-.32-.333-.45-.128-1.708 2.669-2.28 5.836-.715 9.205.122.261-.242.472-.416.24-.117-.156-.232-.31-.343-.466-.383-.523-.528-1.154-.767-1.836-.078-.223-.403-.207-.466.018-.585 2.095-.15 3.923 1.134 5.552 1.583 2.01 3.609 3.13 5.972 3.49.294.043.398-.367.12-.465-2.98-1.044-5.008-2.505-5.728-4.159-.104-.236.195-.446.387-.272 1.909 1.723 4.085 2.836 6.173 3.116.262.036.38-.313.15-.444-1.762-1.015-3.231-2.223-4.357-3.82-1.082-1.534-1.693-3.193-1.792-4.782-.015-.272.372-.352.471-.098 1.079 2.83 3.52 5.403 5.686 6.818.226.149.492-.123.333-.338-2.4-3.26-3.892-6.667-2.746-10.547.081-.274.492-.2.476.085-.122 2.197.588 4.262 1.833 6.241 1.24 1.967 2.761 3.716 4.345 5.415.4.429.634.685.712.906.003.007.008.012.013.02-.946.751-1.56 1.467-1.56 1.467a8.899 8.899 0 00-.749.846c.089-.064.234-.172.419-.303.998-.712 2.184-1.54 3.637-2.13l.058-.023c.075-.031.148-.064.226-.093.15-.056.273-.097.372-.128.124-.038.218-.064.293-.08.045-.01.084-.015.12-.023-.14.118-.289.229-.437.336.078.01.156.031.234.067a.753.753 0 01.364.418.75.75 0 01.031.159c.052.013.102.023.151.041a2.033 2.033 0 01.632.367.21.21 0 01.083.159c0 .02 0 .04-.005.064a.128.128 0 01-.073.097c-.036.018-.078.026-.117.034a.808.808 0 01-.294 0 .726.726 0 00-.163-.006c-.136.016-.19.1-.227.316-.02.115.021.154.084.169.028.008.062.01.096.013h.01a.228.228 0 01.089.018c.03.013.067.018.101.023a.359.359 0 01.075.015c.351.113.72.19.994.464.088.088.127.172.122.254a.26.26 0 01-.013.062.4.4 0 01-.143.177.857.857 0 01-.146.09c-.101.048-.21.081-.32.107l-.163.038a2.888 2.888 0 01-.663.054c-.136 0-.268-.005-.4-.007-.092-.003-.149.025-.183.066-.047.054-.06.134-.07.208a2.293 2.293 0 01-.008.051c-.01.06.005.093.037.11a.16.16 0 00.072.018c.042.003.086 0 .123.003.405.033.813.056 1.214.13.099.019.195.037.294.062.078.02.156.041.234.064.078.024.153.05.228.08.151.059.294.133.424.239a.49.49 0 01.07.066c.146.162.146.36-.007.539-.034.038-.07.076-.11.112a.885.885 0 01-.124.095c-.175.11-.357.203-.546.28a4.46 4.46 0 01-.707.226l-.089.022-.32.07a4.79 4.79 0 01-.977.128c-.164 0-.255.082-.286.236a.756.756 0 00-.013.18c.002.084.028.128.065.15a.195.195 0 00.088.021c.05 0 .101-.008.148-.008.325.005.653.005.978 0a3.606 3.606 0 01.588.046c.192.034.382.083.569.147.278.095.47.238.57.415.075.13.093.282.056.441a.88.88 0 01-.057.164c-.08.175-.197.326-.34.457a1.709 1.709 0 01-.149.123c-.722.54-1.541.88-2.405 1.12-.09.026-.16.062-.202.118-.042.054-.058.126-.045.22v.003c0 .005.003.01.003.016.01.077.026.15.029.228.002.067.015.113.041.143.026.031.06.041.107.041a.476.476 0 00.106-.023c.268-.09.536-.182.801-.282.172-.064.343-.133.515-.207.091-.039.182-.077.27-.118a.714.714 0 00.102-.062.57.57 0 01.158-.087.168.168 0 01.146.023l.023.013a.203.203 0 01.06.082c.01.023.018.049.021.074.003.039 0 .08-.005.123-.01.064-.024.129-.031.19a11.303 11.303 0 01-.572 1.644c-.14.312-.294.623-.455.928-.143.274-.289.546-.44.836a.256.256 0 00.08-.01c.066-.023.09-.077.118-.121.317-.451.626-.908.925-1.37a20.78 20.78 0 001.35-2.397c.283-.6.528-1.21.712-1.84.037-.126.07-.255.102-.38.062-.254.114-.513.153-.774a6.805 6.805 0 00.078-1.121c-.016-.098-.02-.192-.026-.285z" fill="#fff"/><defs><linearGradient id="paint0_linear_426_728" x1="39.151" y1="18.025" x2="34.278" y2="9.468" gradientUnits="userSpaceOnUse"><stop stop-color="#F7941D"/><stop offset=".141" stop-color="#F28D20"/><stop offset=".344" stop-color="#E77D24"/><stop offset=".586" stop-color="#D96429"/><stop offset=".855" stop-color="#C83D2D"/><stop offset="1" stop-color="#BE1E2D"/></linearGradient><linearGradient id="paint1_linear_426_728" x1="49.023" y1="18.23" x2="44.45" y2="10.197" gradientUnits="userSpaceOnUse"><stop stop-color="#F7941D"/><stop offset=".141" stop-color="#F28D20"/><stop offset=".344" stop-color="#E77D24"/><stop offset=".586" stop-color="#D96429"/><stop offset=".855" stop-color="#C83D2D"/><stop offset="1" stop-color="#BE1E2D"/></linearGradient><linearGradient id="paint2_linear_426_728" x1="39.678" y1="29.075" x2="35.023" y2="20.898" gradientUnits="userSpaceOnUse"><stop stop-color="#F7941D"/><stop offset=".141" stop-color="#F28D20"/><stop offset=".344" stop-color="#E77D24"/><stop offset=".586" stop-color="#D96429"/><stop offset=".855" stop-color="#C83D2D"/><stop offset="1" stop-color="#BE1E2D"/></linearGradient><linearGradient id="paint3_linear_426_728" x1="47.729" y1="27.941" x2="42.819" y2="19.317" gradientUnits="userSpaceOnUse"><stop stop-color="#F7941D"/><stop offset=".141" stop-color="#F28D20"/><stop offset=".344" stop-color="#E77D24"/><stop offset=".586" stop-color="#D96429"/><stop offset=".855" stop-color="#C83D2D"/><stop offset="1" stop-color="#BE1E2D"/></linearGradient><linearGradient id="paint4_linear_426_728" x1="54.418" y1="29.075" x2="49.762" y2="20.898" gradientUnits="userSpaceOnUse"><stop stop-color="#F7941D"/><stop offset=".141" stop-color="#F28D20"/><stop offset=".344" stop-color="#E77D24"/><stop offset=".586" stop-color="#D96429"/><stop offset=".855" stop-color="#C83D2D"/><stop offset="1" stop-color="#BE1E2D"/></linearGradient><linearGradient id="paint5_linear_426_728" x1="63.125" y1="27.962" x2="58.212" y2="19.334" gradientUnits="userSpaceOnUse"><stop stop-color="#F7941D"/><stop offset=".141" stop-color="#F28D20"/><stop offset=".344" stop-color="#E77D24"/><stop offset=".586" stop-color="#D96429"/><stop offset=".855" stop-color="#C83D2D"/><stop offset="1" stop-color="#BE1E2D"/></linearGradient><linearGradient id="paint6_linear_426_728" x1="26.805" y1="27.596" x2="5.77" y2="6.266" gradientUnits="userSpaceOnUse"><stop stop-color="#F7941D"/><stop offset=".141" stop-color="#F28D20"/><stop offset=".344" stop-color="#E77D24"/><stop offset=".586" stop-color="#D96429"/><stop offset=".855" stop-color="#C83D2D"/><stop offset="1" stop-color="#BE1E2D"/></linearGradient></defs></svg>