<svg width="19" height="20" fill="none" xmlns="http://www.w3.org/2000/svg"><path d="M6.903 19.125a5.97 5.97 0 01-4.246-1.802 5.751 5.751 0 01-.21-8.136L9.5 2.067a3.939 3.939 0 012.875-1.15 4.293 4.293 0 013.057 1.293 4.178 4.178 0 01.144 5.875l-7.092 7.12a2.436 2.436 0 01-1.734.72 2.605 2.605 0 01-1.87-.787 2.568 2.568 0 01-.076-3.613l6.546-6.574a.958.958 0 011.313 1.351l-6.546 6.575a.652.652 0 00.077.91.747.747 0 00.508.22.535.535 0 00.383-.153l7.082-7.12a2.262 2.262 0 00-.144-3.172 2.28 2.28 0 00-3.133-.144L3.807 10.5a3.834 3.834 0 00.211 5.434 4.045 4.045 0 002.875 1.236 3.517 3.517 0 002.502-1.016l7.082-7.12a.958.958 0 111.36 1.35l-7.082 7.121a5.414 5.414 0 01-3.852 1.62z" fill="#F92"/></svg>