<svg width="176" height="176" viewBox="0 0 176 176" fill="none" xmlns="http://www.w3.org/2000/svg">
<path d="M88 176C136.601 176 176 136.601 176 88C176 39.3989 136.601 0 88 0C39.3989 0 0 39.3989 0 88C0 136.601 39.3989 176 88 176Z" fill="#561DB1"/>
<path d="M106.517 173.924C108.204 173.597 109.882 173.221 111.547 172.795C114.371 172.006 117.154 171.076 119.885 170.008C122.62 168.95 125.3 167.756 127.915 166.43C130.531 165.099 133.079 163.637 135.549 162.052C138.016 160.466 140.403 158.757 142.699 156.933C145 155.106 147.208 153.165 149.314 151.118C151.417 149.075 153.417 146.929 155.305 144.686C157.196 142.442 158.973 140.105 160.629 137.683C162.286 135.265 163.82 132.767 165.227 130.196C166.635 127.621 167.912 124.978 169.055 122.276C170.2 119.573 171.208 116.815 172.077 114.011C172.82 111.556 173.457 109.071 173.983 106.56L121.697 54.2811C117.281 49.8459 112.032 46.3277 106.251 43.9289C100.471 41.5301 94.2731 40.2981 88.0146 40.3037C81.7505 40.2969 75.5469 41.5282 69.7602 43.927C63.9736 46.3257 58.7181 49.8445 54.296 54.2811C49.8627 58.7046 46.3455 63.9591 43.9456 69.7438C41.5458 75.5285 40.3105 81.7297 40.3105 87.9924C40.3105 94.2551 41.5458 100.456 43.9456 106.241C46.3455 112.026 49.8627 117.28 54.296 121.704L106.517 173.917V173.924Z" fill="#330B73"/>
<path d="M88.0073 40.3111C100.195 40.3111 112.383 44.9677 121.711 54.2884C126.145 58.7119 129.662 63.9665 132.062 69.7511C134.461 75.5358 135.697 81.737 135.697 87.9997C135.697 94.2624 134.461 100.464 132.062 106.248C129.662 112.033 126.145 117.288 121.711 121.711C117.288 126.144 112.033 129.662 106.249 132.061C100.464 134.461 94.2627 135.696 88 135.696C81.7373 135.696 75.536 134.461 69.7514 132.061C63.9667 129.662 58.7122 126.144 54.2886 121.711C49.8554 117.288 46.3381 112.033 43.9383 106.248C41.5385 100.464 40.3032 94.2624 40.3032 87.9997C40.3032 81.737 41.5385 75.5358 43.9383 69.7511C46.3381 63.9665 49.8554 58.7119 54.2886 54.2884C58.7108 49.8518 63.9663 46.333 69.7529 43.9343C75.5395 41.5356 81.7432 40.3042 88.0073 40.3111ZM109.714 73.3257C109.02 73.3922 108.359 73.6541 107.807 74.0811L81.0113 94.1744L68.596 81.7664C65.9046 78.9651 60.6026 84.2597 63.4113 86.9511L78.078 101.618C78.7138 102.219 79.538 102.582 80.4108 102.645C81.2836 102.707 82.1513 102.466 82.8666 101.962L112.2 79.9624C114.664 78.1657 113.146 73.3771 110.095 73.3331C109.971 73.3267 109.846 73.3267 109.721 73.3331L109.714 73.3257Z" fill="white"/>
</svg>
