<svg width="92" height="35" viewBox="0 0 92 35" fill="none" xmlns="http://www.w3.org/2000/svg">
<path d="M38.8241 6.85905C39.384 7.10088 39.8729 7.43208 40.2909 7.85265C40.7114 8.27322 41.04 8.76214 41.2845 9.3194C41.5263 9.87928 41.6472 10.476 41.6472 11.1095C41.6472 11.7193 41.5368 12.2897 41.3213 12.8233C41.1031 13.3569 40.8061 13.83 40.4276 14.2427C40.049 14.6528 39.6048 14.9892 39.0949 15.2468C38.5849 15.5071 38.0329 15.6595 37.4415 15.7095V14.2532C37.8279 14.2033 38.1906 14.0876 38.5271 13.9089C38.8636 13.7275 39.1553 13.4988 39.4024 13.2176C39.6495 12.9389 39.844 12.6183 39.9886 12.2555C40.1332 11.8928 40.2041 11.5116 40.2041 11.1095C40.2041 10.6731 40.1226 10.2657 39.957 9.88191C39.7914 9.50077 39.5654 9.16431 39.2762 8.8778C38.9871 8.59128 38.6506 8.3626 38.2616 8.19437C37.8752 8.02614 37.4625 7.94202 37.0236 7.94202H35.5884V14.2453H34.1453V6.49894H37.0314C37.6702 6.49368 38.2669 6.61722 38.8241 6.85905Z" fill="url(#paint0_linear_571_24)"/>
<path d="M47.2014 6.37012C47.8506 6.37012 48.4605 6.49366 49.0335 6.74075C49.6039 6.98783 50.1033 7.32429 50.5318 7.75275C50.9602 8.18121 51.2967 8.68326 51.5438 9.25892C51.7909 9.83458 51.9144 10.447 51.9144 11.0963C51.9144 11.6956 51.8093 12.2607 51.599 12.7917C51.3887 13.3227 51.1022 13.7958 50.7421 14.2111C50.3793 14.6265 49.9509 14.9708 49.4541 15.2468C48.9573 15.5228 48.421 15.6963 47.8454 15.7699V14.3636C48.2239 14.29 48.5761 14.1533 48.9073 13.9562C49.2359 13.759 49.5198 13.5146 49.759 13.2228C49.9982 12.931 50.1874 12.6051 50.3267 12.2423C50.4661 11.8796 50.537 11.4985 50.537 11.0963C50.537 10.6363 50.4503 10.2052 50.2768 9.8004C50.1033 9.39823 49.8667 9.04338 49.5618 8.73846C49.2569 8.43355 48.9047 8.19435 48.4999 8.02349C48.0977 7.85001 47.664 7.76326 47.204 7.76326C46.744 7.76326 46.3103 7.85001 45.9081 8.02349C45.5059 8.19698 45.1511 8.43618 44.8462 8.73846C44.5413 9.04338 44.3047 9.3956 44.1312 9.8004C43.9577 10.2026 43.871 10.6363 43.871 11.0963C43.871 11.4906 43.9393 11.8691 44.0734 12.2318C44.2101 12.5946 44.3941 12.9179 44.628 13.207C44.8619 13.4962 45.1406 13.738 45.4613 13.9351C45.7819 14.1323 46.1315 14.2716 46.5101 14.3557V15.762C45.9423 15.6805 45.4113 15.5018 44.9198 15.2258C44.4256 14.9498 43.9998 14.6081 43.6423 14.1954C43.2848 13.7853 43.0035 13.3122 42.7985 12.7838C42.5935 12.2529 42.491 11.693 42.491 11.0989C42.491 10.4497 42.6145 9.8372 42.8616 9.26155C43.1087 8.68589 43.4451 8.18383 43.8736 7.75538C44.3021 7.32692 44.8015 6.99046 45.3719 6.74337C45.9397 6.49366 46.5521 6.37012 47.2014 6.37012Z" fill="url(#paint1_linear_571_24)"/>
<path d="M59.858 12.3791C59.8238 12.8391 59.7108 13.2702 59.5137 13.675C59.3165 14.0771 59.0589 14.4267 58.7435 14.7238C58.4281 15.0208 58.0601 15.2547 57.6447 15.4282C57.2294 15.6017 56.7878 15.6858 56.3199 15.6858C55.8258 15.6858 55.3631 15.5938 54.9321 15.4072C54.501 15.2206 54.1251 14.9682 53.8044 14.6475C53.4837 14.3269 53.2314 13.951 53.0447 13.5199C52.8607 13.0888 52.7661 12.6288 52.7661 12.1451V6.49634H54.1724V12.1451C54.1724 12.4422 54.2276 12.7182 54.338 12.9784C54.4484 13.2386 54.6035 13.4647 54.8006 13.6566C54.9978 13.8511 55.2265 14.0009 55.4841 14.1139C55.7443 14.2243 56.0203 14.2795 56.3173 14.2795C56.5881 14.2795 56.8483 14.2296 57.0954 14.1323C57.3425 14.0325 57.5606 13.901 57.7499 13.7328C57.9391 13.5646 58.0942 13.3648 58.2125 13.1335C58.3308 12.9022 58.407 12.6525 58.4412 12.3817H59.858V12.3791ZM58.4517 10.8624V6.50685H59.858V10.8624H58.4517Z" fill="#282970"/>
<path d="M66.963 10.973C67.2679 11.228 67.5124 11.5355 67.6964 11.893C67.8804 12.2505 67.975 12.6526 67.975 13.0969C67.975 13.4596 67.904 13.8013 67.7595 14.1194C67.6149 14.4401 67.4204 14.7187 67.1786 14.9579C66.9367 15.1971 66.6502 15.3864 66.3269 15.5257C66.001 15.665 65.6566 15.736 65.2939 15.736H61.1907V12.1453V11.8982V6.4939H64.9784C65.3491 6.4939 65.6934 6.56487 66.0141 6.70944C66.3348 6.85401 66.616 7.0459 66.8579 7.29035C67.0997 7.53218 67.2916 7.81607 67.4309 8.14201C67.5702 8.46795 67.6412 8.81493 67.6412 9.18556C67.6412 9.5299 67.5807 9.85584 67.4624 10.1608C67.3442 10.463 67.1759 10.7338 66.963 10.973ZM65.2886 14.2902C65.4516 14.2902 65.6093 14.2587 65.7618 14.1982C65.9142 14.1378 66.0456 14.051 66.1613 13.9406C66.277 13.8302 66.3663 13.7014 66.432 13.5542C66.4978 13.407 66.5293 13.252 66.5293 13.089C66.5293 12.9181 66.4951 12.7552 66.4294 12.6053C66.3637 12.4529 66.2743 12.3188 66.1587 12.2005C66.043 12.0822 65.909 11.9902 65.7565 11.9245C65.604 11.8588 65.4463 11.8273 65.2807 11.8273H63.8613V10.3842H64.9706C65.144 10.3842 65.3044 10.3526 65.4516 10.2922C65.5988 10.2317 65.7302 10.1476 65.8406 10.0398C65.951 9.93207 66.0378 9.8059 66.1008 9.6587C66.1613 9.5115 66.1928 9.35115 66.1928 9.1803C66.1928 9.00944 66.1613 8.84647 66.1008 8.69664C66.0404 8.54418 65.9536 8.41275 65.8432 8.2971C65.7328 8.18144 65.604 8.08944 65.4568 8.0211C65.3096 7.95012 65.1493 7.91595 64.9784 7.91595H62.6311V11.893V12.1401V14.2955H65.2886V14.2902Z" fill="#282970"/>
<path d="M70.5405 14.2666H69.0974V6.4939H70.5405V14.2666ZM71.7996 14.2666H75.4507V15.7097H71.7996V14.2666Z" fill="#282970"/>
<path d="M76.2653 6.50684H82.2348V7.92626H77.6821V9.96078H76.2627V6.50684H76.2653ZM77.6821 11.417V14.2795H82.2348V15.699H76.2653V11.4196H77.6821V11.417ZM81.6434 9.99758V11.417H79.1646V9.99758H81.6434Z" fill="#282970"/>
<path d="M38.8241 21.2558C39.1947 21.2558 39.5417 21.3267 39.8676 21.4661C40.1936 21.6054 40.4748 21.7973 40.7193 22.0417C40.9611 22.2862 41.153 22.5701 41.2923 22.896C41.4316 23.2219 41.5026 23.5689 41.5026 23.9395C41.5026 24.3102 41.4316 24.6598 41.2923 24.9857C41.153 25.3117 40.9611 25.5982 40.7166 25.8453C40.4748 26.0923 40.1883 26.2869 39.865 26.4262C39.539 26.5655 39.1921 26.6365 38.8214 26.6365H36.6213C36.2507 26.6365 35.9037 26.5655 35.5778 26.4262C35.2518 26.2869 34.968 26.0923 34.7261 25.8453C34.4843 25.5982 34.2924 25.3117 34.1505 24.9883C34.0112 24.6624 33.9402 24.3154 33.9402 23.9448H35.3833C35.3833 24.1157 35.4148 24.276 35.4805 24.4285C35.5462 24.5783 35.6356 24.7123 35.7513 24.8254C35.8669 24.9384 35.9984 25.0278 36.1456 25.0935C36.2928 25.1592 36.4531 25.1907 36.6266 25.1907H38.8162C38.987 25.1907 39.1474 25.1592 39.2972 25.0935C39.4444 25.0278 39.5758 24.9384 39.6915 24.8227C39.8072 24.7071 39.8965 24.5757 39.9622 24.4232C40.028 24.2707 40.0595 24.1104 40.0595 23.9395C40.0595 23.7687 40.0253 23.6057 39.9596 23.4559C39.8939 23.3034 39.8045 23.1746 39.6889 23.0642C39.5732 22.9538 39.4418 22.8671 39.2946 22.8014C39.1474 22.7357 38.987 22.7041 38.8136 22.7041L36.6187 22.691C36.256 22.691 35.9142 22.62 35.5883 22.4807C35.2624 22.3414 34.9811 22.1521 34.7445 21.9129C34.5053 21.6737 34.3134 21.3951 34.1715 21.0744C34.0269 20.7537 33.9507 20.412 33.9428 20.0519H35.3859C35.3938 20.2149 35.4306 20.3699 35.4963 20.5171C35.562 20.6643 35.6514 20.7905 35.767 20.9009C35.8827 21.0113 36.0141 21.0954 36.1613 21.1585C36.3085 21.219 36.4662 21.2505 36.6292 21.2505L38.8241 21.2558ZM36.4452 17.3208H38.5928C38.9634 17.3208 39.3104 17.3918 39.6363 17.5311C39.9622 17.6704 40.2488 17.8623 40.4985 18.1041C40.7482 18.3459 40.9427 18.6298 41.082 18.9558C41.224 19.2817 41.2949 19.6287 41.2949 19.9993H39.8518C39.8518 19.8285 39.8177 19.6681 39.752 19.5157C39.6862 19.3658 39.5969 19.2344 39.4812 19.124C39.3656 19.0136 39.2315 18.9269 39.079 18.8611C38.9266 18.7954 38.7636 18.7639 38.5928 18.7639H36.4452V17.3208Z" fill="url(#paint2_linear_571_24)"/>
<path d="M44.9801 20.6145H46.6703L45.7082 22.2048V26.6077H44.2651V22.2048L41.3921 17.3945H43.0691L44.9801 20.5909V20.6145ZM47.5587 19.1478H45.8685L46.9305 17.3972H48.6207L47.5587 19.1478Z" fill="url(#paint3_linear_571_24)"/>
<path d="M53.7281 21.2558C54.0987 21.2558 54.4457 21.3267 54.7717 21.4661C55.0976 21.6054 55.3789 21.7973 55.6233 22.0417C55.8652 22.2862 56.057 22.5701 56.1963 22.896C56.3357 23.2219 56.4066 23.5689 56.4066 23.9395C56.4066 24.3102 56.3357 24.6598 56.1963 24.9857C56.057 25.3117 55.8652 25.5982 55.6207 25.8453C55.3789 26.0923 55.0924 26.2869 54.769 26.4262C54.4431 26.5655 54.0961 26.6365 53.7255 26.6365H51.5254C51.1548 26.6365 50.8078 26.5655 50.4818 26.4262C50.1559 26.2869 49.872 26.0923 49.6302 25.8453C49.3883 25.5982 49.1965 25.3117 49.0545 24.9883C48.9152 24.6624 48.8442 24.3154 48.8442 23.9448H50.2873C50.2873 24.1157 50.3189 24.276 50.3846 24.4285C50.4503 24.5783 50.5397 24.7123 50.6553 24.8254C50.771 24.9384 50.9024 25.0278 51.0496 25.0935C51.1968 25.1592 51.3571 25.1907 51.5306 25.1907H53.7202C53.8911 25.1907 54.0514 25.1592 54.2013 25.0935C54.3485 25.0278 54.4799 24.9384 54.5955 24.8227C54.7112 24.7071 54.8006 24.5757 54.8663 24.4232C54.932 24.2707 54.9636 24.1104 54.9636 23.9395C54.9636 23.7687 54.9294 23.6057 54.8637 23.4559C54.798 23.3034 54.7086 23.1746 54.5929 23.0642C54.4773 22.9538 54.3458 22.8671 54.1986 22.8014C54.0514 22.7357 53.8911 22.7041 53.7176 22.7041L51.5227 22.691C51.16 22.691 50.8183 22.62 50.4923 22.4807C50.1664 22.3414 49.8852 22.1521 49.6486 21.9129C49.4094 21.6737 49.2175 21.3951 49.0755 21.0744C48.931 20.7537 48.8548 20.412 48.8469 20.0519H50.29C50.2978 20.2149 50.3346 20.3699 50.4004 20.5171C50.4661 20.6643 50.5554 20.7905 50.6711 20.9009C50.7868 21.0113 50.9182 21.0954 51.0654 21.1585C51.2126 21.219 51.3703 21.2505 51.5333 21.2505L53.7281 21.2558ZM51.3466 17.3208H53.4942C53.8648 17.3208 54.2118 17.3918 54.5377 17.5311C54.8637 17.6704 55.1502 17.8623 55.3999 18.1041C55.6496 18.3459 55.8441 18.6298 55.9834 18.9558C56.1254 19.2817 56.1963 19.6287 56.1963 19.9993H54.7533C54.7533 19.8285 54.7191 19.6681 54.6534 19.5157C54.5877 19.3658 54.4983 19.2344 54.3826 19.124C54.267 19.0136 54.1329 18.9269 53.9805 18.8611C53.828 18.7954 53.665 18.7639 53.4942 18.7639H51.3466V17.3208Z" fill="url(#paint4_linear_571_24)"/>
<path d="M61.2773 20.6145H61.2905V26.6234H59.8474V18.8402H56.9849V17.3972H61.2773V20.6145ZM62.5706 17.3945H64.1504V18.8402H62.5706V17.3945Z" fill="url(#paint5_linear_571_24)"/>
<path d="M65.8774 17.4338H71.8469V18.8533H67.2942V20.8878H65.8748V17.4338H65.8774ZM67.2968 22.3414V25.2039H71.8495V26.6233H65.88V22.344H67.2968V22.3414ZM71.2554 20.9246V22.344H68.7767V20.9246H71.2554Z" fill="#282970"/>
<path d="M73.0454 20.3306H74.4885V26.6103H73.0454V20.3306ZM82.0009 17.3945H82.7291V26.6103H81.286V20.1466L77.882 23.527L74.5148 20.1729V18.1253L77.882 21.4925L82.0009 17.3945Z" fill="#282970"/>
<path d="M88.725 21.2558C89.0956 21.2558 89.4426 21.3267 89.7685 21.4661C90.0944 21.6054 90.3757 21.7973 90.6202 22.0417C90.862 22.2862 91.0539 22.5701 91.1932 22.896C91.3325 23.2219 91.4035 23.5689 91.4035 23.9395C91.4035 24.3102 91.3325 24.6598 91.1932 24.9857C91.0539 25.3117 90.862 25.5982 90.6175 25.8453C90.3757 26.0923 90.0892 26.2869 89.7659 26.4262C89.4399 26.5655 89.093 26.6365 88.7223 26.6365H86.5222C86.1516 26.6365 85.8046 26.5655 85.4787 26.4262C85.1527 26.2869 84.8688 26.0923 84.627 25.8453C84.3852 25.5982 84.1933 25.3117 84.0514 24.9883C83.912 24.6624 83.8411 24.3154 83.8411 23.9448H85.2842C85.2842 24.1157 85.3157 24.276 85.3814 24.4285C85.4471 24.5783 85.5365 24.7123 85.6522 24.8254C85.7678 24.9384 85.8992 25.0278 86.0464 25.0935C86.1936 25.1592 86.354 25.1907 86.5275 25.1907H88.7171C88.8879 25.1907 89.0483 25.1592 89.1981 25.0935C89.3453 25.0278 89.4767 24.9384 89.5924 24.8227C89.708 24.7071 89.7974 24.5757 89.8631 24.4232C89.9288 24.2707 89.9604 24.1104 89.9604 23.9395C89.9604 23.7687 89.9262 23.6057 89.8605 23.4559C89.7948 23.3034 89.7054 23.1746 89.5897 23.0642C89.4741 22.9538 89.3427 22.8671 89.1955 22.8014C89.0483 22.7357 88.8879 22.7041 88.7144 22.7041L86.5196 22.691C86.1568 22.691 85.8151 22.62 85.4892 22.4807C85.1632 22.3414 84.882 22.1521 84.6454 21.9129C84.4062 21.6737 84.2143 21.3951 84.0724 21.0744C83.9278 20.7537 83.8516 20.412 83.8437 20.0519H85.2868C85.2947 20.2149 85.3315 20.3699 85.3972 20.5171C85.4629 20.6643 85.5523 20.7905 85.6679 20.9009C85.7836 21.0113 85.915 21.0954 86.0622 21.1585C86.2094 21.219 86.3671 21.2505 86.5301 21.2505L88.725 21.2558ZM86.3435 17.3208H88.491C88.8616 17.3208 89.2086 17.3918 89.5346 17.5311C89.8605 17.6704 90.147 17.8623 90.3967 18.1041C90.6464 18.3459 90.841 18.6298 90.9803 18.9558C91.1222 19.2817 91.1932 19.6287 91.1932 19.9993H89.7501C89.7501 19.8285 89.7159 19.6681 89.6502 19.5157C89.5845 19.3658 89.4951 19.2344 89.3795 19.124C89.2638 19.0136 89.1298 18.9269 88.9773 18.8611C88.8248 18.7954 88.6619 18.7639 88.491 18.7639H86.3435V17.3208V17.3208Z" fill="#282970"/>
<path d="M30.9672 13.4516C30.9383 13.1861 30.8963 12.918 30.8384 12.642C30.8095 12.5053 30.778 12.366 30.7412 12.2267C30.7254 12.1662 30.6939 12.1216 30.6518 12.09C30.6308 12.0742 30.6071 12.0637 30.5835 12.0558C30.4704 12.019 30.3338 12.0637 30.2812 12.1899C30.2786 12.1978 30.2707 12.2057 30.268 12.2162C30.1866 12.4843 30.113 12.7419 30.0341 12.9863C29.9579 13.2308 29.8764 13.4621 29.7791 13.6829C29.7134 13.8301 29.6424 13.9747 29.5583 14.114C29.5373 14.1508 29.5136 14.185 29.4926 14.2218C29.398 14.3769 29.3034 14.5293 29.2008 14.6791C29.1798 14.7107 29.1562 14.7343 29.1272 14.7501C29.101 14.7685 29.072 14.779 29.0431 14.7843C28.8986 14.8106 28.7408 14.6949 28.7461 14.5398C28.7461 14.5083 28.754 14.4741 28.7698 14.4426C28.9248 14.1087 29.0589 13.7723 29.1719 13.4358C29.2166 13.2991 29.2587 13.1625 29.2981 13.0284C29.419 12.6052 29.511 12.182 29.5715 11.7614C29.603 11.5406 29.6267 11.3198 29.6424 11.099C29.674 10.6601 29.6766 10.229 29.6503 9.80578C29.6451 9.70064 29.6346 9.59549 29.6267 9.49035C29.6083 9.28269 29.582 9.07503 29.5478 8.87263C29.419 8.06041 29.1903 7.29812 28.888 6.61206C28.8512 6.52532 28.8118 6.44121 28.7724 6.35972C28.5332 5.86029 28.2572 5.40555 27.9523 5.00864C27.8445 4.86932 27.65 4.8956 27.5606 5.01389C27.5317 5.05332 27.5133 5.10326 27.5133 5.16372C27.5133 5.35561 27.5159 5.54749 27.5159 5.73675C27.5186 6.11526 27.5186 6.48589 27.5159 6.85652C27.5133 7.04052 27.5107 7.22452 27.5054 7.40852C27.4923 7.82909 27.4581 8.24703 27.3766 8.67812C27.3556 8.78589 27.2846 8.84635 27.2031 8.86738C27.1768 8.87526 27.1479 8.87789 27.119 8.87526C27.006 8.86738 26.8982 8.78852 26.8903 8.64395C26.7878 6.54635 25.9099 4.70635 24.685 3.24224C24.3958 2.89789 24.0883 2.57458 23.7676 2.27229C23.6072 2.12246 23.4416 1.97526 23.276 1.83595C23.1919 1.76498 23.1078 1.69663 23.0237 1.63092C22.5532 1.26029 22.0616 0.934349 21.5675 0.65572C21.3519 0.534806 21.1338 0.421778 20.9182 0.319263C20.8972 0.308749 20.8762 0.30612 20.8551 0.300863C20.8472 0.298235 20.8394 0.295607 20.8315 0.292978C20.8026 0.290349 20.7763 0.292978 20.75 0.300863C20.7237 0.308749 20.7 0.319263 20.679 0.335034C20.6501 0.356063 20.6291 0.384978 20.6107 0.413892C20.5896 0.450692 20.5739 0.495377 20.5739 0.540062C20.5739 0.566348 20.5791 0.595262 20.5896 0.624177C20.6002 0.650462 20.6159 0.679377 20.637 0.703034L20.6396 0.705664L20.6422 0.708291C20.7868 0.884405 20.9208 1.06052 21.0523 1.24189C22.1247 2.71389 22.7687 4.34624 22.6557 6.24144C22.6504 6.33869 22.6478 6.44383 22.6399 6.54635C22.632 6.64886 22.6189 6.75401 22.5952 6.85126C22.5821 6.90121 22.5663 6.94852 22.5479 6.99583C22.5085 7.08783 22.4507 7.17458 22.3692 7.24818C22.3271 7.28498 22.2824 7.31915 22.2272 7.34806C22.109 7.41378 21.9276 7.4532 21.7068 7.47423C21.5596 7.48738 21.394 7.49001 21.2205 7.48475C20.9576 7.47686 20.6738 7.45058 20.3925 7.41115C20.1086 7.36909 19.83 7.31389 19.575 7.24555C19.4278 7.20612 19.2911 7.16143 19.1676 7.11412C19.1255 7.09835 19.0887 7.08258 19.0493 7.06681C18.8706 6.99058 18.726 6.90909 18.6366 6.81972C18.1398 6.32292 18.0163 5.73938 18.2555 5.14795C18.2896 5.06384 18.3317 4.97709 18.3816 4.89298C18.5499 4.59858 18.7707 4.39355 19.0309 4.29103C19.1623 4.23846 19.3043 4.21218 19.4541 4.21218C19.5303 4.21218 19.6066 4.22006 19.688 4.23321C19.7695 4.24635 19.851 4.26738 19.9351 4.29629C20.0692 4.34098 20.1901 4.50395 20.3242 4.54338C20.3504 4.55126 20.3767 4.55389 20.4056 4.54863C20.4608 4.53812 20.5187 4.50132 20.5791 4.41983C20.7579 4.18326 20.7211 3.85995 20.6107 3.58658C20.5555 3.44726 20.4819 3.32898 20.3978 3.22383C20.3136 3.11869 20.2164 3.02932 20.1086 2.95572C19.8957 2.80589 19.6407 2.70601 19.3621 2.64292C19.023 2.56406 18.6708 2.56144 18.3632 2.34852C18.2739 2.28544 18.1819 2.23023 18.0899 2.18292C18.0504 2.16189 18.0084 2.14612 17.9663 2.12509C17.9138 2.10144 17.8638 2.07515 17.8112 2.05412C17.756 2.03309 17.6982 2.01732 17.6404 1.99892C17.601 1.98841 17.5642 1.97263 17.5247 1.96212C17.4564 1.94372 17.388 1.93321 17.3197 1.92006C17.2908 1.91481 17.2645 1.90692 17.2356 1.90429C17.1594 1.89378 17.0805 1.88589 17.0016 1.88064C16.9832 1.87801 16.9622 1.87538 16.9438 1.87538C16.8571 1.87012 16.7703 1.87012 16.6836 1.87275C16.6731 1.87275 16.6599 1.87275 16.6494 1.87275C16.5548 1.87538 16.4602 1.88326 16.3655 1.89378C16.3603 1.89378 16.355 1.89378 16.3524 1.89378C16.2262 1.90692 16.1 1.92532 15.9712 1.94898C14.0576 2.31172 12.9116 3.68646 11.8207 5.12429C11.7918 5.16372 11.7734 5.21103 11.7603 5.26098C11.7314 5.37138 11.7839 5.48704 11.8864 5.54224C11.9548 5.57904 11.989 5.62109 12.0021 5.66315C12.052 5.82612 11.8365 6.08109 11.7971 6.12841C11.6735 6.27035 11.5263 6.7172 11.2319 7.61355C10.7798 8.99618 10.8166 10.4892 10.8324 10.4892C10.835 10.4892 10.8403 10.4393 10.8534 10.3551C10.835 10.8046 10.8534 11.2515 10.9218 11.6957C10.538 11.1148 10.1805 10.5155 9.8677 9.88463C8.35365 6.82235 8.54553 3.90201 10.6799 1.17355C10.7483 1.08418 10.8192 0.997434 10.8876 0.908063C11.0532 0.695148 10.8035 0.408634 10.5695 0.542691C7.37319 2.38795 5.01799 4.80098 4.80245 8.66235C4.78667 8.94623 4.37925 8.98303 4.31879 8.70441C4.21365 8.22863 4.17947 7.74498 4.16107 7.26395C4.13742 6.60418 4.1453 5.94178 4.15056 5.19789C4.15319 4.94818 3.82725 4.85618 3.69582 5.06646C1.96885 7.80281 1.39056 11.0491 2.97296 14.503C3.0965 14.7711 2.7285 14.9867 2.55239 14.7501C2.4341 14.5924 2.31845 14.4321 2.20542 14.2717C1.81902 13.7355 1.67182 13.0889 1.42999 12.3897C1.35113 12.161 1.02256 12.1767 0.959475 12.4081C0.368046 14.5556 0.807017 16.4298 2.10553 18.0989C3.70633 20.1597 5.75399 21.3084 8.14336 21.6764C8.44039 21.7211 8.54553 21.3005 8.26427 21.2006C5.25719 20.1334 3.2069 18.6351 2.47879 16.9397C2.37365 16.6979 2.67593 16.4824 2.87045 16.6611C4.79982 18.4275 6.99993 19.5683 9.11067 19.8548C9.37616 19.8916 9.49445 19.5341 9.26313 19.4001C7.48096 18.3592 5.99582 17.1211 4.85765 15.4835C3.76416 13.9116 3.14645 12.2109 3.04656 10.5812C3.03079 10.3026 3.42245 10.2211 3.52233 10.4813C4.61319 13.3833 7.08142 16.0197 9.27102 17.4707C9.4997 17.6231 9.76782 17.3445 9.60747 17.1237C7.1813 13.7854 5.6725 10.2894 6.8317 6.3124C6.91319 6.03115 7.3285 6.10738 7.31273 6.39915C7.18919 8.65183 7.90679 10.7678 9.16587 12.7971C10.4197 14.8132 11.9574 16.6059 13.5582 18.3486C13.963 18.7876 14.1996 19.0505 14.2784 19.2765C14.2811 19.2844 14.2863 19.2897 14.2916 19.2976C13.3348 20.0677 12.7144 20.8011 12.7144 20.8011C12.6251 20.8905 12.5383 20.9825 12.449 21.0797C12.2676 21.2795 12.102 21.4766 11.9574 21.6685C12.0468 21.6028 12.194 21.4924 12.3806 21.3583C13.39 20.6276 14.5886 19.7786 16.058 19.174C16.0764 19.1661 16.0974 19.1582 16.1158 19.1503C16.192 19.1188 16.2656 19.0846 16.3445 19.0557C16.497 18.9979 16.6205 18.9558 16.7204 18.9243C16.8466 18.8849 16.9412 18.8586 17.0174 18.8428C17.0621 18.8323 17.1015 18.827 17.1383 18.8191C16.9675 18.9637 16.7887 19.1004 16.61 19.2345C16.61 19.2345 16.6074 19.2345 16.6074 19.2371C16.426 19.3685 16.242 19.4973 16.058 19.6235V19.6261C15.8451 19.7707 15.6295 19.9126 15.414 20.0519C14.1496 20.8694 12.9326 21.7369 11.9706 22.9197C11.2792 23.7714 10.6931 24.6651 10.4539 25.7638C10.2962 26.4841 10.3514 27.1833 10.559 27.8667C10.8797 28.9234 11.5263 29.7855 12.2676 30.582C12.7775 31.1287 13.206 31.4836 13.7632 31.9383C14.2627 32.3431 14.77 32.6928 15.7899 33.3893C15.9108 33.4734 16.221 33.6837 16.652 33.9177C17.02 34.1174 17.5405 34.3671 17.5668 34.3225C17.5983 34.2673 16.7388 33.8677 15.8687 32.9924C15.414 32.535 15.1853 32.3037 15.1038 32.2065C15.0302 32.1171 14.8331 31.87 14.5071 31.6124C14.4519 31.5703 14.4493 31.5835 14.402 31.5309C14.1102 31.2076 13.8263 30.8764 13.5661 30.5242C13.3821 30.2718 13.482 30.0142 13.779 29.9249C13.9131 29.8854 14.0471 29.8697 14.1864 29.8618C14.7306 29.8302 15.2615 29.7146 15.7872 29.5805C15.8792 29.5569 15.9581 29.4964 15.9423 29.407C15.9082 29.2335 15.8898 29.0601 15.8687 28.8866C15.8608 28.813 15.7899 28.7998 15.7242 28.8156C15.2116 28.9444 14.6885 29.0101 14.1628 29.0443C13.4294 29.0942 12.7092 29.0574 12.0231 28.7657C11.5316 28.558 11.3923 28.077 11.6946 27.6327C11.9416 27.27 12.2965 27.0255 12.6698 26.8126C13.3926 26.4026 14.1654 26.1213 14.975 25.9242C15.272 25.8506 15.5822 25.8348 15.8714 25.7297C16.1263 25.635 16.008 25.4169 16.0264 25.2539C16.0422 25.1067 15.8845 25.154 15.7951 25.1514C15.2615 25.133 14.7279 25.1698 14.1917 25.0778C13.7527 25.0015 13.3164 24.9464 12.909 24.7597C12.675 24.6546 12.4253 24.5442 12.3938 24.255C12.3622 23.9659 12.6014 23.8213 12.8064 23.6951C13.3322 23.3639 13.9288 23.2141 14.5308 23.0985C14.996 23.0091 15.4639 22.9302 15.9423 22.9329C16.079 22.9329 16.2183 22.9145 16.355 22.8961C16.56 22.8698 16.5285 22.6884 16.5627 22.557C16.5863 22.4676 16.539 22.4124 16.447 22.3914C16.2893 22.3598 16.1316 22.3283 15.9791 22.2889C15.6243 22.1969 15.2642 22.1049 14.9829 21.8499C14.7332 21.6238 14.7647 21.4162 15.0591 21.2585C15.3272 21.1139 15.6164 21.0403 15.916 21.0245C15.966 21.0219 16.0133 21.0219 16.0632 21.0219C16.3287 21.014 16.5942 21.0166 16.8597 21.0193C16.9701 21.0193 17.0279 20.9825 17.0621 20.9273C17.0831 20.8931 17.0936 20.8537 17.1015 20.8116C17.1173 20.738 17.1252 20.6591 17.162 20.6013C17.204 20.533 17.1883 20.4909 17.1541 20.4594C17.1199 20.4278 17.0647 20.4094 17.0279 20.3858C16.9911 20.3648 16.957 20.3437 16.9202 20.3227C16.8466 20.2806 16.7756 20.2386 16.7151 20.1808C16.6836 20.1518 16.6573 20.1203 16.631 20.0835C16.5942 20.0283 16.5784 19.9731 16.5811 19.9284C16.5863 19.8522 16.6494 19.797 16.7572 19.7838C16.8229 19.7759 16.8886 19.7733 16.9517 19.7707C17.0779 19.7707 17.2014 19.7838 17.3197 19.8127C17.6141 19.8811 17.8848 20.0309 18.1319 20.2412C18.1845 20.2833 18.2134 20.3411 18.216 20.4042C18.216 20.4252 18.216 20.4462 18.2108 20.4699C18.195 20.5487 18.1424 20.5724 18.082 20.5908C18.061 20.5961 18.0399 20.6013 18.0189 20.604C17.919 20.6276 17.8218 20.6171 17.7219 20.604C17.6562 20.5961 17.601 20.5934 17.5563 20.5987C17.4196 20.6145 17.3644 20.7012 17.3276 20.922C17.3223 20.9509 17.3223 20.9746 17.3223 20.9956C17.325 21.0166 17.3302 21.0324 17.3381 21.0455C17.3539 21.0718 17.3802 21.085 17.4117 21.0929C17.4722 21.1086 17.5536 21.1007 17.6088 21.1244C17.6378 21.1375 17.6719 21.1428 17.7061 21.1481C17.735 21.1533 17.7613 21.1559 17.7876 21.1638C18.1424 21.2795 18.5157 21.3583 18.7917 21.6396C18.8811 21.729 18.9205 21.8157 18.9152 21.8998C18.9126 21.9209 18.91 21.9419 18.9021 21.9629C18.8811 22.026 18.8311 22.0865 18.7575 22.1443C18.7102 22.1811 18.6629 22.21 18.6103 22.2363C18.5078 22.2862 18.3974 22.3204 18.287 22.3467C18.2318 22.3598 18.1766 22.373 18.1214 22.3861C17.8559 22.4466 17.5852 22.4466 17.3171 22.4413C17.2251 22.4387 17.1357 22.4361 17.0437 22.4361C16.9517 22.4334 16.8939 22.4623 16.8597 22.5044C16.8544 22.5097 16.8518 22.5149 16.8492 22.5202C16.8387 22.5333 16.8308 22.5491 16.8255 22.5649C16.8124 22.5938 16.8045 22.6279 16.7992 22.6595C16.7966 22.6779 16.794 22.6963 16.7914 22.7173C16.7887 22.7357 16.7861 22.7541 16.7835 22.7699C16.7808 22.7883 16.7808 22.8067 16.7808 22.8198V22.8225C16.7887 22.8803 16.836 22.8961 16.8912 22.9013C16.9333 22.9039 16.978 22.9013 17.0148 22.904C17.5247 22.946 18.0399 22.9697 18.5394 23.1011C18.6182 23.1221 18.6971 23.1432 18.7759 23.1668C18.8548 23.1905 18.931 23.2168 19.0072 23.2483C19.1597 23.3088 19.3043 23.385 19.4357 23.4927C19.462 23.5138 19.4856 23.5374 19.5067 23.5611C19.6539 23.7267 19.6539 23.9291 19.4988 24.1131C19.4646 24.1525 19.4278 24.1919 19.3884 24.2287C19.349 24.2655 19.3069 24.2971 19.2622 24.326C19.0861 24.439 18.9021 24.5337 18.7102 24.6125C18.6366 24.6441 18.563 24.673 18.4894 24.6993C18.3291 24.7571 18.1635 24.8044 17.9952 24.8438C17.9637 24.8517 17.9348 24.8596 17.9059 24.8675C17.7981 24.8911 17.6903 24.9148 17.5826 24.9385C17.2592 25.0094 16.9307 25.0673 16.5942 25.0699C16.5101 25.0699 16.447 25.0909 16.3997 25.133C16.3839 25.1461 16.3708 25.1619 16.3576 25.1803C16.334 25.2171 16.3156 25.2592 16.3051 25.3144C16.2946 25.3669 16.2893 25.4274 16.2919 25.4983C16.2946 25.5693 16.313 25.6114 16.3392 25.6377C16.3997 25.6955 16.5075 25.6639 16.5942 25.6666C16.9228 25.6718 17.254 25.6718 17.5826 25.6666C17.6824 25.6639 17.7823 25.6692 17.8822 25.6771C17.9821 25.685 18.0794 25.6981 18.1766 25.7139C18.3711 25.7481 18.563 25.798 18.7523 25.8637C19.1728 26.0083 19.4042 26.2685 19.4042 26.5813C19.4042 26.6339 19.3989 26.6865 19.3858 26.7417C19.3726 26.7969 19.3542 26.8521 19.3279 26.9099C19.2464 27.0886 19.1282 27.2437 18.9836 27.3778C18.9363 27.4225 18.8863 27.4645 18.8338 27.504C18.5604 27.7116 18.2712 27.8904 17.9742 28.0454C17.7744 28.148 17.572 28.2426 17.3644 28.3267C17.2592 28.3687 17.1541 28.4082 17.049 28.4476C16.836 28.5238 16.6205 28.5922 16.4023 28.6526C16.355 28.6658 16.3156 28.6816 16.2814 28.7026C16.2472 28.7236 16.2183 28.7446 16.1973 28.7735C16.1552 28.8287 16.1395 28.9023 16.1526 28.9996C16.1526 28.9996 16.1526 28.9996 16.1526 29.0022C16.1526 29.0075 16.1552 29.0127 16.1552 29.018C16.1658 29.0969 16.1815 29.1731 16.1842 29.2519C16.1868 29.3439 16.2104 29.3991 16.2551 29.4228C16.2762 29.4359 16.3024 29.4412 16.334 29.4386C16.3655 29.436 16.4023 29.4281 16.4418 29.4149C16.7125 29.3229 16.9832 29.2283 17.2514 29.1258C17.4248 29.0601 17.5983 28.9891 17.7718 28.9129C17.8638 28.8734 17.9558 28.834 18.0452 28.7919C18.061 28.7841 18.0794 28.7735 18.0951 28.763C18.1635 28.721 18.2344 28.6605 18.308 28.6395C18.3264 28.6342 18.3448 28.6316 18.3632 28.6316C18.3922 28.6316 18.4237 28.6421 18.4552 28.6631C18.4631 28.6684 18.471 28.671 18.4789 28.6763C18.5078 28.6999 18.5262 28.7289 18.5394 28.7604C18.5499 28.7841 18.5578 28.8103 18.5604 28.8366C18.563 28.8761 18.5604 28.9181 18.5551 28.9628C18.5446 29.0285 18.5315 29.0942 18.5236 29.1573C18.5236 29.1652 18.521 29.1731 18.5183 29.1783C18.4368 29.5253 18.3317 29.8618 18.2108 30.1903C18.1293 30.4111 18.0399 30.6267 17.9453 30.8422C17.8034 31.1629 17.6483 31.481 17.4853 31.7938C17.3854 31.9883 17.2803 32.1881 17.1778 32.3878C17.1331 32.4746 17.0884 32.5613 17.0411 32.6507C17.0726 32.6507 17.0989 32.6481 17.1226 32.6402C17.1883 32.6165 17.2119 32.5613 17.2408 32.5166C17.5615 32.054 17.8743 31.5861 18.1766 31.113C18.6787 30.3218 19.1439 29.5095 19.5408 28.6553C19.7117 28.2873 19.8694 27.914 20.0087 27.5355C20.148 27.157 20.269 26.7706 20.3636 26.3789C20.4267 26.1187 20.4792 25.8532 20.5187 25.5851C20.5739 25.204 20.6028 24.8202 20.5975 24.4338C20.5949 24.3286 20.5923 24.2261 20.5844 24.121C20.566 23.8397 20.5266 23.5585 20.4635 23.2772C20.382 22.9066 20.269 22.5517 20.1296 22.2074C20.1086 22.1522 20.085 22.097 20.0613 22.0444C19.9141 21.7079 19.738 21.3846 19.533 21.0718C19.3095 20.7301 19.0624 20.4094 18.7996 20.1019C18.5367 19.7944 18.2555 19.5026 17.9611 19.2213C17.9374 19.1977 17.8402 19.1398 17.8349 19.0741C17.8349 19.0689 17.8323 19.0662 17.8323 19.061C17.8323 19.0557 17.8349 19.0505 17.8375 19.0452C17.8402 19.0373 17.8454 19.0294 17.8559 19.0216C17.8743 19.0032 17.9059 18.9795 17.9663 18.9453C18.0058 18.9217 18.0583 18.8954 18.124 18.8612C18.1451 18.8507 18.1635 18.8428 18.1792 18.8349C18.2134 18.8191 18.2397 18.806 18.2581 18.7981C18.266 18.7955 18.2712 18.7929 18.2739 18.7902C18.3186 18.7692 18.3554 18.7429 18.3895 18.7087C18.3922 18.7061 18.3948 18.7009 18.4 18.6956C18.4316 18.6641 18.4579 18.6299 18.4842 18.5878C18.6787 18.4012 18.8679 18.2067 19.0519 18.0095C19.4173 17.6126 19.7616 17.1947 20.0876 16.7636C20.2506 16.5481 20.4109 16.3299 20.5686 16.1091C21.2179 15.2022 21.8224 14.2796 22.3455 13.3254C22.4507 13.1335 22.5506 12.9417 22.6478 12.7498C23.623 10.8151 24.2355 8.74383 24.1592 6.41492C24.154 6.28086 24.1435 6.14943 24.1277 6.02063C24.1093 5.86818 24.0883 5.71835 24.0646 5.56852C24.0594 5.53172 24.0594 5.49755 24.0672 5.46864C24.0751 5.43709 24.0883 5.41081 24.104 5.38715C24.154 5.31618 24.2434 5.27938 24.3275 5.28463C24.3564 5.28726 24.3853 5.29252 24.4116 5.30566C24.4379 5.3188 24.4615 5.33458 24.4852 5.35824C24.5062 5.38189 24.5246 5.4108 24.5378 5.44498C24.8532 6.25195 25.0556 7.04315 25.1581 7.81332C25.2448 8.45732 25.2632 9.08818 25.2212 9.70852C25.187 10.2053 25.116 10.6969 25.0109 11.1805C24.9583 11.4223 24.8979 11.6642 24.8295 11.9034C24.3117 13.7013 23.3496 15.423 22.1694 17.1079C22.0906 17.221 22.1195 17.3471 22.1983 17.4234C22.2746 17.5022 22.4007 17.5311 22.5138 17.4523C22.6715 17.3393 22.8266 17.2262 22.9816 17.1106C23.4416 16.761 23.8806 16.393 24.3038 16.0066C24.8663 15.4887 25.3947 14.9394 25.8967 14.3558C26.1675 14.0404 26.4224 13.7145 26.6616 13.3806C26.8194 13.1625 26.9718 12.9417 27.1138 12.7156C27.2951 12.4291 27.4634 12.1373 27.6211 11.8403C27.7236 11.6458 27.8208 11.446 27.9128 11.2436C27.9628 11.1385 28.0101 11.0333 28.0574 10.9255C28.0995 10.8283 28.181 10.781 28.2651 10.7783C28.294 10.7757 28.3203 10.781 28.3492 10.7889C28.3755 10.7967 28.4018 10.8073 28.4254 10.823C28.4964 10.8703 28.5411 10.9518 28.5279 11.057C28.3676 12.2188 28.039 13.2702 27.5659 14.227C27.4712 14.4189 27.3714 14.6055 27.2662 14.7895C27.0559 15.1575 26.822 15.5098 26.567 15.8515C26.0597 16.5323 25.4683 17.1579 24.8085 17.7388C24.1487 18.3197 23.4206 18.8559 22.6347 19.358C22.5479 19.4132 22.5138 19.4973 22.519 19.5788C22.5243 19.6603 22.569 19.7391 22.6399 19.7812C22.6872 19.8101 22.7451 19.8206 22.8134 19.8075C23.0447 19.7602 23.2734 19.7076 23.4995 19.6524C23.5626 19.6366 23.6283 19.6209 23.6914 19.6051C24.2618 19.4579 24.819 19.2844 25.3552 19.0741C25.5103 19.0137 25.6628 18.9506 25.8126 18.8849C25.9309 18.8323 26.0492 18.7797 26.1648 18.7219C26.3962 18.6089 26.6248 18.4906 26.8509 18.3618C27.4108 18.0385 27.947 17.6626 28.4491 17.2183C28.4754 17.1947 28.5043 17.1789 28.5332 17.1684C28.5621 17.1579 28.591 17.1553 28.6199 17.1553C28.6646 17.1579 28.7067 17.1763 28.7461 17.1999C28.754 17.2052 28.7645 17.2105 28.7724 17.2157C28.8144 17.2525 28.846 17.3025 28.8565 17.3577C28.8618 17.3866 28.8618 17.4155 28.8565 17.4444C28.8512 17.4733 28.8381 17.5049 28.8197 17.5338C28.7356 17.6626 28.6462 17.7887 28.5542 17.9123C27.905 18.7666 27.0533 19.4395 26.1123 20.0283C25.647 20.3201 25.1686 20.5698 24.6771 20.788C24.43 20.8957 24.1803 20.9956 23.9279 21.0876C23.6756 21.1796 23.4206 21.2611 23.1604 21.3373C22.8686 21.4214 22.9606 21.8604 23.2603 21.8157C23.9858 21.7106 24.7428 21.495 25.484 21.1927C26.5223 20.7695 27.5317 20.1729 28.3807 19.4605C28.6226 19.2581 28.8512 19.0452 29.0642 18.8244C29.0747 18.8139 29.0826 18.8034 29.0931 18.7929C29.2955 18.58 29.4821 18.3618 29.653 18.1383C30.7096 16.7031 31.1486 15.1733 30.9672 13.4516ZM19.4935 12.3134C19.4383 12.4843 19.3463 12.6473 19.2543 12.8076C18.952 13.3386 18.5656 13.8249 18.1109 14.2665C18.0347 14.3401 17.9558 14.411 17.877 14.482C17.7981 14.553 17.714 14.6239 17.6299 14.6923C17.4354 14.8526 17.3959 15.0182 17.4616 15.2259C17.4932 15.3284 17.5168 15.3941 17.551 15.4257C17.572 15.4467 17.5983 15.4519 17.6299 15.4467C17.6456 15.4441 17.664 15.4362 17.6851 15.4257C17.7271 15.4046 17.7797 15.3731 17.8454 15.3284C18.0504 15.1917 18.2555 15.055 18.4789 14.942C18.5525 14.9052 18.6287 14.871 18.7076 14.8395C18.3291 15.4598 17.9032 16.0513 17.3723 16.5665C17.3013 16.669 17.233 16.7636 17.1672 16.853C17.1646 16.8556 17.162 16.8609 17.1594 16.8635C17.0936 16.9529 17.0332 17.0343 16.9727 17.1079C16.6152 17.5548 16.3603 17.7125 16.0527 17.6048V17.6074C16.008 17.5916 15.9634 17.5706 15.916 17.5443C15.9187 17.4891 15.9397 17.4313 15.9634 17.3682C15.9896 17.2998 16.0186 17.2341 16.0501 17.1684V17.1868C16.2604 16.7531 16.589 16.3798 16.9727 16.0434C17.0148 16.0066 17.049 15.9698 17.0805 15.933C17.2093 15.7779 17.2408 15.6175 17.1725 15.4151C17.1567 15.3652 17.1383 15.3284 17.1173 15.2995C17.1015 15.2785 17.0831 15.2653 17.0621 15.2548C17.0463 15.2495 17.0279 15.2443 17.0095 15.2469C16.9938 15.2495 16.978 15.2522 16.9622 15.2601C16.9438 15.2653 16.928 15.2758 16.907 15.2863C16.8886 15.2969 16.8676 15.31 16.8439 15.3258C16.7835 15.3678 16.723 15.4073 16.6626 15.4493C16.6021 15.4914 16.5416 15.5308 16.4786 15.5702C16.355 15.6491 16.2288 15.7253 16.0948 15.791C16.0869 15.7937 16.079 15.7989 16.0711 15.8015C16.0632 15.8042 16.0554 15.8094 16.0475 15.8121C15.5954 16.0355 15.1538 16.2905 14.5834 16.251C14.3152 16.2326 14.1628 16.1249 14.1444 15.9041C14.126 15.6911 14.1418 15.4809 14.2311 15.2706C14.5387 14.5267 15.0933 13.9169 15.6952 13.3307C15.8503 13.1809 16.0238 13.0468 16.1815 12.8996C16.3103 12.7813 16.3024 12.437 16.1579 12.3555C15.9502 12.2425 15.8898 12.4396 15.7794 12.5132C15.6453 12.6026 15.5349 12.713 15.414 12.8155C14.8725 13.2702 14.2706 13.6593 13.5372 13.8695C12.7828 14.0877 12.1808 13.8801 12.215 13.123C12.236 12.6525 12.4332 12.2135 12.675 11.793C13.1482 10.9702 13.7764 10.2421 14.5571 9.60075C14.6517 9.52189 14.7437 9.44303 14.6727 9.32212C14.5912 9.18543 14.5045 9.05401 14.4125 8.92258C14.3074 8.76749 14.1891 8.77275 14.0208 8.87789C13.6055 9.13549 13.2559 9.45092 12.8879 9.75058C12.767 9.85046 12.6461 9.98978 12.4542 9.92406C12.3622 9.89252 12.307 9.83732 12.2702 9.77161C12.2597 9.57183 12.2544 9.38521 12.2492 9.21698C12.215 7.96578 12.3044 7.67138 12.4043 7.45583C12.604 7.02212 12.9142 6.76189 13.0404 6.66726C13.7475 6.12578 14.7647 6.08372 15.5559 6.45698C15.7452 6.54635 15.9082 6.65412 16.0501 6.7724V6.78029C16.0922 6.81446 16.1395 6.84864 16.1789 6.88544C16.3077 7.03264 16.4391 7.17721 16.5574 7.32966C16.56 7.33229 16.5627 7.33755 16.5653 7.34018C16.5732 7.35069 16.5784 7.35858 16.5837 7.36909C16.6047 7.40063 16.6231 7.42955 16.6415 7.45846C16.6547 7.48475 16.6652 7.50841 16.6731 7.52943C16.7256 7.68978 16.6284 7.79229 16.3603 7.88955C16.2578 7.92635 16.1552 7.96052 16.0527 7.99206C15.7452 8.08669 15.4324 8.1708 15.1459 8.30749C14.586 8.57298 14.4887 8.43103 14.904 9.0356C15.0118 9.19332 15.117 9.18543 15.2589 9.08818C15.5086 8.92258 15.7715 8.78064 16.0501 8.65972C16.1684 8.60715 16.2919 8.55983 16.4181 8.51778C16.5285 8.48098 16.6442 8.44681 16.7598 8.41789C16.7756 8.41264 16.7914 8.40738 16.8098 8.40475C16.9359 8.37321 17.0621 8.36269 17.1778 8.3732C17.5274 8.40212 17.806 8.60715 17.8612 8.93572C17.9032 9.17229 17.8875 9.40886 17.8244 9.63755C17.8034 9.71378 17.7771 9.79001 17.7482 9.86361C17.6982 9.98452 17.643 10.1028 17.5878 10.2237C17.509 10.3893 17.4222 10.5497 17.3302 10.7074C17.1725 10.9755 16.9911 11.2357 16.7835 11.4802C16.7309 11.5406 16.6783 11.6037 16.6231 11.6615C16.5995 11.6878 16.5758 11.7141 16.5574 11.7404C16.4996 11.8193 16.468 11.8981 16.4575 11.977C16.4444 12.0821 16.4654 12.1925 16.518 12.3082C16.5522 12.387 16.5863 12.437 16.6336 12.4527C16.6468 12.458 16.6573 12.458 16.6731 12.458C16.6915 12.458 16.7151 12.4501 16.7414 12.4422C16.7703 12.4317 16.7992 12.4159 16.836 12.3923C17.1488 12.1899 17.4774 12.0033 17.806 11.8193C17.8454 11.7982 17.8875 11.7798 17.9269 11.7588C18.0688 11.6878 18.2187 11.6274 18.3738 11.5801C18.5104 11.538 18.6524 11.5091 18.7996 11.4881C18.8154 11.4854 18.8285 11.4828 18.8443 11.4802C18.8995 11.4749 18.952 11.4723 19.002 11.4723C19.0992 11.4749 19.186 11.4907 19.2596 11.5222C19.3332 11.5511 19.3936 11.5958 19.4383 11.6537C19.5067 11.7378 19.5435 11.8534 19.5435 11.9927C19.5435 12.0663 19.533 12.1373 19.5172 12.2083C19.5146 12.2451 19.504 12.2793 19.4935 12.3134Z" fill="url(#paint6_linear_571_24)"/>
<path d="M20.5687 24.1447C20.5503 23.8556 20.5109 23.5664 20.4478 23.2773C20.3663 22.9066 20.2533 22.5518 20.114 22.2074C20.093 22.1522 20.0693 22.097 20.0456 22.0445C19.8984 21.708 19.7223 21.3847 19.5173 21.0719C19.2939 20.7302 19.0468 20.4095 18.7839 20.102C18.5211 19.7944 18.2398 19.5026 17.9454 19.2214C17.9218 19.1977 17.8245 19.1399 17.8192 19.0742C17.8192 19.0689 17.8166 19.0663 17.8166 19.061C17.8166 19.0558 17.8192 19.0505 17.8219 19.0453C17.8245 19.04 17.8298 19.0321 17.8376 19.0216C17.2042 18.6983 16.6127 18.2041 16.1159 17.6206C16.0949 17.6153 16.0765 17.6127 16.0555 17.6074V17.6101C16.0108 17.5943 15.9661 17.5733 15.9188 17.547C15.9214 17.5076 15.9346 17.4629 15.9503 17.4182C15.6454 17.0318 15.3826 16.6165 15.1749 16.1933C14.9935 16.2432 14.8016 16.2695 14.5914 16.2537C14.3232 16.2353 14.1708 16.1276 14.1524 15.9068C14.134 15.6938 14.1498 15.4836 14.2391 15.2733C14.3154 15.0866 14.4074 14.9105 14.5125 14.7397C14.1419 14.4821 13.7923 14.2008 13.469 13.8933C12.7514 14.0746 12.1888 13.8591 12.223 13.1284C12.2256 13.0994 12.2309 13.0705 12.2335 13.0416C12.018 12.855 11.813 12.6342 11.6053 12.4029C11.2373 11.9902 11.0139 11.5249 10.8614 11.0334C10.8719 11.2568 10.893 11.4776 10.9271 11.6984C10.5434 11.1175 10.1859 10.5182 9.87307 9.88733C8.35902 6.82504 8.5509 3.9047 10.6853 1.17624C10.7536 1.08687 10.8246 1.00013 10.893 0.910755C11.0586 0.697841 10.8088 0.411327 10.5749 0.545384C7.37856 2.39064 5.02336 4.80367 4.80782 8.66504C4.79205 8.94892 4.38462 8.98573 4.32416 8.7071C4.21902 8.23133 4.18485 7.74767 4.16645 7.26664C4.14279 6.60687 4.15067 5.94447 4.15593 5.20058C4.15856 4.95087 3.83262 4.85887 3.70119 5.06915C1.97422 7.8055 1.39593 11.0518 2.97833 14.5057C3.10187 14.7738 2.73387 14.9894 2.55776 14.7528C2.43947 14.5925 2.32382 14.4348 2.21079 14.2744C1.82439 13.7382 1.67719 13.0916 1.43536 12.3924C1.3565 12.1637 1.02793 12.1794 0.964846 12.4108C0.373417 14.5583 0.812388 16.4325 2.1109 18.1016C3.7117 20.1624 5.75936 21.3111 8.14873 21.6791C8.44576 21.7238 8.5509 21.3032 8.26964 21.2033C5.2573 20.1335 3.20702 18.6352 2.4789 16.9398C2.37376 16.698 2.67605 16.4824 2.87056 16.6612C4.79993 18.4276 7.00005 19.5684 9.11079 19.8549C9.37627 19.8917 9.49456 19.5342 9.26324 19.4001C7.48107 18.3592 5.99593 17.1212 4.85776 15.4836C3.76427 13.9117 3.14656 12.211 3.04667 10.5813C3.0309 10.3026 3.42256 10.2212 3.52245 10.4814C4.6133 13.3833 7.08153 16.0198 9.27113 17.4708C9.49982 17.6232 9.76793 17.3446 9.60759 17.1238C7.18142 13.7829 5.67262 10.2895 6.83182 6.31247C6.9133 6.03121 7.32862 6.10744 7.31284 6.39921C7.1893 8.6519 7.9069 10.7679 9.16599 12.7972C10.4198 14.8133 11.9575 16.606 13.5583 18.3487C13.9631 18.7877 14.1997 19.0505 14.2786 19.2766C14.2812 19.2845 14.2864 19.2897 14.2917 19.2976C13.3349 20.0678 12.7146 20.8012 12.7146 20.8012C12.6252 20.8905 12.5384 20.9825 12.4491 21.0798C12.2677 21.2796 12.1021 21.4767 11.9575 21.6686C12.0469 21.6029 12.1941 21.4925 12.3807 21.3584C13.3901 20.6277 14.5887 19.7786 16.0581 19.1741C16.0765 19.1662 16.0975 19.1583 16.1159 19.1504C16.1922 19.1189 16.2658 19.0847 16.3446 19.0558C16.4971 18.998 16.6206 18.9559 16.7205 18.9244C16.8467 18.8849 16.9413 18.8586 17.0175 18.8429C17.0622 18.8324 17.1016 18.8271 17.1384 18.8192C16.9965 18.9401 16.8467 19.0532 16.6968 19.1636C16.7757 19.1741 16.8546 19.1951 16.9334 19.2319C17.099 19.3081 17.2436 19.4895 17.3014 19.6604C17.3172 19.7103 17.3277 19.7655 17.333 19.8233C17.3855 19.8365 17.4355 19.847 17.4854 19.8654C17.5984 19.9048 17.7088 19.9574 17.8166 20.0205C17.9244 20.0836 18.0269 20.1572 18.1242 20.2413C18.1767 20.2833 18.2056 20.3412 18.2083 20.4042C18.2083 20.4253 18.2083 20.4463 18.203 20.47C18.1925 20.5225 18.1662 20.5514 18.1294 20.5698C18.0926 20.5882 18.0506 20.5961 18.0111 20.604C17.9112 20.6277 17.814 20.6172 17.7141 20.604C17.6484 20.5961 17.5932 20.5935 17.5485 20.5988C17.4118 20.6145 17.3566 20.7013 17.3198 20.9221C17.2988 21.0404 17.3408 21.0798 17.4039 21.0956C17.4328 21.1034 17.467 21.1061 17.5012 21.1087C17.5038 21.1087 17.5064 21.1087 17.5117 21.1087C17.5432 21.1113 17.5774 21.114 17.6011 21.1271C17.6326 21.1402 17.6694 21.1455 17.7036 21.1508C17.7299 21.1534 17.7562 21.1586 17.7798 21.1665C18.1347 21.2822 18.5079 21.361 18.7839 21.6423C18.8733 21.7317 18.9127 21.8184 18.9075 21.9025C18.9048 21.9236 18.9022 21.9446 18.8943 21.9656C18.8733 22.0287 18.8234 22.0892 18.7498 22.147C18.7024 22.1838 18.6551 22.2127 18.6026 22.239C18.5 22.2889 18.3896 22.3231 18.2792 22.3494C18.224 22.3625 18.1688 22.3757 18.1136 22.3888C17.8928 22.4388 17.6668 22.4466 17.4434 22.444C17.3067 22.444 17.1726 22.4388 17.0386 22.4361C16.9466 22.4335 16.8887 22.4624 16.8546 22.5045C16.8072 22.5597 16.7941 22.6412 16.7836 22.7174C16.781 22.7358 16.7783 22.7542 16.7757 22.77C16.7652 22.8304 16.781 22.8646 16.8125 22.883C16.8335 22.8961 16.8572 22.8988 16.8861 22.9014C16.9282 22.904 16.9728 22.9014 17.0096 22.904C17.4197 22.9382 17.8324 22.9618 18.2372 23.0381C18.3371 23.0565 18.4343 23.0749 18.5342 23.1012C18.6131 23.1222 18.6919 23.1432 18.7708 23.1669C18.8496 23.1905 18.9259 23.2168 19.0021 23.2484C19.1546 23.3088 19.2991 23.385 19.4306 23.4928C19.4568 23.5138 19.4805 23.5375 19.5015 23.5612C19.6487 23.7268 19.6487 23.9292 19.4936 24.1132C19.4595 24.1526 19.4227 24.192 19.3832 24.2288C19.3438 24.2656 19.3018 24.2972 19.2571 24.3261C19.081 24.4391 18.897 24.5337 18.7051 24.6126C18.6315 24.6441 18.5579 24.673 18.4843 24.6993C18.3239 24.7572 18.1583 24.8045 17.9901 24.8439C17.9586 24.8518 17.9296 24.8597 17.9007 24.8676C17.793 24.8912 17.6852 24.9149 17.5774 24.9385C17.2541 25.0095 16.9255 25.0673 16.5891 25.07C16.4235 25.07 16.3315 25.1541 16.2999 25.3118C16.2894 25.3644 16.2842 25.4248 16.2868 25.4958C16.2894 25.5825 16.3157 25.6272 16.3525 25.6509C16.3788 25.6666 16.4077 25.6693 16.4419 25.6719C16.4918 25.6719 16.5444 25.664 16.5917 25.664C16.9203 25.6693 17.2515 25.6693 17.58 25.664C17.6799 25.6614 17.7798 25.6666 17.8797 25.6745C17.9796 25.6824 18.0768 25.6956 18.1741 25.7113C18.3686 25.7455 18.5605 25.7954 18.7498 25.8612C19.031 25.9584 19.2255 26.1056 19.3254 26.287C19.4016 26.421 19.42 26.5761 19.3832 26.7391C19.3701 26.7943 19.3517 26.8495 19.3254 26.9073C19.2439 27.0861 19.1256 27.2412 18.9811 27.3752C18.9338 27.4199 18.8838 27.462 18.8312 27.5014C18.1005 28.056 17.2725 28.403 16.3998 28.6501C16.3078 28.6764 16.2368 28.7132 16.1948 28.771C16.1527 28.8262 16.137 28.8998 16.1501 28.997C16.1501 28.997 16.1501 28.997 16.1501 28.9997C16.1501 29.0049 16.1527 29.0102 16.1527 29.0154C16.1632 29.0943 16.179 29.1705 16.1816 29.2494C16.1843 29.3177 16.1974 29.365 16.2237 29.3966C16.25 29.4281 16.2842 29.4386 16.3315 29.4386C16.363 29.436 16.3998 29.4281 16.4392 29.415C16.71 29.323 16.9807 29.2284 17.2488 29.1258C17.4223 29.0601 17.5958 28.9892 17.7693 28.9129C17.8613 28.8735 17.9533 28.8341 18.0427 28.792C18.0768 28.7762 18.111 28.7526 18.1452 28.7289C18.1978 28.6921 18.2503 28.6553 18.3055 28.6396C18.3239 28.6343 18.3423 28.6317 18.3607 28.6317C18.3896 28.6317 18.4212 28.6422 18.4527 28.6632C18.4606 28.6685 18.4685 28.6711 18.4764 28.6764C18.5053 28.7 18.5237 28.7289 18.5368 28.7605C18.5474 28.7841 18.5552 28.8104 18.5579 28.8367C18.5605 28.8761 18.5579 28.9182 18.5526 28.9629C18.5421 29.0286 18.529 29.0943 18.5211 29.1574C18.5211 29.1653 18.5184 29.1732 18.5158 29.1784C18.4343 29.5254 18.3292 29.8618 18.2083 30.1904C18.1268 30.4112 18.0374 30.6268 17.9428 30.8423C17.8008 31.163 17.6458 31.481 17.4828 31.7938C17.3382 32.0751 17.191 32.3537 17.0386 32.6508C17.0701 32.6508 17.0964 32.6481 17.12 32.6402C17.1858 32.6166 17.2094 32.5614 17.2383 32.5167C17.559 32.0541 17.8718 31.5862 18.1741 31.113C18.6762 30.3218 19.1414 29.5096 19.5383 28.6553C19.8248 28.0402 20.0719 27.4146 20.2586 26.768C20.2954 26.6392 20.3295 26.5078 20.3611 26.379C20.4242 26.1188 20.4767 25.8533 20.5162 25.5852C20.5451 25.3933 20.5661 25.204 20.5792 25.0121C20.5924 24.8202 20.5976 24.6284 20.595 24.4365C20.5792 24.3366 20.574 24.2393 20.5687 24.1447Z" fill="url(#paint7_linear_571_24)"/>
<defs>
<linearGradient id="paint0_linear_571_24" x1="39.5811" y1="14.9756" x2="34.551" y2="6.26313" gradientUnits="userSpaceOnUse">
<stop stop-color="#F7941D"/>
<stop offset="0.1408" stop-color="#F28D20"/>
<stop offset="0.3444" stop-color="#E77D24"/>
<stop offset="0.5861" stop-color="#D96429"/>
<stop offset="0.855" stop-color="#C83D2D"/>
<stop offset="1" stop-color="#BE1E2D"/>
</linearGradient>
<linearGradient id="paint1_linear_571_24" x1="49.5617" y1="15.185" x2="44.8403" y2="7.00741" gradientUnits="userSpaceOnUse">
<stop stop-color="#F7941D"/>
<stop offset="0.1408" stop-color="#F28D20"/>
<stop offset="0.3444" stop-color="#E77D24"/>
<stop offset="0.5861" stop-color="#D96429"/>
<stop offset="0.855" stop-color="#C83D2D"/>
<stop offset="1" stop-color="#BE1E2D"/>
</linearGradient>
<linearGradient id="paint2_linear_571_24" x1="40.1146" y1="26.3029" x2="35.3079" y2="17.9776" gradientUnits="userSpaceOnUse">
<stop stop-color="#F7941D"/>
<stop offset="0.1408" stop-color="#F28D20"/>
<stop offset="0.3444" stop-color="#E77D24"/>
<stop offset="0.5861" stop-color="#D96429"/>
<stop offset="0.855" stop-color="#C83D2D"/>
<stop offset="1" stop-color="#BE1E2D"/>
</linearGradient>
<linearGradient id="paint3_linear_571_24" x1="48.2538" y1="25.141" x2="43.1842" y2="16.3601" gradientUnits="userSpaceOnUse">
<stop stop-color="#F7941D"/>
<stop offset="0.1408" stop-color="#F28D20"/>
<stop offset="0.3444" stop-color="#E77D24"/>
<stop offset="0.5861" stop-color="#D96429"/>
<stop offset="0.855" stop-color="#C83D2D"/>
<stop offset="1" stop-color="#BE1E2D"/>
</linearGradient>
<linearGradient id="paint4_linear_571_24" x1="55.0164" y1="26.3029" x2="50.2098" y2="17.9776" gradientUnits="userSpaceOnUse">
<stop stop-color="#F7941D"/>
<stop offset="0.1408" stop-color="#F28D20"/>
<stop offset="0.3444" stop-color="#E77D24"/>
<stop offset="0.5861" stop-color="#D96429"/>
<stop offset="0.855" stop-color="#C83D2D"/>
<stop offset="1" stop-color="#BE1E2D"/>
</linearGradient>
<linearGradient id="paint5_linear_571_24" x1="63.8185" y1="25.1625" x2="58.7466" y2="16.3777" gradientUnits="userSpaceOnUse">
<stop stop-color="#F7941D"/>
<stop offset="0.1408" stop-color="#F28D20"/>
<stop offset="0.3444" stop-color="#E77D24"/>
<stop offset="0.5861" stop-color="#D96429"/>
<stop offset="0.855" stop-color="#C83D2D"/>
<stop offset="1" stop-color="#BE1E2D"/>
</linearGradient>
<linearGradient id="paint6_linear_571_24" x1="27.0997" y1="24.7869" x2="5.53387" y2="3.2211" gradientUnits="userSpaceOnUse">
<stop stop-color="#F7941D"/>
<stop offset="0.1408" stop-color="#F28D20"/>
<stop offset="0.3444" stop-color="#E77D24"/>
<stop offset="0.5861" stop-color="#D96429"/>
<stop offset="0.855" stop-color="#C83D2D"/>
<stop offset="1" stop-color="#BE1E2D"/>
</linearGradient>
<linearGradient id="paint7_linear_571_24" x1="19.2028" y1="31.4312" x2="3.67093" y2="4.52922" gradientUnits="userSpaceOnUse">
<stop stop-color="#662D91"/>
<stop offset="0.2237" stop-color="#5F2B89"/>
<stop offset="0.5321" stop-color="#4E297C"/>
<stop offset="0.8882" stop-color="#312469"/>
<stop offset="1" stop-color="#262262"/>
</linearGradient>
</defs>
</svg>
