<svg width="91" height="40" viewBox="0 0 91 40" fill="none" xmlns="http://www.w3.org/2000/svg">
<path d="M38.402 10.1078C38.9558 10.3437 39.4394 10.6668 39.8528 11.077C40.2688 11.4873 40.5938 11.9642 40.8356 12.5078C41.0748 13.0539 41.1944 13.636 41.1944 14.2539C41.1944 14.8488 41.0852 15.4052 40.872 15.9257C40.6562 16.4462 40.3624 16.9078 39.988 17.3103C39.6136 17.7103 39.1742 18.0386 38.6698 18.2898C38.1654 18.5437 37.6194 18.6924 37.0344 18.7411V17.3206C37.4166 17.2719 37.7754 17.1591 38.1082 16.9847C38.441 16.8078 38.7296 16.5847 38.974 16.3104C39.2184 16.0386 39.4108 15.7257 39.5538 15.3719C39.6968 15.018 39.767 14.6462 39.767 14.2539C39.767 13.8283 39.6864 13.4309 39.5226 13.0565C39.3588 12.6847 39.1352 12.3565 38.8492 12.077C38.5632 11.7975 38.2304 11.5745 37.8456 11.4104C37.4634 11.2462 37.0552 11.1642 36.621 11.1642H35.2014V17.3129H33.774V9.7565H36.6288C37.2606 9.75138 37.8508 9.87189 38.402 10.1078Z" fill="url(#paint0_linear_426_728)"/>
<path d="M46.6882 9.63086C47.3304 9.63086 47.9336 9.75137 48.5004 9.9924C49.0646 10.2334 49.5586 10.5616 49.9824 10.9796C50.4062 11.3975 50.739 11.8873 50.9834 12.4488C51.2278 13.0103 51.35 13.6078 51.35 14.2411C51.35 14.8257 51.246 15.377 51.038 15.895C50.83 16.4129 50.5466 16.8745 50.1904 17.2796C49.8316 17.6847 49.4078 18.0206 48.9164 18.2898C48.425 18.5591 47.8946 18.7283 47.3252 18.8001V17.4283C47.6996 17.3565 48.048 17.2232 48.3756 17.0309C48.7006 16.8386 48.9814 16.6001 49.218 16.3155C49.4546 16.0309 49.6418 15.7129 49.7796 15.3591C49.9174 15.0052 49.9876 14.6334 49.9876 14.2411C49.9876 13.7924 49.9018 13.3719 49.7302 12.977C49.5586 12.5847 49.3246 12.2386 49.023 11.9411C48.7214 11.6437 48.373 11.4103 47.9726 11.2437C47.5748 11.0745 47.1458 10.9898 46.6908 10.9898C46.2358 10.9898 45.8068 11.0745 45.409 11.2437C45.0112 11.4129 44.6602 11.6462 44.3586 11.9411C44.057 12.2386 43.823 12.5821 43.6514 12.977C43.4798 13.3693 43.394 13.7924 43.394 14.2411C43.394 14.6257 43.4616 14.995 43.5942 15.3488C43.7294 15.7027 43.9114 16.018 44.1428 16.3001C44.3742 16.5821 44.6498 16.818 44.967 17.0103C45.2842 17.2027 45.63 17.3386 46.0044 17.4206V18.7924C45.4428 18.7129 44.9176 18.5386 44.4314 18.2693C43.9426 18.0001 43.5214 17.6668 43.1678 17.2642C42.8142 16.8642 42.536 16.4027 42.3332 15.8873C42.1304 15.3693 42.029 14.8232 42.029 14.2437C42.029 13.6103 42.1512 13.0129 42.3956 12.4514C42.64 11.8898 42.9728 11.4001 43.3966 10.9821C43.8204 10.5642 44.3144 10.236 44.8786 9.99496C45.4402 9.75137 46.046 9.63086 46.6882 9.63086Z" fill="url(#paint1_linear_426_728)"/>
<path d="M59.2072 15.4924C59.1734 15.9411 59.0616 16.3616 58.8666 16.7565C58.6716 17.1488 58.4168 17.4898 58.1048 17.7795C57.7928 18.0693 57.4288 18.2975 57.018 18.4667C56.6072 18.636 56.1704 18.718 55.7076 18.718C55.2188 18.718 54.7612 18.6283 54.3348 18.4462C53.9084 18.2642 53.5366 18.018 53.2194 17.7052C52.9022 17.3924 52.6526 17.0257 52.468 16.6052C52.286 16.1847 52.1924 15.736 52.1924 15.2642V9.75391H53.5834V15.2642C53.5834 15.5539 53.638 15.8231 53.7472 16.077C53.8564 16.3308 54.0098 16.5513 54.2048 16.7385C54.3998 16.9283 54.626 17.0744 54.8808 17.1847C55.1382 17.2924 55.4112 17.3462 55.705 17.3462C55.9728 17.3462 56.2302 17.2975 56.4746 17.2026C56.719 17.1052 56.9348 16.977 57.122 16.8129C57.3092 16.6488 57.4626 16.4539 57.5796 16.2283C57.6966 16.0026 57.772 15.759 57.8058 15.4949H59.2072V15.4924ZM57.8162 14.0129V9.76416H59.2072V14.0129H57.8162Z" fill="white"/>
<path d="M66.235 14.1206C66.5366 14.3693 66.7784 14.6693 66.9604 15.018C67.1424 15.3667 67.236 15.759 67.236 16.1924C67.236 16.5462 67.1658 16.8795 67.0228 17.1898C66.8798 17.5026 66.6874 17.7744 66.4482 18.0078C66.209 18.2411 65.9256 18.4257 65.6058 18.5616C65.2834 18.6975 64.9428 18.7667 64.584 18.7667H60.5254V15.2642V15.0231V9.75134H64.272C64.6386 9.75134 64.9792 9.82058 65.2964 9.9616C65.6136 10.1026 65.8918 10.2898 66.131 10.5283C66.3702 10.7642 66.56 11.0411 66.6978 11.359C66.8356 11.677 66.9058 12.0154 66.9058 12.377C66.9058 12.7129 66.846 13.0308 66.729 13.3283C66.612 13.6231 66.4456 13.8872 66.235 14.1206ZM64.5788 17.3565C64.74 17.3565 64.896 17.3257 65.0468 17.2667C65.1976 17.2078 65.3276 17.1231 65.442 17.0154C65.5564 16.9078 65.6448 16.7821 65.7098 16.6385C65.7748 16.4949 65.806 16.3436 65.806 16.1847C65.806 16.018 65.7722 15.859 65.7072 15.7129C65.6422 15.5642 65.5538 15.4334 65.4394 15.318C65.325 15.2026 65.1924 15.1129 65.0416 15.0488C64.8908 14.9847 64.7348 14.9539 64.571 14.9539H63.167V13.5462H64.2642C64.4358 13.5462 64.5944 13.5154 64.74 13.4565C64.8856 13.3975 65.0156 13.3154 65.1248 13.2103C65.234 13.1052 65.3198 12.9821 65.3822 12.8385C65.442 12.6949 65.4732 12.5385 65.4732 12.3719C65.4732 12.2052 65.442 12.0462 65.3822 11.9001C65.3224 11.7513 65.2366 11.6231 65.1274 11.5103C65.0182 11.3975 64.8908 11.3078 64.7452 11.2411C64.5996 11.1719 64.441 11.1385 64.272 11.1385H61.9502V15.018V15.259V17.3616H64.5788V17.3565Z" fill="white"/>
<path d="M69.7736 17.3334H68.3462V9.75134H69.7736V17.3334ZM71.019 17.3334H74.6304V18.7411H71.019V17.3334Z" fill="white"/>
<path d="M75.4364 9.76416H81.341V11.1488H76.8378V13.1334H75.4338V9.76416H75.4364ZM76.8378 14.5539V17.3462H81.341V18.7308H75.4364V14.5565H76.8378V14.5539ZM80.756 13.1693V14.5539H78.3042V13.1693H80.756Z" fill="white"/>
<path d="M38.402 24.1513C38.7686 24.1513 39.1118 24.2206 39.4342 24.3565C39.7566 24.4924 40.0348 24.6795 40.2766 24.918C40.5158 25.1565 40.7056 25.4334 40.8434 25.7513C40.9812 26.0693 41.0514 26.4077 41.0514 26.7693C41.0514 27.1308 40.9812 27.4718 40.8434 27.7898C40.7056 28.1077 40.5158 28.3872 40.274 28.6282C40.0348 28.8693 39.7514 29.059 39.4316 29.1949C39.1092 29.3308 38.766 29.4 38.3994 29.4H36.2232C35.8566 29.4 35.5134 29.3308 35.191 29.1949C34.8686 29.059 34.5878 28.8693 34.3486 28.6282C34.1094 28.3872 33.9196 28.1077 33.7792 27.7924C33.6414 27.4744 33.5712 27.1359 33.5712 26.7744H34.9986C34.9986 26.9411 35.0298 27.0975 35.0948 27.2462C35.1598 27.3924 35.2482 27.5231 35.3626 27.6334C35.477 27.7436 35.607 27.8308 35.7526 27.8949C35.8982 27.959 36.0568 27.9898 36.2284 27.9898H38.3942C38.5632 27.9898 38.7218 27.959 38.87 27.8949C39.0156 27.8308 39.1456 27.7436 39.26 27.6308C39.3744 27.518 39.4628 27.3898 39.5278 27.2411C39.5928 27.0924 39.624 26.9359 39.624 26.7693C39.624 26.6026 39.5902 26.4436 39.5252 26.2975C39.4602 26.1488 39.3718 26.0231 39.2574 25.9154C39.143 25.8077 39.013 25.7231 38.8674 25.659C38.7218 25.5949 38.5632 25.5641 38.3916 25.5641L36.2206 25.5513C35.8618 25.5513 35.5238 25.4821 35.2014 25.3462C34.879 25.2103 34.6008 25.0257 34.3668 24.7924C34.1302 24.559 33.9404 24.2872 33.8 23.9744C33.657 23.6616 33.5816 23.3283 33.5738 22.977H35.0012C35.009 23.1359 35.0454 23.2872 35.1104 23.4308C35.1754 23.5744 35.2638 23.6975 35.3782 23.8052C35.4926 23.9129 35.6226 23.9949 35.7682 24.0565C35.9138 24.1154 36.0698 24.1462 36.231 24.1462L38.402 24.1513ZM36.049 20.3129H38.1732C38.5398 20.3129 38.883 20.3821 39.2054 20.518C39.5278 20.6539 39.8112 20.8411 40.0582 21.077C40.3052 21.3129 40.4976 21.5898 40.6354 21.9077C40.7758 22.2257 40.846 22.5641 40.846 22.9257H39.4186C39.4186 22.759 39.3848 22.6026 39.3198 22.4539C39.2548 22.3077 39.1664 22.1795 39.052 22.0718C38.9376 21.9641 38.805 21.8795 38.6542 21.8154C38.5034 21.7513 38.3422 21.7206 38.1732 21.7206H36.049V20.3129Z" fill="url(#paint2_linear_426_728)"/>
<path d="M44.4912 23.5257H46.163L45.2114 25.077V29.3718H43.784V25.077L40.9422 20.3846H42.601L44.4912 23.5026V23.5257ZM47.0418 22.0949H45.37L46.4204 20.3872H48.0922L47.0418 22.0949Z" fill="url(#paint3_linear_426_728)"/>
<path d="M53.1441 24.1513C53.5107 24.1513 53.8539 24.2206 54.1763 24.3565C54.4987 24.4924 54.7769 24.6795 55.0187 24.918C55.2579 25.1565 55.4477 25.4334 55.5855 25.7513C55.7233 26.0693 55.7935 26.4077 55.7935 26.7693C55.7935 27.1308 55.7233 27.4718 55.5855 27.7898C55.4477 28.1077 55.2579 28.3872 55.0161 28.6282C54.7769 28.8693 54.4935 29.059 54.1737 29.1949C53.8513 29.3308 53.5081 29.4 53.1415 29.4H50.9653C50.5987 29.4 50.2555 29.3308 49.9331 29.1949C49.6107 29.059 49.3299 28.8693 49.0907 28.6282C48.8515 28.3872 48.6617 28.1077 48.5213 27.7924C48.3835 27.4744 48.3133 27.1359 48.3133 26.7744H49.7407C49.7407 26.9411 49.7719 27.0975 49.8369 27.2462C49.9019 27.3924 49.9903 27.5231 50.1047 27.6334C50.2191 27.7436 50.3491 27.8308 50.4947 27.8949C50.6403 27.959 50.7989 27.9898 50.9705 27.9898H53.1363C53.3053 27.9898 53.4639 27.959 53.6121 27.8949C53.7577 27.8308 53.8877 27.7436 54.0021 27.6308C54.1165 27.518 54.2049 27.3898 54.2699 27.2411C54.3349 27.0924 54.3661 26.9359 54.3661 26.7693C54.3661 26.6026 54.3323 26.4436 54.2673 26.2975C54.2023 26.1488 54.1139 26.0231 53.9995 25.9154C53.8851 25.8077 53.7551 25.7231 53.6095 25.659C53.4639 25.5949 53.3053 25.5641 53.1337 25.5641L50.9627 25.5513C50.6039 25.5513 50.2659 25.4821 49.9435 25.3462C49.6211 25.2103 49.3429 25.0257 49.1089 24.7924C48.8723 24.559 48.6825 24.2872 48.5421 23.9744C48.3991 23.6616 48.3237 23.3283 48.3159 22.977H49.7433C49.7511 23.1359 49.7875 23.2872 49.8525 23.4308C49.9175 23.5744 50.0059 23.6975 50.1203 23.8052C50.2347 23.9129 50.3647 23.9949 50.5103 24.0565C50.6559 24.1154 50.8119 24.1462 50.9731 24.1462L53.1441 24.1513ZM50.7885 20.3129H52.9127C53.2793 20.3129 53.6225 20.3821 53.9449 20.518C54.2673 20.6539 54.5507 20.8411 54.7977 21.077C55.0447 21.3129 55.2371 21.5898 55.3749 21.9077C55.5153 22.2257 55.5855 22.5641 55.5855 22.9257H54.1581C54.1581 22.759 54.1243 22.6026 54.0593 22.4539C53.9943 22.3077 53.9059 22.1795 53.7915 22.0718C53.6771 21.9641 53.5445 21.8795 53.3937 21.8154C53.2429 21.7513 53.0817 21.7206 52.9127 21.7206H50.7885V20.3129Z" fill="url(#paint4_linear_426_728)"/>
<path d="M60.6112 23.5257H60.6242V29.3872H59.1968V21.7949H56.3654V20.3872H60.6112V23.5257ZM61.8904 20.3846H63.453V21.7949H61.8904V20.3846Z" fill="url(#paint5_linear_426_728)"/>
<path d="M65.1612 20.4231H71.0658V21.8077H66.5626V23.7923H65.1586V20.4231H65.1612ZM66.5652 25.2103V28.0026H71.0684V29.3872H65.1638V25.2128H66.5652V25.2103ZM70.4808 23.8282V25.2128H68.029V23.8282H70.4808Z" fill="white"/>
<path d="M72.2514 23.2487H73.6788V29.3744H72.2514V23.2487ZM81.1096 20.3846H81.8298V29.3744H80.4024V23.0693L77.0354 26.3667L73.7048 23.0949V21.0975L77.0354 24.3821L81.1096 20.3846Z" fill="white"/>
<path d="M87.7604 24.1513C88.127 24.1513 88.4702 24.2206 88.7926 24.3565C89.115 24.4924 89.3932 24.6795 89.635 24.918C89.8742 25.1565 90.064 25.4334 90.2018 25.7513C90.3396 26.0693 90.4098 26.4077 90.4098 26.7693C90.4098 27.1308 90.3396 27.4718 90.2018 27.7898C90.064 28.1077 89.8742 28.3872 89.6324 28.6282C89.3932 28.8693 89.1098 29.059 88.79 29.1949C88.4676 29.3308 88.1244 29.4 87.7578 29.4H85.5816C85.215 29.4 84.8718 29.3308 84.5494 29.1949C84.227 29.059 83.9462 28.8693 83.707 28.6282C83.4678 28.3872 83.278 28.1077 83.1376 27.7924C82.9998 27.4744 82.9296 27.1359 82.9296 26.7744H84.357C84.357 26.9411 84.3882 27.0975 84.4532 27.2462C84.5182 27.3924 84.6066 27.5231 84.721 27.6334C84.8354 27.7436 84.9654 27.8308 85.111 27.8949C85.2566 27.959 85.4152 27.9898 85.5868 27.9898H87.7526C87.9216 27.9898 88.0802 27.959 88.2284 27.8949C88.374 27.8308 88.504 27.7436 88.6184 27.6308C88.7328 27.518 88.8212 27.3898 88.8862 27.2411C88.9512 27.0924 88.9824 26.9359 88.9824 26.7693C88.9824 26.6026 88.9486 26.4436 88.8836 26.2975C88.8186 26.1488 88.7302 26.0231 88.6158 25.9154C88.5014 25.8077 88.3714 25.7231 88.2258 25.659C88.0802 25.5949 87.9216 25.5641 87.75 25.5641L85.579 25.5513C85.2202 25.5513 84.8822 25.4821 84.5598 25.3462C84.2374 25.2103 83.9592 25.0257 83.7252 24.7924C83.4886 24.559 83.2988 24.2872 83.1584 23.9744C83.0154 23.6616 82.94 23.3283 82.9322 22.977H84.3596C84.3674 23.1359 84.4038 23.2872 84.4688 23.4308C84.5338 23.5744 84.6222 23.6975 84.7366 23.8052C84.851 23.9129 84.981 23.9949 85.1266 24.0565C85.2722 24.1154 85.4282 24.1462 85.5894 24.1462L87.7604 24.1513ZM85.4048 20.3129H87.529C87.8956 20.3129 88.2388 20.3821 88.5612 20.518C88.8836 20.6539 89.167 20.8411 89.414 21.077C89.661 21.3129 89.8534 21.5898 89.9912 21.9077C90.1316 22.2257 90.2018 22.5641 90.2018 22.9257H88.7744C88.7744 22.759 88.7406 22.6026 88.6756 22.4539C88.6106 22.3077 88.5222 22.1795 88.4078 22.0718C88.2934 21.9641 88.1608 21.8795 88.01 21.8154C87.8592 21.7513 87.698 21.7206 87.529 21.7206H85.4048V20.3129Z" fill="white"/>
<path d="M30.6306 16.5385C30.602 16.2795 30.5604 16.018 30.5032 15.7488C30.4746 15.6154 30.4434 15.4795 30.407 15.3436C30.3914 15.2847 30.3602 15.2411 30.3186 15.2103C30.2978 15.1949 30.2744 15.1847 30.251 15.177C30.1392 15.1411 30.004 15.1847 29.952 15.3077C29.9494 15.3154 29.9416 15.3231 29.939 15.3334C29.8584 15.5949 29.7856 15.8462 29.7076 16.0847C29.6322 16.3231 29.5516 16.5488 29.4554 16.7642C29.3904 16.9078 29.3202 17.0488 29.237 17.1847C29.2162 17.2206 29.1928 17.2539 29.172 17.2898C29.0784 17.4411 28.9848 17.5898 28.8834 17.736C28.8626 17.7667 28.8392 17.7898 28.8106 17.8052C28.7846 17.8231 28.756 17.8334 28.7274 17.8385C28.5844 17.8642 28.4284 17.7513 28.4336 17.6001C28.4336 17.5693 28.4414 17.536 28.457 17.5052C28.6104 17.1795 28.743 16.8513 28.8548 16.5231C28.899 16.3898 28.9406 16.2565 28.9796 16.1257C29.0992 15.7129 29.1902 15.3001 29.25 14.8898C29.2812 14.6744 29.3046 14.459 29.3202 14.2436C29.3514 13.8154 29.354 13.3949 29.328 12.9821C29.3228 12.8795 29.3124 12.777 29.3046 12.6744C29.2864 12.4719 29.2604 12.2693 29.2266 12.0719C29.0992 11.2795 28.873 10.536 28.574 9.86672C28.5376 9.78211 28.4986 9.70006 28.4596 9.62057C28.223 9.13339 27.95 8.6898 27.6484 8.30262C27.5418 8.16673 27.3494 8.19236 27.261 8.30775C27.2324 8.34621 27.2142 8.39493 27.2142 8.4539C27.2142 8.64108 27.2168 8.82826 27.2168 9.01288C27.2194 9.38211 27.2194 9.74365 27.2168 10.1052C27.2142 10.2847 27.2116 10.4642 27.2064 10.6436C27.1934 11.0539 27.1596 11.4616 27.079 11.8821C27.0582 11.9872 26.988 12.0462 26.9074 12.0667C26.8814 12.0744 26.8528 12.077 26.8242 12.0744C26.7124 12.0667 26.6058 11.9898 26.598 11.8488C26.4966 9.80262 25.6282 8.00775 24.4166 6.57955C24.1306 6.24365 23.8264 5.92826 23.5092 5.63339C23.3506 5.48724 23.1868 5.34365 23.023 5.20775C22.9398 5.13852 22.8566 5.07185 22.7734 5.00775C22.308 4.64621 21.8218 4.32826 21.333 4.05647C21.1198 3.93852 20.904 3.82826 20.6908 3.72826C20.67 3.71801 20.6492 3.71544 20.6284 3.71031C20.6206 3.70775 20.6128 3.70519 20.605 3.70262C20.5764 3.70006 20.5504 3.70262 20.5244 3.71031C20.4984 3.71801 20.475 3.72826 20.4542 3.74365C20.4256 3.76416 20.4048 3.79237 20.3866 3.82057C20.3658 3.85647 20.3502 3.90006 20.3502 3.94365C20.3502 3.96929 20.3554 3.99749 20.3658 4.0257C20.3762 4.05134 20.3918 4.07954 20.4126 4.10262L20.4152 4.10519L20.4178 4.10775C20.5608 4.27954 20.6934 4.45134 20.8234 4.62826C21.8842 6.06416 22.5212 7.65647 22.4094 9.50519C22.4042 9.60006 22.4016 9.70262 22.3938 9.80262C22.386 9.90262 22.373 10.0052 22.3496 10.1001C22.3366 10.1488 22.321 10.1949 22.3028 10.2411C22.2638 10.3308 22.2066 10.4154 22.126 10.4872C22.0844 10.5231 22.0402 10.5565 21.9856 10.5847C21.8686 10.6488 21.6892 10.6872 21.4708 10.7077C21.3252 10.7206 21.1614 10.7231 20.9898 10.718C20.7298 10.7103 20.449 10.6847 20.1708 10.6462C19.89 10.6052 19.6144 10.5513 19.3622 10.4847C19.2166 10.4462 19.0814 10.4026 18.9592 10.3565C18.9176 10.3411 18.8812 10.3257 18.8422 10.3103C18.6654 10.236 18.5224 10.1565 18.434 10.0693C17.9426 9.58467 17.8204 9.01544 18.057 8.43852C18.0908 8.35647 18.1324 8.27185 18.1818 8.1898C18.3482 7.90262 18.5666 7.70262 18.824 7.60262C18.954 7.55134 19.0944 7.5257 19.2426 7.5257C19.318 7.5257 19.3934 7.53339 19.474 7.54621C19.5546 7.55903 19.6352 7.57954 19.7184 7.60775C19.851 7.65134 19.9706 7.81031 20.1032 7.84878C20.1292 7.85647 20.1552 7.85903 20.1838 7.8539C20.2384 7.84365 20.2956 7.80775 20.3554 7.72826C20.5322 7.49749 20.4958 7.18211 20.3866 6.91544C20.332 6.77954 20.2592 6.66416 20.176 6.56159C20.0928 6.45903 19.9966 6.37185 19.89 6.30006C19.6794 6.1539 19.4272 6.05647 19.1516 5.99493C18.8162 5.918 18.4678 5.91544 18.1636 5.70775C18.0752 5.64621 17.9842 5.59236 17.8932 5.54621C17.8542 5.5257 17.8126 5.51031 17.771 5.4898C17.719 5.46672 17.6696 5.44108 17.6176 5.42057C17.563 5.40006 17.5058 5.38467 17.4486 5.36672C17.4096 5.35647 17.3732 5.34108 17.3342 5.33083C17.2666 5.31288 17.199 5.30262 17.1314 5.2898C17.1028 5.28467 17.0768 5.27698 17.0482 5.27442C16.9728 5.26416 16.8948 5.25647 16.8168 5.25134C16.7986 5.24878 16.7778 5.24621 16.7596 5.24621C16.6738 5.24108 16.588 5.24108 16.5022 5.24365C16.4918 5.24365 16.4788 5.24365 16.4684 5.24365C16.3748 5.24621 16.2812 5.2539 16.1876 5.26416C16.1824 5.26416 16.1772 5.26416 16.1746 5.26416C16.0498 5.27698 15.925 5.29493 15.7976 5.31801C13.9048 5.67185 12.7712 7.01288 11.6922 8.41544C11.6636 8.45391 11.6454 8.50006 11.6324 8.54877C11.6038 8.65647 11.6558 8.76929 11.7572 8.82313C11.8248 8.85903 11.8586 8.90006 11.8716 8.94108C11.921 9.10006 11.7078 9.34877 11.6688 9.39493C11.5466 9.53339 11.401 9.96929 11.1098 10.8436C10.6626 12.1924 10.699 13.6488 10.7146 13.6488C10.7172 13.6488 10.7224 13.6001 10.7354 13.518C10.7172 13.9565 10.7354 14.3924 10.803 14.8257C10.4234 14.259 10.0698 13.6744 9.7604 13.059C8.2628 10.0719 8.4526 7.22313 10.5638 4.5616C10.6314 4.47442 10.7016 4.3898 10.7692 4.30262C10.933 4.09493 10.686 3.81544 10.4546 3.94621C7.293 5.74621 4.9634 8.10006 4.7502 11.8667C4.7346 12.1436 4.3316 12.1795 4.2718 11.9078C4.1678 11.4436 4.134 10.9719 4.1158 10.5026C4.0924 9.85903 4.1002 9.21288 4.1054 8.48724C4.108 8.24365 3.7856 8.1539 3.6556 8.35903C1.9474 11.0283 1.3754 14.1949 2.9406 17.5642C3.0628 17.8257 2.6988 18.036 2.5246 17.8052C2.4076 17.6513 2.2932 17.4949 2.1814 17.3385C1.7992 16.8154 1.6536 16.1847 1.4144 15.5026C1.3364 15.2795 1.0114 15.2949 0.949002 15.5206C0.364002 17.6154 0.798202 19.4436 2.0826 21.0719C3.666 23.0821 5.6914 24.2026 8.0548 24.5616C8.3486 24.6052 8.4526 24.1949 8.1744 24.0975C5.2 23.0565 3.172 21.5949 2.4518 19.9411C2.3478 19.7052 2.6468 19.4949 2.8392 19.6693C4.7476 21.3924 6.9238 22.5052 9.0116 22.7847C9.2742 22.8206 9.3912 22.4719 9.1624 22.3411C7.3996 21.3257 5.9306 20.118 4.8048 18.5206C3.7232 16.9872 3.1122 15.3283 3.0134 13.7385C2.9978 13.4667 3.3852 13.3872 3.484 13.6411C4.563 16.4719 7.0044 19.0436 9.1702 20.459C9.3964 20.6077 9.6616 20.336 9.503 20.1206C7.1032 16.8642 5.6108 13.4539 6.7574 9.57442C6.838 9.30006 7.2488 9.37442 7.2332 9.65903C7.111 11.8565 7.8208 13.9206 9.0662 15.9001C10.3064 17.8667 11.8274 19.6154 13.4108 21.3154C13.8112 21.7437 14.0452 22.0001 14.1232 22.2206C14.1258 22.2283 14.131 22.2334 14.1362 22.2411C13.1898 22.9924 12.5762 23.7078 12.5762 23.7078C12.4878 23.7949 12.402 23.8847 12.3136 23.9795C12.1342 24.1744 11.9704 24.3667 11.8274 24.5539C11.9158 24.4898 12.0614 24.3821 12.246 24.2513C13.2444 23.5385 14.43 22.7103 15.8834 22.1206C15.9016 22.1129 15.9224 22.1052 15.9406 22.0975C16.016 22.0667 16.0888 22.0334 16.1668 22.0052C16.3176 21.9488 16.4398 21.9078 16.5386 21.877C16.6634 21.8385 16.757 21.8129 16.8324 21.7975C16.8766 21.7872 16.9156 21.7821 16.952 21.7744C16.783 21.9154 16.6062 22.0488 16.4294 22.1795C16.4294 22.1795 16.4268 22.1795 16.4268 22.1821C16.2474 22.3103 16.0654 22.436 15.8834 22.559V22.5616C15.6728 22.7026 15.4596 22.8411 15.2464 22.977C13.9958 23.7744 12.792 24.6206 11.8404 25.7744C11.1566 26.6052 10.5768 27.477 10.3402 28.5488C10.1842 29.2513 10.2388 29.9334 10.4442 30.6001C10.7614 31.6308 11.401 32.4719 12.1342 33.2488C12.6386 33.7821 13.0624 34.1283 13.6136 34.5719C14.1076 34.9667 14.6094 35.3078 15.6182 35.9872C15.7378 36.0693 16.0446 36.2744 16.471 36.5026C16.835 36.6975 17.3498 36.9411 17.3758 36.8975C17.407 36.8436 16.5568 36.4539 15.6962 35.6001C15.2464 35.1539 15.0202 34.9283 14.9396 34.8334C14.8668 34.7462 14.6718 34.5052 14.3494 34.2539C14.2948 34.2129 14.2922 34.2257 14.2454 34.1744C13.9568 33.859 13.676 33.536 13.4186 33.1924C13.2366 32.9462 13.3354 32.6949 13.6292 32.6078C13.7618 32.5693 13.8944 32.5539 14.0322 32.5462C14.5704 32.5154 15.0956 32.4026 15.6156 32.2719C15.7066 32.2488 15.7846 32.1898 15.769 32.1026C15.7352 31.9334 15.717 31.7642 15.6962 31.5949C15.6884 31.5231 15.6182 31.5103 15.5532 31.5257C15.0462 31.6513 14.5288 31.7154 14.0088 31.7488C13.2834 31.7975 12.571 31.7616 11.8924 31.477C11.4062 31.2744 11.2684 30.8052 11.5674 30.3719C11.8118 30.018 12.1628 29.7795 12.532 29.5719C13.247 29.1719 14.0114 28.8975 14.8122 28.7052C15.106 28.6334 15.4128 28.618 15.6988 28.5154C15.951 28.4231 15.834 28.2103 15.8522 28.0513C15.8678 27.9077 15.7118 27.9539 15.6234 27.9513C15.0956 27.9334 14.5678 27.9693 14.0374 27.8795C13.6032 27.8052 13.1716 27.7513 12.7686 27.5693C12.5372 27.4667 12.2902 27.359 12.259 27.077C12.2278 26.7949 12.4644 26.6539 12.6672 26.5308C13.1872 26.2078 13.7774 26.0616 14.3728 25.9488C14.833 25.8616 15.2958 25.7847 15.769 25.7872C15.9042 25.7872 16.042 25.7693 16.1772 25.7513C16.38 25.7257 16.3488 25.5488 16.3826 25.4206C16.406 25.3334 16.3592 25.2795 16.2682 25.259C16.1122 25.2283 15.9562 25.1975 15.8054 25.159C15.4544 25.0693 15.0982 24.9795 14.82 24.7308C14.573 24.5103 14.6042 24.3078 14.8954 24.1539C15.1606 24.0129 15.4466 23.9411 15.743 23.9257C15.7924 23.9231 15.8392 23.9231 15.8886 23.9231C16.1512 23.9154 16.4138 23.918 16.6764 23.9206C16.7856 23.9206 16.8428 23.8847 16.8766 23.8308C16.8974 23.7975 16.9078 23.759 16.9156 23.718C16.9312 23.6462 16.939 23.5693 16.9754 23.5129C17.017 23.4462 17.0014 23.4052 16.9676 23.3744C16.9338 23.3436 16.8792 23.3257 16.8428 23.3026C16.8064 23.2821 16.7726 23.2616 16.7362 23.2411C16.6634 23.2001 16.5932 23.159 16.5334 23.1026C16.5022 23.0744 16.4762 23.0436 16.4502 23.0077C16.4138 22.9539 16.3982 22.9001 16.4008 22.8565C16.406 22.7821 16.4684 22.7283 16.575 22.7154C16.64 22.7078 16.705 22.7052 16.7674 22.7026C16.8922 22.7026 17.0144 22.7154 17.1314 22.7436C17.4226 22.8103 17.6904 22.9565 17.9348 23.1616C17.9868 23.2026 18.0154 23.259 18.018 23.3206C18.018 23.3411 18.018 23.3616 18.0128 23.3847C17.9972 23.4616 17.9452 23.4847 17.8854 23.5026C17.8646 23.5078 17.8438 23.5129 17.823 23.5154C17.7242 23.5385 17.628 23.5283 17.5292 23.5154C17.4642 23.5078 17.4096 23.5052 17.3654 23.5103C17.2302 23.5257 17.1756 23.6103 17.1392 23.8257C17.134 23.8539 17.134 23.877 17.134 23.8975C17.1366 23.918 17.1418 23.9334 17.1496 23.9462C17.1652 23.9719 17.1912 23.9847 17.2224 23.9924C17.2822 24.0078 17.3628 24.0001 17.4174 24.0231C17.446 24.036 17.4798 24.0411 17.5136 24.0462C17.5422 24.0513 17.5682 24.0539 17.5942 24.0616C17.9452 24.1744 18.3144 24.2513 18.5874 24.5257C18.6758 24.6129 18.7148 24.6975 18.7096 24.7795C18.707 24.8001 18.7044 24.8206 18.6966 24.8411C18.6758 24.9026 18.6264 24.9616 18.5536 25.018C18.5068 25.0539 18.46 25.0821 18.408 25.1078C18.3066 25.1565 18.1974 25.1898 18.0882 25.2154C18.0336 25.2283 17.979 25.2411 17.9244 25.2539C17.6618 25.3129 17.394 25.3129 17.1288 25.3078C17.0378 25.3052 16.9494 25.3026 16.8584 25.3026C16.7674 25.3001 16.7102 25.3283 16.6764 25.3693C16.6712 25.3744 16.6686 25.3795 16.666 25.3847C16.6556 25.3975 16.6478 25.4129 16.6426 25.4283C16.6296 25.4565 16.6218 25.4898 16.6166 25.5206C16.614 25.5385 16.6114 25.5565 16.6088 25.577C16.6062 25.5949 16.6036 25.6129 16.601 25.6283C16.5984 25.6462 16.5984 25.6642 16.5984 25.677V25.6795C16.6062 25.736 16.653 25.7513 16.7076 25.7565C16.7492 25.759 16.7934 25.7565 16.8298 25.759C17.3342 25.8001 17.8438 25.8231 18.3378 25.9513C18.4158 25.9719 18.4938 25.9924 18.5718 26.0154C18.6498 26.0385 18.7252 26.0642 18.8006 26.0949C18.9514 26.1539 19.0944 26.2283 19.2244 26.3334C19.2504 26.3539 19.2738 26.377 19.2946 26.4001C19.4402 26.5616 19.4402 26.759 19.2868 26.9385C19.253 26.977 19.2166 27.0154 19.1776 27.0513C19.1386 27.0872 19.097 27.118 19.0528 27.1462C18.8786 27.2565 18.6966 27.3488 18.5068 27.4257C18.434 27.4565 18.3612 27.4847 18.2884 27.5103C18.1298 27.5667 17.966 27.6129 17.7996 27.6513C17.7684 27.659 17.7398 27.6667 17.7112 27.6744C17.6046 27.6975 17.498 27.7206 17.3914 27.7436C17.0716 27.8129 16.7466 27.8693 16.4138 27.8719C16.3306 27.8719 16.2682 27.8924 16.2214 27.9334C16.2058 27.9462 16.1928 27.9616 16.1798 27.9795C16.1564 28.0154 16.1382 28.0565 16.1278 28.1103C16.1174 28.1616 16.1122 28.2206 16.1148 28.2898C16.1174 28.359 16.1356 28.4001 16.1616 28.4257C16.2214 28.4821 16.328 28.4513 16.4138 28.4539C16.7388 28.459 17.0664 28.459 17.3914 28.4539C17.4902 28.4513 17.589 28.4565 17.6878 28.4642C17.7866 28.4719 17.8828 28.4847 17.979 28.5001C18.1714 28.5334 18.3612 28.5821 18.5484 28.6462C18.9644 28.7872 19.1932 29.0411 19.1932 29.3462C19.1932 29.3975 19.188 29.4488 19.175 29.5026C19.162 29.5565 19.1438 29.6103 19.1178 29.6667C19.0372 29.8411 18.9202 29.9924 18.7772 30.1231C18.7304 30.1667 18.681 30.2078 18.629 30.2462C18.3586 30.4488 18.0726 30.6231 17.7788 30.7744C17.5812 30.8744 17.381 30.9667 17.1756 31.0488C17.0716 31.0898 16.9676 31.1283 16.8636 31.1667C16.653 31.2411 16.4398 31.3078 16.224 31.3667C16.1772 31.3795 16.1382 31.3949 16.1044 31.4154C16.0706 31.436 16.042 31.4565 16.0212 31.4847C15.9796 31.5385 15.964 31.6103 15.977 31.7052C15.977 31.7052 15.977 31.7052 15.977 31.7078C15.977 31.7129 15.9796 31.718 15.9796 31.7231C15.99 31.8001 16.0056 31.8744 16.0082 31.9513C16.0108 32.0411 16.0342 32.0949 16.0784 32.118C16.0992 32.1308 16.1252 32.136 16.1564 32.1334C16.1876 32.1308 16.224 32.1231 16.263 32.1103C16.5308 32.0206 16.7986 31.9283 17.0638 31.8283C17.2354 31.7642 17.407 31.6949 17.5786 31.6206C17.6696 31.5821 17.7606 31.5436 17.849 31.5026C17.8646 31.4949 17.8828 31.4847 17.8984 31.4744C17.966 31.4334 18.0362 31.3744 18.109 31.3539C18.1272 31.3488 18.1454 31.3462 18.1636 31.3462C18.1922 31.3462 18.2234 31.3565 18.2546 31.377C18.2624 31.3821 18.2702 31.3847 18.278 31.3898C18.3066 31.4129 18.3248 31.4411 18.3378 31.4719C18.3482 31.4949 18.356 31.5206 18.3586 31.5462C18.3612 31.5847 18.3586 31.6257 18.3534 31.6693C18.343 31.7334 18.33 31.7975 18.3222 31.859C18.3222 31.8667 18.3196 31.8744 18.317 31.8795C18.2364 32.218 18.1324 32.5462 18.0128 32.8667C17.9322 33.0821 17.8438 33.2924 17.7502 33.5026C17.6098 33.8154 17.4564 34.1257 17.2952 34.4308C17.1964 34.6206 17.0924 34.8154 16.991 35.0103C16.9468 35.0949 16.9026 35.1795 16.8558 35.2667C16.887 35.2667 16.913 35.2642 16.9364 35.2565C17.0014 35.2334 17.0248 35.1795 17.0534 35.136C17.3706 34.6847 17.68 34.2283 17.979 33.7667C18.4756 32.9949 18.9358 32.2026 19.3284 31.3693C19.4974 31.0103 19.6534 30.6462 19.7912 30.277C19.929 29.9078 20.0486 29.5308 20.1422 29.1488C20.2046 28.8949 20.2566 28.636 20.2956 28.3744C20.3502 28.0026 20.3788 27.6283 20.3736 27.2513C20.371 27.1488 20.3684 27.0488 20.3606 26.9462C20.3424 26.6719 20.3034 26.3975 20.241 26.1231C20.1604 25.7616 20.0486 25.4154 19.9108 25.0795C19.89 25.0257 19.8666 24.9719 19.8432 24.9206C19.6976 24.5924 19.5234 24.277 19.3206 23.9719C19.0996 23.6385 18.8552 23.3257 18.5952 23.0257C18.3352 22.7257 18.057 22.4411 17.7658 22.1667C17.7424 22.1436 17.6462 22.0872 17.641 22.0231C17.641 22.018 17.6384 22.0154 17.6384 22.0103C17.6384 22.0052 17.641 22.0001 17.6436 21.9949C17.6462 21.9872 17.6514 21.9795 17.6618 21.9719C17.68 21.9539 17.7112 21.9308 17.771 21.8975C17.81 21.8744 17.862 21.8488 17.927 21.8154C17.9478 21.8052 17.966 21.7975 17.9816 21.7898C18.0154 21.7744 18.0414 21.7616 18.0596 21.7539C18.0674 21.7513 18.0726 21.7488 18.0752 21.7462C18.1194 21.7257 18.1558 21.7001 18.1896 21.6667C18.1922 21.6642 18.1948 21.659 18.2 21.6539C18.2312 21.6231 18.2572 21.5898 18.2832 21.5488C18.4756 21.3667 18.6628 21.177 18.8448 20.9847C19.2062 20.5975 19.5468 20.1898 19.8692 19.7693C20.0304 19.559 20.189 19.3462 20.345 19.1308C20.9872 18.2462 21.5852 17.3462 22.1026 16.4154C22.2066 16.2283 22.3054 16.0411 22.4016 15.8539C23.3662 13.9667 23.972 11.9462 23.8966 9.67442C23.8914 9.54365 23.881 9.41544 23.8654 9.2898C23.8472 9.14108 23.8264 8.99493 23.803 8.84877C23.7978 8.81288 23.7978 8.77955 23.8056 8.75134C23.8134 8.72057 23.8264 8.69493 23.842 8.67185C23.8914 8.60262 23.9798 8.56672 24.063 8.57185C24.0916 8.57441 24.1202 8.57954 24.1462 8.59236C24.1722 8.60518 24.1956 8.62057 24.219 8.64365C24.2398 8.66673 24.258 8.69493 24.271 8.72826C24.583 9.51544 24.7832 10.2872 24.8846 11.0385C24.9704 11.6667 24.9886 12.2821 24.947 12.8872C24.9132 13.3719 24.843 13.8513 24.739 14.3231C24.687 14.559 24.6272 14.7949 24.5596 15.0283C24.0474 16.7821 23.0958 18.4616 21.9284 20.1052C21.8504 20.2154 21.879 20.3385 21.957 20.4129C22.0324 20.4898 22.1572 20.518 22.269 20.4411C22.425 20.3308 22.5784 20.2206 22.7318 20.1077C23.1868 19.7667 23.621 19.4078 24.0396 19.0308C24.596 18.5257 25.1186 17.9898 25.6152 17.4206C25.883 17.1129 26.1352 16.7949 26.3718 16.4693C26.5278 16.2565 26.6786 16.0411 26.819 15.8206C26.9984 15.5411 27.1648 15.2565 27.3208 14.9667C27.4222 14.777 27.5184 14.5821 27.6094 14.3847C27.6588 14.2821 27.7056 14.1795 27.7524 14.0744C27.794 13.9795 27.8746 13.9334 27.9578 13.9308C27.9864 13.9283 28.0124 13.9334 28.041 13.9411C28.067 13.9488 28.093 13.959 28.1164 13.9744C28.1866 14.0206 28.2308 14.1001 28.2178 14.2026C28.0592 15.336 27.7342 16.3616 27.2662 17.2949C27.1726 17.4821 27.0738 17.6642 26.9698 17.8436C26.7618 18.2026 26.5304 18.5462 26.2782 18.8795C25.7764 19.5436 25.1914 20.1539 24.5388 20.7206C23.8862 21.2872 23.166 21.8103 22.3886 22.3001C22.3028 22.3539 22.269 22.436 22.2742 22.5154C22.2794 22.5949 22.3236 22.6719 22.3938 22.7129C22.4406 22.7411 22.4978 22.7513 22.5654 22.7385C22.7942 22.6924 23.0204 22.6411 23.244 22.5872C23.3064 22.5719 23.3714 22.5565 23.4338 22.5411C23.998 22.3975 24.5492 22.2283 25.0796 22.0231C25.233 21.9642 25.3838 21.9026 25.532 21.8385C25.649 21.7872 25.766 21.736 25.8804 21.6795C26.1092 21.5693 26.3354 21.4539 26.559 21.3283C27.1128 21.0129 27.6432 20.6462 28.1398 20.2129C28.1658 20.1898 28.1944 20.1744 28.223 20.1642C28.2516 20.1539 28.2802 20.1513 28.3088 20.1513C28.353 20.1539 28.3946 20.1719 28.4336 20.1949C28.4414 20.2001 28.4518 20.2052 28.4596 20.2103C28.5012 20.2462 28.5324 20.2949 28.5428 20.3488C28.548 20.377 28.548 20.4052 28.5428 20.4334C28.5376 20.4616 28.5246 20.4924 28.5064 20.5206C28.4232 20.6462 28.3348 20.7693 28.2438 20.8898C27.6016 21.7231 26.7592 22.3795 25.8284 22.9539C25.3682 23.2385 24.895 23.4821 24.4088 23.6949C24.1644 23.8001 23.9174 23.8975 23.6678 23.9872C23.4182 24.077 23.166 24.1565 22.9086 24.2308C22.62 24.3129 22.711 24.7411 23.0074 24.6975C23.725 24.5949 24.4738 24.3847 25.207 24.0898C26.234 23.677 27.2324 23.0949 28.0722 22.4001C28.3114 22.2026 28.5376 21.9949 28.7482 21.7795C28.7586 21.7693 28.7664 21.759 28.7768 21.7488C28.977 21.5411 29.1616 21.3283 29.3306 21.1103C30.3758 19.7103 30.81 18.218 30.6306 16.5385ZM19.2816 15.4283C19.227 15.5949 19.136 15.7539 19.045 15.9103C18.746 16.4283 18.3638 16.9026 17.914 17.3334C17.8386 17.4052 17.7606 17.4744 17.6826 17.5436C17.6046 17.6129 17.5214 17.6821 17.4382 17.7488C17.2458 17.9052 17.2068 18.0667 17.2718 18.2693C17.303 18.3693 17.3264 18.4334 17.3602 18.4642C17.381 18.4847 17.407 18.4898 17.4382 18.4847C17.4538 18.4821 17.472 18.4744 17.4928 18.4642C17.5344 18.4436 17.5864 18.4129 17.6514 18.3693C17.8542 18.236 18.057 18.1026 18.278 17.9924C18.3508 17.9565 18.4262 17.9231 18.5042 17.8924C18.1298 18.4975 17.7086 19.0744 17.1834 19.577C17.1132 19.677 17.0456 19.7693 16.9806 19.8565C16.978 19.859 16.9754 19.8642 16.9728 19.8667C16.9078 19.9539 16.848 20.0334 16.7882 20.1052C16.4346 20.5411 16.1824 20.6949 15.8782 20.5898V20.5924C15.834 20.577 15.7898 20.5565 15.743 20.5308C15.7456 20.477 15.7664 20.4206 15.7898 20.359C15.8158 20.2924 15.8444 20.2283 15.8756 20.1642V20.1821C16.0836 19.759 16.4086 19.3949 16.7882 19.0667C16.8298 19.0308 16.8636 18.9949 16.8948 18.959C17.0222 18.8078 17.0534 18.6513 16.9858 18.4539C16.9702 18.4052 16.952 18.3693 16.9312 18.3411C16.9156 18.3206 16.8974 18.3077 16.8766 18.2975C16.861 18.2924 16.8428 18.2872 16.8246 18.2898C16.809 18.2924 16.7934 18.2949 16.7778 18.3026C16.7596 18.3078 16.744 18.318 16.7232 18.3283C16.705 18.3385 16.6842 18.3513 16.6608 18.3667C16.601 18.4078 16.5412 18.4462 16.4814 18.4872C16.4216 18.5283 16.3618 18.5667 16.2994 18.6052C16.1772 18.6821 16.0524 18.7565 15.9198 18.8206C15.912 18.8231 15.9042 18.8283 15.8964 18.8308C15.8886 18.8334 15.8808 18.8385 15.873 18.8411C15.4258 19.059 14.989 19.3077 14.4248 19.2693C14.1596 19.2513 14.0088 19.1462 13.9906 18.9308C13.9724 18.7231 13.988 18.518 14.0764 18.3129C14.3806 17.5872 14.9292 16.9924 15.5246 16.4206C15.678 16.2744 15.8496 16.1436 16.0056 16.0001C16.133 15.8847 16.1252 15.5488 15.9822 15.4693C15.7768 15.359 15.717 15.5513 15.6078 15.6231C15.4752 15.7103 15.366 15.818 15.2464 15.918C14.7108 16.3616 14.1154 16.7411 13.39 16.9462C12.6438 17.159 12.0484 16.9565 12.0822 16.218C12.103 15.759 12.298 15.3308 12.5372 14.9206C13.0052 14.118 13.6266 13.4078 14.3988 12.7821C14.4924 12.7052 14.5834 12.6283 14.5132 12.5103C14.4326 12.377 14.3468 12.2488 14.2558 12.1206C14.1518 11.9693 14.0348 11.9744 13.8684 12.077C13.4576 12.3283 13.1118 12.636 12.7478 12.9283C12.6282 13.0257 12.5086 13.1616 12.3188 13.0975C12.2278 13.0667 12.1732 13.0129 12.1368 12.9488C12.1264 12.7539 12.1212 12.5719 12.116 12.4077C12.0822 11.1872 12.1706 10.9001 12.2694 10.6898C12.467 10.2667 12.7738 10.0129 12.8986 9.92057C13.598 9.39237 14.6042 9.35134 15.3868 9.71544C15.574 9.80262 15.7352 9.90775 15.8756 10.0231V10.0308C15.9172 10.0642 15.964 10.0975 16.003 10.1334C16.1304 10.277 16.2604 10.418 16.3774 10.5667C16.38 10.5693 16.3826 10.5744 16.3852 10.577C16.393 10.5872 16.3982 10.5949 16.4034 10.6052C16.4242 10.636 16.4424 10.6642 16.4606 10.6924C16.4736 10.718 16.484 10.7411 16.4918 10.7616C16.5438 10.918 16.4476 11.018 16.1824 11.1129C16.081 11.1488 15.9796 11.1821 15.8782 11.2129C15.574 11.3052 15.2646 11.3872 14.9812 11.5206C14.4274 11.7795 14.3312 11.6411 14.742 12.2308C14.8486 12.3847 14.9526 12.377 15.093 12.2821C15.34 12.1206 15.6 11.9821 15.8756 11.8642C15.9926 11.8129 16.1148 11.7667 16.2396 11.7257C16.3488 11.6898 16.4632 11.6565 16.5776 11.6283C16.5932 11.6231 16.6088 11.618 16.627 11.6154C16.7518 11.5847 16.8766 11.5744 16.991 11.5847C17.3368 11.6129 17.6124 11.8129 17.667 12.1334C17.7086 12.3642 17.693 12.5949 17.6306 12.818C17.6098 12.8924 17.5838 12.9667 17.5552 13.0385C17.5058 13.1565 17.4512 13.2719 17.3966 13.3898C17.3186 13.5513 17.2328 13.7077 17.1418 13.8616C16.9858 14.1231 16.8064 14.377 16.601 14.6154C16.549 14.6744 16.497 14.736 16.4424 14.7924C16.419 14.818 16.3956 14.8436 16.3774 14.8693C16.3202 14.9462 16.289 15.0231 16.2786 15.1001C16.2656 15.2026 16.2864 15.3103 16.3384 15.4231C16.3722 15.5001 16.406 15.5488 16.4528 15.5642C16.4658 15.5693 16.4762 15.5693 16.4918 15.5693C16.51 15.5693 16.5334 15.5616 16.5594 15.5539C16.588 15.5436 16.6166 15.5283 16.653 15.5052C16.9624 15.3077 17.2874 15.1257 17.6124 14.9462C17.6514 14.9257 17.693 14.9077 17.732 14.8872C17.8724 14.818 18.0206 14.759 18.174 14.7129C18.3092 14.6719 18.4496 14.6436 18.5952 14.6231C18.6108 14.6206 18.6238 14.618 18.6394 14.6154C18.694 14.6103 18.746 14.6077 18.7954 14.6077C18.8916 14.6103 18.9774 14.6257 19.0502 14.6565C19.123 14.6847 19.1828 14.7283 19.227 14.7847C19.2946 14.8667 19.331 14.9795 19.331 15.1154C19.331 15.1872 19.3206 15.2565 19.305 15.3257C19.3024 15.3616 19.292 15.3949 19.2816 15.4283Z" fill="url(#paint6_linear_426_728)"/>
<path d="M20.345 26.9693C20.3268 26.6873 20.2878 26.4052 20.2254 26.1232C20.1448 25.7617 20.033 25.4155 19.8952 25.0796C19.8744 25.0258 19.851 24.9719 19.8276 24.9206C19.682 24.5924 19.5078 24.277 19.305 23.9719C19.084 23.6386 18.8396 23.3258 18.5796 23.0258C18.3196 22.7258 18.0414 22.4411 17.7502 22.1668C17.7268 22.1437 17.6306 22.0873 17.6254 22.0232C17.6254 22.0181 17.6228 22.0155 17.6228 22.0104C17.6228 22.0052 17.6254 22.0001 17.628 21.995C17.6306 21.9899 17.6358 21.9822 17.6436 21.9719C17.017 21.6565 16.432 21.1745 15.9406 20.6052C15.9198 20.6001 15.9016 20.5976 15.8808 20.5924V20.595C15.8366 20.5796 15.7924 20.5591 15.7456 20.5335C15.7482 20.495 15.7612 20.4514 15.7768 20.4078C15.4752 20.0309 15.2152 19.6258 15.0098 19.2129C14.8304 19.2617 14.6406 19.2873 14.4326 19.2719C14.1674 19.254 14.0166 19.1488 13.9984 18.9335C13.9802 18.7258 13.9958 18.5206 14.0842 18.3155C14.1596 18.1335 14.2506 17.9617 14.3546 17.795C13.988 17.5437 13.6422 17.2693 13.3224 16.9693C12.6126 17.1463 12.0562 16.936 12.09 16.2232C12.0926 16.195 12.0978 16.1668 12.1004 16.1386C11.8872 15.9565 11.6844 15.7411 11.479 15.5155C11.115 15.1129 10.894 14.6591 10.7432 14.1796C10.7536 14.3976 10.7744 14.6129 10.8082 14.8283C10.4286 14.2617 10.075 13.677 9.76559 13.0617C8.26799 10.0745 8.45779 7.22576 10.569 4.56422C10.6366 4.47704 10.7068 4.39243 10.7744 4.30525C10.9382 4.09755 10.6912 3.81807 10.4598 3.94884C7.29819 5.74884 4.96859 8.10268 4.75539 11.8693C4.73979 12.1463 4.33679 12.1822 4.27699 11.9104C4.17299 11.4463 4.13919 10.9745 4.12099 10.5052C4.09759 9.86166 4.10539 9.2155 4.11059 8.48986C4.11319 8.24627 3.79079 8.15653 3.66079 8.36166C1.95259 11.0309 1.38059 14.1976 2.94579 17.5668C3.06799 17.8283 2.70399 18.0386 2.52979 17.8078C2.41279 17.6514 2.29839 17.4976 2.18659 17.3411C1.80439 16.8181 1.65879 16.1873 1.41959 15.5052C1.34159 15.2822 1.01659 15.2976 0.95419 15.5232C0.36919 17.6181 0.80339 19.4463 2.08779 21.0745C3.67119 23.0847 5.69659 24.2052 8.05999 24.5642C8.35379 24.6078 8.45779 24.1976 8.17959 24.1001C5.19999 23.0565 3.17199 21.595 2.45179 19.9411C2.34779 19.7052 2.64679 19.495 2.83919 19.6694C4.74759 21.3924 6.92379 22.5052 9.01159 22.7847C9.27419 22.8206 9.39119 22.4719 9.16239 22.3411C7.39959 21.3258 5.93059 20.1181 4.80479 18.5206C3.72319 16.9873 3.11219 15.3283 3.01339 13.7386C2.99779 13.4668 3.38519 13.3873 3.48399 13.6411C4.56299 16.4719 7.00439 19.0437 9.17019 20.4591C9.39639 20.6078 9.66159 20.336 9.50299 20.1206C7.10319 16.8617 5.61079 13.454 6.75739 9.57448C6.83799 9.30012 7.24879 9.37448 7.23319 9.65909C7.11099 11.8565 7.82079 13.9206 9.06619 15.9001C10.3064 17.8668 11.8274 19.6155 13.4108 21.3155C13.8112 21.7437 14.0452 22.0001 14.1232 22.2206C14.1258 22.2283 14.131 22.2335 14.1362 22.2411C13.1898 22.9924 12.5762 23.7078 12.5762 23.7078C12.4878 23.795 12.402 23.8847 12.3136 23.9796C12.1342 24.1745 11.9704 24.3668 11.8274 24.554C11.9158 24.4899 12.0614 24.3822 12.246 24.2514C13.2444 23.5386 14.43 22.7104 15.8834 22.1206C15.9016 22.1129 15.9224 22.1052 15.9406 22.0976C16.016 22.0668 16.0888 22.0335 16.1668 22.0052C16.3176 21.9488 16.4398 21.9078 16.5386 21.877C16.6634 21.8386 16.757 21.8129 16.8324 21.7976C16.8766 21.7873 16.9156 21.7822 16.952 21.7745C16.8116 21.8924 16.6634 22.0027 16.5152 22.1104C16.5932 22.1206 16.6712 22.1411 16.7492 22.177C16.913 22.2514 17.056 22.4283 17.1132 22.595C17.1288 22.6437 17.1392 22.6976 17.1444 22.754C17.1964 22.7668 17.2458 22.777 17.2952 22.795C17.407 22.8335 17.5162 22.8847 17.6228 22.9463C17.7294 23.0078 17.8308 23.0796 17.927 23.1617C17.979 23.2027 18.0076 23.2591 18.0102 23.3206C18.0102 23.3411 18.0102 23.3617 18.005 23.3847C17.9946 23.436 17.9686 23.4642 17.9322 23.4822C17.8958 23.5001 17.8542 23.5078 17.8152 23.5155C17.7164 23.5386 17.6202 23.5283 17.5214 23.5155C17.4564 23.5078 17.4018 23.5052 17.3576 23.5104C17.2224 23.5258 17.1678 23.6104 17.1314 23.8258C17.1106 23.9411 17.1522 23.9796 17.2146 23.995C17.2432 24.0027 17.277 24.0052 17.3108 24.0078C17.3134 24.0078 17.316 24.0078 17.3212 24.0078C17.3524 24.0104 17.3862 24.0129 17.4096 24.0258C17.4408 24.0386 17.4772 24.0437 17.511 24.0488C17.537 24.0514 17.563 24.0565 17.5864 24.0642C17.9374 24.177 18.3066 24.254 18.5796 24.5283C18.668 24.6155 18.707 24.7001 18.7018 24.7822C18.6992 24.8027 18.6966 24.8232 18.6888 24.8437C18.668 24.9052 18.6186 24.9642 18.5458 25.0206C18.499 25.0565 18.4522 25.0847 18.4002 25.1104C18.2988 25.1591 18.1896 25.1924 18.0804 25.2181C18.0258 25.2309 17.9712 25.2437 17.9166 25.2565C17.6982 25.3052 17.4746 25.3129 17.2536 25.3104C17.1184 25.3104 16.9858 25.3052 16.8532 25.3027C16.7622 25.3001 16.705 25.3283 16.6712 25.3694C16.6244 25.4232 16.6114 25.5027 16.601 25.577C16.5984 25.595 16.5958 25.6129 16.5932 25.6283C16.5828 25.6873 16.5984 25.7206 16.6296 25.7386C16.6504 25.7514 16.6738 25.754 16.7024 25.7565C16.744 25.7591 16.7882 25.7565 16.8246 25.7591C17.2302 25.7924 17.6384 25.8155 18.0388 25.8899C18.1376 25.9078 18.2338 25.9258 18.3326 25.9514C18.4106 25.9719 18.4886 25.9924 18.5666 26.0155C18.6446 26.0386 18.72 26.0642 18.7954 26.095C18.9462 26.154 19.0892 26.2283 19.2192 26.3335C19.2452 26.354 19.2686 26.377 19.2894 26.4001C19.435 26.5617 19.435 26.7591 19.2816 26.9386C19.2478 26.977 19.2114 27.0155 19.1724 27.0514C19.1334 27.0873 19.0918 27.1181 19.0476 27.1463C18.8734 27.2565 18.6914 27.3488 18.5016 27.4258C18.4288 27.4565 18.356 27.4847 18.2832 27.5104C18.1246 27.5668 17.9608 27.6129 17.7944 27.6514C17.7632 27.6591 17.7346 27.6668 17.706 27.6745C17.5994 27.6976 17.4928 27.7206 17.3862 27.7437C17.0664 27.8129 16.7414 27.8694 16.4086 27.8719C16.2448 27.8719 16.1538 27.954 16.1226 28.1078C16.1122 28.1591 16.107 28.2181 16.1096 28.2873C16.1122 28.3719 16.1382 28.4155 16.1746 28.4386C16.2006 28.454 16.2292 28.4565 16.263 28.4591C16.3124 28.4591 16.3644 28.4514 16.4112 28.4514C16.7362 28.4565 17.0638 28.4565 17.3888 28.4514C17.4876 28.4488 17.5864 28.454 17.6852 28.4617C17.784 28.4694 17.8802 28.4822 17.9764 28.4976C18.1688 28.5309 18.3586 28.5796 18.5458 28.6437C18.824 28.7386 19.0164 28.8822 19.1152 29.0591C19.1906 29.1899 19.2088 29.3411 19.1724 29.5001C19.1594 29.554 19.1412 29.6078 19.1152 29.6642C19.0346 29.8386 18.9176 29.9899 18.7746 30.1206C18.7278 30.1642 18.6784 30.2052 18.6264 30.2437C17.9036 30.7847 17.0846 31.1232 16.2214 31.3642C16.1304 31.3899 16.0602 31.4258 16.0186 31.4822C15.977 31.536 15.9614 31.6078 15.9744 31.7027C15.9744 31.7027 15.9744 31.7027 15.9744 31.7052C15.9744 31.7104 15.977 31.7155 15.977 31.7206C15.9874 31.7976 16.003 31.8719 16.0056 31.9488C16.0082 32.0155 16.0212 32.0617 16.0472 32.0924C16.0732 32.1232 16.107 32.1335 16.1538 32.1335C16.185 32.1309 16.2214 32.1232 16.2604 32.1104C16.5282 32.0206 16.796 31.9283 17.0612 31.8283C17.2328 31.7642 17.4044 31.695 17.576 31.6206C17.667 31.5822 17.758 31.5437 17.8464 31.5027C17.8802 31.4873 17.914 31.4642 17.9478 31.4411C17.9998 31.4052 18.0518 31.3694 18.1064 31.354C18.1246 31.3488 18.1428 31.3463 18.161 31.3463C18.1896 31.3463 18.2208 31.3565 18.252 31.377C18.2598 31.3822 18.2676 31.3847 18.2754 31.3899C18.304 31.4129 18.3222 31.4411 18.3352 31.4719C18.3456 31.495 18.3534 31.5206 18.356 31.5463C18.3586 31.5847 18.356 31.6258 18.3508 31.6693C18.3404 31.7335 18.3274 31.7976 18.3196 31.8591C18.3196 31.8668 18.317 31.8745 18.3144 31.8796C18.2338 32.2181 18.1298 32.5463 18.0102 32.8668C17.9296 33.0822 17.8412 33.2924 17.7476 33.5027C17.6072 33.8155 17.4538 34.1258 17.2926 34.4309C17.1496 34.7052 17.004 34.977 16.8532 35.2668C16.8844 35.2668 16.9104 35.2642 16.9338 35.2565C16.9988 35.2335 17.0222 35.1796 17.0508 35.136C17.368 34.6847 17.6774 34.2283 17.9764 33.7668C18.473 32.995 18.9332 32.2027 19.3258 31.3694C19.6092 30.7694 19.8536 30.1591 20.0382 29.5283C20.0746 29.4027 20.1084 29.2745 20.1396 29.1488C20.202 28.895 20.254 28.636 20.293 28.3745C20.3216 28.1873 20.3424 28.0027 20.3554 27.8155C20.3684 27.6283 20.3736 27.4411 20.371 27.254C20.3554 27.1565 20.3502 27.0617 20.345 26.9693Z" fill="white"/>
<defs>
<linearGradient id="paint0_linear_426_728" x1="39.1507" y1="18.0252" x2="34.2783" y2="9.46781" gradientUnits="userSpaceOnUse">
<stop stop-color="#F7941D"/>
<stop offset="0.1408" stop-color="#F28D20"/>
<stop offset="0.3444" stop-color="#E77D24"/>
<stop offset="0.5861" stop-color="#D96429"/>
<stop offset="0.855" stop-color="#C83D2D"/>
<stop offset="1" stop-color="#BE1E2D"/>
</linearGradient>
<linearGradient id="paint1_linear_426_728" x1="49.0228" y1="18.2296" x2="44.4495" y2="10.1975" gradientUnits="userSpaceOnUse">
<stop stop-color="#F7941D"/>
<stop offset="0.1408" stop-color="#F28D20"/>
<stop offset="0.3444" stop-color="#E77D24"/>
<stop offset="0.5861" stop-color="#D96429"/>
<stop offset="0.855" stop-color="#C83D2D"/>
<stop offset="1" stop-color="#BE1E2D"/>
</linearGradient>
<linearGradient id="paint2_linear_426_728" x1="39.6785" y1="29.0747" x2="35.0225" y2="20.8975" gradientUnits="userSpaceOnUse">
<stop stop-color="#F7941D"/>
<stop offset="0.1408" stop-color="#F28D20"/>
<stop offset="0.3444" stop-color="#E77D24"/>
<stop offset="0.5861" stop-color="#D96429"/>
<stop offset="0.855" stop-color="#C83D2D"/>
<stop offset="1" stop-color="#BE1E2D"/>
</linearGradient>
<linearGradient id="paint3_linear_426_728" x1="47.7293" y1="27.9412" x2="42.8186" y2="19.3165" gradientUnits="userSpaceOnUse">
<stop stop-color="#F7941D"/>
<stop offset="0.1408" stop-color="#F28D20"/>
<stop offset="0.3444" stop-color="#E77D24"/>
<stop offset="0.5861" stop-color="#D96429"/>
<stop offset="0.855" stop-color="#C83D2D"/>
<stop offset="1" stop-color="#BE1E2D"/>
</linearGradient>
<linearGradient id="paint4_linear_426_728" x1="54.4184" y1="29.0747" x2="49.7624" y2="20.8975" gradientUnits="userSpaceOnUse">
<stop stop-color="#F7941D"/>
<stop offset="0.1408" stop-color="#F28D20"/>
<stop offset="0.3444" stop-color="#E77D24"/>
<stop offset="0.5861" stop-color="#D96429"/>
<stop offset="0.855" stop-color="#C83D2D"/>
<stop offset="1" stop-color="#BE1E2D"/>
</linearGradient>
<linearGradient id="paint5_linear_426_728" x1="63.1248" y1="27.9621" x2="58.2119" y2="19.3336" gradientUnits="userSpaceOnUse">
<stop stop-color="#F7941D"/>
<stop offset="0.1408" stop-color="#F28D20"/>
<stop offset="0.3444" stop-color="#E77D24"/>
<stop offset="0.5861" stop-color="#D96429"/>
<stop offset="0.855" stop-color="#C83D2D"/>
<stop offset="1" stop-color="#BE1E2D"/>
</linearGradient>
<linearGradient id="paint6_linear_426_728" x1="26.8051" y1="27.5958" x2="5.77023" y2="6.26647" gradientUnits="userSpaceOnUse">
<stop stop-color="#F7941D"/>
<stop offset="0.1408" stop-color="#F28D20"/>
<stop offset="0.3444" stop-color="#E77D24"/>
<stop offset="0.5861" stop-color="#D96429"/>
<stop offset="0.855" stop-color="#C83D2D"/>
<stop offset="1" stop-color="#BE1E2D"/>
</linearGradient>
</defs>
</svg>
