<svg width="19" height="20" viewBox="0 0 19 20" fill="none" xmlns="http://www.w3.org/2000/svg">
<path d="M6.90291 19.1249C6.11115 19.1211 5.32806 18.9599 4.59921 18.6506C3.87037 18.3413 3.21032 17.8901 2.65749 17.3233C2.10881 16.8032 1.66806 16.1801 1.36046 15.4896C1.05287 14.799 0.884458 14.0546 0.864875 13.2989C0.845293 12.5432 0.974921 11.791 1.24634 11.0854C1.51776 10.3799 1.92565 9.73478 2.44666 9.18703L9.49999 2.06661C9.87666 1.69064 10.3256 1.39489 10.8197 1.19724C11.3139 0.999586 11.8429 0.904123 12.375 0.916612C12.9449 0.918553 13.5088 1.03395 14.0336 1.25607C14.5585 1.47819 15.0339 1.8026 15.4321 2.21036C16.2246 2.97342 16.6842 4.01827 16.7111 5.11811C16.738 6.21796 16.3301 7.28403 15.5758 8.08494L8.48416 15.2054C8.25702 15.434 7.98672 15.6153 7.68896 15.7387C7.39119 15.8621 7.07189 15.9251 6.74958 15.9241C6.40139 15.9246 6.05664 15.8553 5.73568 15.7203C5.41471 15.5853 5.12404 15.3874 4.88082 15.1383C4.39469 14.6676 4.11394 14.0241 4.09959 13.3476C4.08523 12.6711 4.33843 12.0162 4.80416 11.5254L11.3496 4.9512C11.5359 4.82748 11.7595 4.7728 11.9819 4.79663C12.2042 4.82046 12.4113 4.9213 12.5671 5.08168C12.7229 5.24207 12.8178 5.4519 12.8352 5.67484C12.8526 5.89778 12.7915 6.1198 12.6625 6.30245L6.11707 12.8766C6.00793 13.0081 5.9548 13.1772 5.96914 13.3475C5.98348 13.5178 6.06414 13.6756 6.19374 13.787C6.32859 13.9228 6.51038 14.0017 6.70166 14.0074C6.77251 14.0085 6.84287 13.9954 6.90866 13.9691C6.97445 13.9428 7.03438 13.9037 7.08499 13.8541L14.1671 6.7337C14.5646 6.29208 14.7724 5.71176 14.7455 5.11819C14.7186 4.52461 14.4592 3.96546 14.0233 3.56161C13.6185 3.14133 13.068 2.89218 12.4851 2.86544C11.9022 2.8387 11.3312 3.0364 10.8896 3.41786L3.80749 10.4999C3.46311 10.8698 3.19527 11.3042 3.01938 11.778C2.8435 12.2518 2.76304 12.7557 2.78263 13.2607C2.80223 13.7657 2.92149 14.2618 3.13356 14.7206C3.34563 15.1793 3.64632 15.5916 4.01832 15.9337C4.39138 16.3204 4.83777 16.6289 5.3314 16.8412C5.82503 17.0534 6.35601 17.1652 6.89332 17.1699C7.3566 17.1737 7.81606 17.0859 8.2453 16.9116C8.67454 16.7372 9.06511 16.4798 9.39458 16.1541L16.4767 9.0337C16.5654 8.94434 16.6708 8.87334 16.787 8.82474C16.9032 8.77614 17.0278 8.7509 17.1537 8.75045C17.2796 8.75001 17.4044 8.77437 17.5209 8.82215C17.6374 8.86992 17.7433 8.94018 17.8327 9.0289C17.9221 9.11763 17.9931 9.22308 18.0417 9.33925C18.0903 9.45541 18.1155 9.58001 18.1159 9.70593C18.1164 9.83185 18.092 9.95663 18.0442 10.0731C17.9965 10.1896 17.9262 10.2956 17.8375 10.3849L10.7554 17.5054C10.2526 18.0171 9.65307 18.4238 8.99171 18.7018C8.33035 18.9798 7.62033 19.1237 6.90291 19.1249Z" fill="#FF9922"/>
</svg>
